<svg width="208" height="51" viewBox="0 0 208 51" fill="none" xmlns="http://www.w3.org/2000/svg">
<path d="M0 6C0 2.68629 2.68629 0 6 0H202C205.314 0 208 2.68629 208 6V45C208 48.3137 205.314 51 202 51H6C2.68629 51 0 48.3137 0 45V6Z" fill="#118DA8"/>
<path d="M25.13 32L20.396 19.4H22.034L26.012 30.398L30.026 19.4H31.628L26.894 32H25.13ZM34.1834 21.092C33.8834 21.092 33.6314 20.996 33.4274 20.804C33.2354 20.6 33.1394 20.348 33.1394 20.048C33.1394 19.76 33.2354 19.52 33.4274 19.328C33.6314 19.136 33.8834 19.04 34.1834 19.04C34.4714 19.04 34.7174 19.136 34.9214 19.328C35.1254 19.52 35.2274 19.76 35.2274 20.048C35.2274 20.348 35.1254 20.6 34.9214 20.804C34.7174 20.996 34.4714 21.092 34.1834 21.092ZM33.4274 32V23.072H34.9394V32H33.4274ZM41.5861 32.216C40.7341 32.216 39.9781 32.024 39.3181 31.64C38.6581 31.244 38.1361 30.698 37.7521 30.002C37.3801 29.306 37.1941 28.484 37.1941 27.536C37.1941 26.6 37.3801 25.784 37.7521 25.088C38.1241 24.38 38.6401 23.834 39.3001 23.45C39.9721 23.054 40.7461 22.856 41.6221 22.856C42.4861 22.856 43.2301 23.054 43.8541 23.45C44.4901 23.834 44.9761 24.344 45.3121 24.98C45.6481 25.616 45.8161 26.3 45.8161 27.032C45.8161 27.164 45.8101 27.296 45.7981 27.428C45.7981 27.56 45.7981 27.71 45.7981 27.878H38.6881C38.7241 28.562 38.8801 29.132 39.1561 29.588C39.4441 30.032 39.7981 30.368 40.2181 30.596C40.6501 30.824 41.1061 30.938 41.5861 30.938C42.2101 30.938 42.7321 30.794 43.1521 30.506C43.5721 30.218 43.8781 29.828 44.0701 29.336H45.5641C45.3241 30.164 44.8621 30.854 44.1781 31.406C43.5061 31.946 42.6421 32.216 41.5861 32.216ZM41.5861 24.134C40.8661 24.134 40.2241 24.356 39.6601 24.8C39.1081 25.232 38.7901 25.868 38.7061 26.708H44.3221C44.2861 25.904 44.0101 25.274 43.4941 24.818C42.9781 24.362 42.3421 24.134 41.5861 24.134ZM49.2686 32L46.6586 23.072H48.1706L50.0606 30.074L52.1486 23.072H53.8586L55.9646 30.074L57.8366 23.072H59.3666L56.7566 32H55.2086L53.0126 24.638L50.8166 32H49.2686ZM65.8925 32V19.4H73.6865V20.642H67.4045V25.034H73.1465V26.258H67.4045V30.758H73.6865V32H65.8925ZM75.9627 35.96V23.072H77.3307L77.4747 24.548C77.7627 24.116 78.1707 23.726 78.6987 23.378C79.2387 23.03 79.9227 22.856 80.7507 22.856C81.6387 22.856 82.4127 23.06 83.0727 23.468C83.7327 23.876 84.2427 24.434 84.6027 25.142C84.9747 25.85 85.1607 26.654 85.1607 27.554C85.1607 28.454 84.9747 29.258 84.6027 29.966C84.2427 30.662 83.7267 31.214 83.0547 31.622C82.3947 32.018 81.6207 32.216 80.7327 32.216C80.0007 32.216 79.3467 32.066 78.7707 31.766C78.2067 31.466 77.7747 31.046 77.4747 30.506V35.96H75.9627ZM80.5707 30.902C81.1707 30.902 81.6987 30.764 82.1547 30.488C82.6107 30.2 82.9707 29.804 83.2347 29.3C83.4987 28.796 83.6307 28.208 83.6307 27.536C83.6307 26.864 83.4987 26.276 83.2347 25.772C82.9707 25.268 82.6107 24.878 82.1547 24.602C81.6987 24.314 81.1707 24.17 80.5707 24.17C79.9707 24.17 79.4427 24.314 78.9867 24.602C78.5307 24.878 78.1707 25.268 77.9067 25.772C77.6427 26.276 77.5107 26.864 77.5107 27.536C77.5107 28.208 77.6427 28.796 77.9067 29.3C78.1707 29.804 78.5307 30.2 78.9867 30.488C79.4427 30.764 79.9707 30.902 80.5707 30.902ZM88.1834 21.092C87.8834 21.092 87.6314 20.996 87.4274 20.804C87.2354 20.6 87.1394 20.348 87.1394 20.048C87.1394 19.76 87.2354 19.52 87.4274 19.328C87.6314 19.136 87.8834 19.04 88.1834 19.04C88.4714 19.04 88.7174 19.136 88.9214 19.328C89.1254 19.52 89.2274 19.76 89.2274 20.048C89.2274 20.348 89.1254 20.6 88.9214 20.804C88.7174 20.996 88.4714 21.092 88.1834 21.092ZM87.4274 32V23.072H88.9394V32H87.4274ZM94.9921 32.216C93.9241 32.216 93.0361 31.946 92.3281 31.406C91.6201 30.866 91.2061 30.134 91.0861 29.21H92.6341C92.7301 29.678 92.9761 30.086 93.3721 30.434C93.7801 30.77 94.3261 30.938 95.0101 30.938C95.6461 30.938 96.1141 30.806 96.4141 30.542C96.7141 30.266 96.8641 29.942 96.8641 29.57C96.8641 29.03 96.6661 28.67 96.2701 28.49C95.8861 28.31 95.3401 28.148 94.6321 28.004C94.1521 27.908 93.6721 27.77 93.1921 27.59C92.7121 27.41 92.3101 27.158 91.9861 26.834C91.6621 26.498 91.5001 26.06 91.5001 25.52C91.5001 24.74 91.7881 24.104 92.3641 23.612C92.9521 23.108 93.7441 22.856 94.7401 22.856C95.6881 22.856 96.4621 23.096 97.0621 23.576C97.6741 24.044 98.0281 24.716 98.1241 25.592H96.6301C96.5701 25.136 96.3721 24.782 96.0361 24.53C95.7121 24.266 95.2741 24.134 94.7221 24.134C94.1821 24.134 93.7621 24.248 93.4621 24.476C93.1741 24.704 93.0301 25.004 93.0301 25.376C93.0301 25.736 93.2161 26.018 93.5881 26.222C93.9721 26.426 94.4881 26.6 95.1361 26.744C95.6881 26.864 96.2101 27.014 96.7021 27.194C97.2061 27.362 97.6141 27.62 97.9261 27.968C98.2501 28.304 98.4121 28.796 98.4121 29.444C98.4241 30.248 98.1181 30.914 97.4941 31.442C96.8821 31.958 96.0481 32.216 94.9921 32.216ZM104.64 32.216C103.8 32.216 103.044 32.024 102.372 31.64C101.7 31.256 101.166 30.716 100.77 30.02C100.386 29.312 100.194 28.484 100.194 27.536C100.194 26.588 100.392 25.766 100.788 25.07C101.184 24.362 101.718 23.816 102.39 23.432C103.074 23.048 103.836 22.856 104.676 22.856C105.516 22.856 106.272 23.048 106.944 23.432C107.616 23.816 108.144 24.362 108.528 25.07C108.924 25.766 109.122 26.588 109.122 27.536C109.122 28.484 108.924 29.312 108.528 30.02C108.132 30.716 107.592 31.256 106.908 31.64C106.236 32.024 105.48 32.216 104.64 32.216ZM104.64 30.92C105.156 30.92 105.636 30.794 106.08 30.542C106.524 30.29 106.884 29.912 107.16 29.408C107.436 28.904 107.574 28.28 107.574 27.536C107.574 26.792 107.436 26.168 107.16 25.664C106.896 25.16 106.542 24.782 106.098 24.53C105.654 24.278 105.18 24.152 104.676 24.152C104.16 24.152 103.68 24.278 103.236 24.53C102.792 24.782 102.432 25.16 102.156 25.664C101.88 26.168 101.742 26.792 101.742 27.536C101.742 28.28 101.88 28.904 102.156 29.408C102.432 29.912 102.786 30.29 103.218 30.542C103.662 30.794 104.136 30.92 104.64 30.92ZM115.274 32.216C114.386 32.216 113.606 32.012 112.934 31.604C112.274 31.196 111.758 30.638 111.386 29.93C111.026 29.222 110.846 28.418 110.846 27.518C110.846 26.618 111.032 25.82 111.404 25.124C111.776 24.416 112.292 23.864 112.952 23.468C113.612 23.06 114.392 22.856 115.292 22.856C116.024 22.856 116.672 23.006 117.236 23.306C117.8 23.606 118.238 24.026 118.55 24.566V19.04H120.062V32H118.694L118.55 30.524C118.262 30.956 117.848 31.346 117.308 31.694C116.768 32.042 116.09 32.216 115.274 32.216ZM115.436 30.902C116.036 30.902 116.564 30.764 117.02 30.488C117.488 30.2 117.848 29.804 118.1 29.3C118.364 28.796 118.496 28.208 118.496 27.536C118.496 26.864 118.364 26.276 118.1 25.772C117.848 25.268 117.488 24.878 117.02 24.602C116.564 24.314 116.036 24.17 115.436 24.17C114.848 24.17 114.32 24.314 113.852 24.602C113.396 24.878 113.036 25.268 112.772 25.772C112.52 26.276 112.394 26.864 112.394 27.536C112.394 28.208 112.52 28.796 112.772 29.3C113.036 29.804 113.396 30.2 113.852 30.488C114.32 30.764 114.848 30.902 115.436 30.902ZM126.541 32.216C125.689 32.216 124.933 32.024 124.273 31.64C123.613 31.244 123.091 30.698 122.707 30.002C122.335 29.306 122.149 28.484 122.149 27.536C122.149 26.6 122.335 25.784 122.707 25.088C123.079 24.38 123.595 23.834 124.255 23.45C124.927 23.054 125.701 22.856 126.577 22.856C127.441 22.856 128.185 23.054 128.809 23.45C129.445 23.834 129.931 24.344 130.267 24.98C130.603 25.616 130.771 26.3 130.771 27.032C130.771 27.164 130.765 27.296 130.753 27.428C130.753 27.56 130.753 27.71 130.753 27.878H123.643C123.679 28.562 123.835 29.132 124.111 29.588C124.399 30.032 124.753 30.368 125.173 30.596C125.605 30.824 126.061 30.938 126.541 30.938C127.165 30.938 127.687 30.794 128.107 30.506C128.527 30.218 128.833 29.828 129.025 29.336H130.519C130.279 30.164 129.817 30.854 129.133 31.406C128.461 31.946 127.597 32.216 126.541 32.216ZM126.541 24.134C125.821 24.134 125.179 24.356 124.615 24.8C124.063 25.232 123.745 25.868 123.661 26.708H129.277C129.241 25.904 128.965 25.274 128.449 24.818C127.933 24.362 127.297 24.134 126.541 24.134ZM137.629 32V19.4H141.499C143.719 19.4 145.351 19.964 146.395 21.092C147.451 22.22 147.979 23.768 147.979 25.736C147.979 27.668 147.451 29.198 146.395 30.326C145.351 31.442 143.719 32 141.499 32H137.629ZM139.141 30.74H141.463C142.687 30.74 143.659 30.542 144.379 30.146C145.111 29.738 145.633 29.162 145.945 28.418C146.257 27.662 146.413 26.768 146.413 25.736C146.413 24.68 146.257 23.774 145.945 23.018C145.633 22.262 145.111 21.68 144.379 21.272C143.659 20.864 142.687 20.66 141.463 20.66H139.141V30.74ZM154.086 32.216C153.234 32.216 152.478 32.024 151.818 31.64C151.158 31.244 150.636 30.698 150.252 30.002C149.88 29.306 149.694 28.484 149.694 27.536C149.694 26.6 149.88 25.784 150.252 25.088C150.624 24.38 151.14 23.834 151.8 23.45C152.472 23.054 153.246 22.856 154.122 22.856C154.986 22.856 155.73 23.054 156.354 23.45C156.99 23.834 157.476 24.344 157.812 24.98C158.148 25.616 158.316 26.3 158.316 27.032C158.316 27.164 158.31 27.296 158.298 27.428C158.298 27.56 158.298 27.71 158.298 27.878H151.188C151.224 28.562 151.38 29.132 151.656 29.588C151.944 30.032 152.298 30.368 152.718 30.596C153.15 30.824 153.606 30.938 154.086 30.938C154.71 30.938 155.232 30.794 155.652 30.506C156.072 30.218 156.378 29.828 156.57 29.336H158.064C157.824 30.164 157.362 30.854 156.678 31.406C156.006 31.946 155.142 32.216 154.086 32.216ZM154.086 24.134C153.366 24.134 152.724 24.356 152.16 24.8C151.608 25.232 151.29 25.868 151.206 26.708H156.822C156.786 25.904 156.51 25.274 155.994 24.818C155.478 24.362 154.842 24.134 154.086 24.134ZM163.549 32C162.733 32 162.091 31.802 161.623 31.406C161.155 31.01 160.921 30.296 160.921 29.264V24.35H159.373V23.072H160.921L161.119 20.93H162.433V23.072H165.061V24.35H162.433V29.264C162.433 29.828 162.547 30.212 162.775 30.416C163.003 30.608 163.405 30.704 163.981 30.704H164.917V32H163.549ZM169.952 32.216C169.208 32.216 168.59 32.09 168.098 31.838C167.606 31.586 167.24 31.25 167 30.83C166.76 30.41 166.64 29.954 166.64 29.462C166.64 28.55 166.988 27.848 167.684 27.356C168.38 26.864 169.328 26.618 170.528 26.618H172.94V26.51C172.94 25.73 172.736 25.142 172.328 24.746C171.92 24.338 171.374 24.134 170.69 24.134C170.102 24.134 169.592 24.284 169.16 24.584C168.74 24.872 168.476 25.298 168.368 25.862H166.82C166.88 25.214 167.096 24.668 167.468 24.224C167.852 23.78 168.326 23.444 168.89 23.216C169.454 22.976 170.054 22.856 170.69 22.856C171.938 22.856 172.874 23.192 173.498 23.864C174.134 24.524 174.452 25.406 174.452 26.51V32H173.102L173.012 30.398C172.76 30.902 172.388 31.334 171.896 31.694C171.416 32.042 170.768 32.216 169.952 32.216ZM170.186 30.938C170.762 30.938 171.254 30.788 171.662 30.488C172.082 30.188 172.4 29.798 172.616 29.318C172.832 28.838 172.94 28.334 172.94 27.806V27.788H170.654C169.766 27.788 169.136 27.944 168.764 28.256C168.404 28.556 168.224 28.934 168.224 29.39C168.224 29.858 168.392 30.236 168.728 30.524C169.076 30.8 169.562 30.938 170.186 30.938ZM177.639 21.092C177.339 21.092 177.087 20.996 176.883 20.804C176.691 20.6 176.595 20.348 176.595 20.048C176.595 19.76 176.691 19.52 176.883 19.328C177.087 19.136 177.339 19.04 177.639 19.04C177.927 19.04 178.173 19.136 178.377 19.328C178.581 19.52 178.683 19.76 178.683 20.048C178.683 20.348 178.581 20.6 178.377 20.804C178.173 20.996 177.927 21.092 177.639 21.092ZM176.883 32V23.072H178.395V32H176.883ZM181.027 32V19.04H182.539V32H181.027ZM188.437 32.216C187.369 32.216 186.481 31.946 185.773 31.406C185.065 30.866 184.651 30.134 184.531 29.21H186.079C186.175 29.678 186.421 30.086 186.817 30.434C187.225 30.77 187.771 30.938 188.455 30.938C189.091 30.938 189.559 30.806 189.859 30.542C190.159 30.266 190.309 29.942 190.309 29.57C190.309 29.03 190.111 28.67 189.715 28.49C189.331 28.31 188.785 28.148 188.077 28.004C187.597 27.908 187.117 27.77 186.637 27.59C186.157 27.41 185.755 27.158 185.431 26.834C185.107 26.498 184.945 26.06 184.945 25.52C184.945 24.74 185.233 24.104 185.809 23.612C186.397 23.108 187.189 22.856 188.185 22.856C189.133 22.856 189.907 23.096 190.507 23.576C191.119 24.044 191.473 24.716 191.569 25.592H190.075C190.015 25.136 189.817 24.782 189.481 24.53C189.157 24.266 188.719 24.134 188.167 24.134C187.627 24.134 187.207 24.248 186.907 24.476C186.619 24.704 186.475 25.004 186.475 25.376C186.475 25.736 186.661 26.018 187.033 26.222C187.417 26.426 187.933 26.6 188.581 26.744C189.133 26.864 189.655 27.014 190.147 27.194C190.651 27.362 191.059 27.62 191.371 27.968C191.695 28.304 191.857 28.796 191.857 29.444C191.869 30.248 191.563 30.914 190.939 31.442C190.327 31.958 189.493 32.216 188.437 32.216Z" fill="white"/>
</svg>
