<svg width="178" height="51" viewBox="0 0 178 51" fill="none" xmlns="http://www.w3.org/2000/svg">
<path d="M0 6C0 2.68629 2.68629 0 6 0H172C175.314 0 178 2.68629 178 6V45C178 48.3137 175.314 51 172 51H6C2.68629 51 0 48.3137 0 45V6Z" fill="#118DA8"/>
<path d="M24.845 31L20.374 19.1H21.921L25.678 29.487L29.469 19.1H30.982L26.511 31H24.845ZM33.3955 20.698C33.1121 20.698 32.8741 20.6073 32.6815 20.426C32.5001 20.2333 32.4095 19.9953 32.4095 19.712C32.4095 19.44 32.5001 19.2133 32.6815 19.032C32.8741 18.8507 33.1121 18.76 33.3955 18.76C33.6675 18.76 33.8998 18.8507 34.0925 19.032C34.2851 19.2133 34.3815 19.44 34.3815 19.712C34.3815 19.9953 34.2851 20.2333 34.0925 20.426C33.8998 20.6073 33.6675 20.698 33.3955 20.698ZM32.6815 31V22.568H34.1095V31H32.6815ZM40.3869 31.204C39.5822 31.204 38.8682 31.0227 38.2449 30.66C37.6215 30.286 37.1285 29.7703 36.7659 29.113C36.4145 28.4557 36.2389 27.6793 36.2389 26.784C36.2389 25.9 36.4145 25.1293 36.7659 24.472C37.1172 23.8033 37.6045 23.2877 38.2279 22.925C38.8625 22.551 39.5935 22.364 40.4209 22.364C41.2369 22.364 41.9395 22.551 42.5289 22.925C43.1295 23.2877 43.5885 23.7693 43.9059 24.37C44.2232 24.9707 44.3819 25.6167 44.3819 26.308C44.3819 26.4327 44.3762 26.5573 44.3649 26.682C44.3649 26.8067 44.3649 26.9483 44.3649 27.107H37.6499C37.6839 27.753 37.8312 28.2913 38.0919 28.722C38.3639 29.1413 38.6982 29.4587 39.0949 29.674C39.5029 29.8893 39.9335 29.997 40.3869 29.997C40.9762 29.997 41.4692 29.861 41.8659 29.589C42.2625 29.317 42.5515 28.9487 42.7329 28.484H44.1439C43.9172 29.266 43.4809 29.9177 42.8349 30.439C42.2002 30.949 41.3842 31.204 40.3869 31.204ZM40.3869 23.571C39.7069 23.571 39.1005 23.7807 38.5679 24.2C38.0465 24.608 37.7462 25.2087 37.6669 26.002H42.9709C42.9369 25.2427 42.6762 24.6477 42.1889 24.217C41.7015 23.7863 41.1009 23.571 40.3869 23.571ZM47.6425 31L45.1775 22.568H46.6055L48.3905 29.181L50.3625 22.568H51.9775L53.9665 29.181L55.7345 22.568H57.1795L54.7145 31H53.2525L51.1785 24.047L49.1045 31H47.6425ZM66.063 31.204C65.3603 31.204 64.7766 31.085 64.312 30.847C63.8473 30.609 63.5016 30.2917 63.275 29.895C63.0483 29.4983 62.935 29.0677 62.935 28.603C62.935 27.7417 63.2636 27.0787 63.921 26.614C64.5783 26.1493 65.4736 25.917 66.607 25.917H68.885V25.815C68.885 25.0783 68.6923 24.523 68.307 24.149C67.9216 23.7637 67.406 23.571 66.76 23.571C66.2046 23.571 65.723 23.7127 65.315 23.996C64.9183 24.268 64.669 24.6703 64.567 25.203H63.105C63.1616 24.591 63.3656 24.0753 63.717 23.656C64.0796 23.2367 64.5273 22.9193 65.06 22.704C65.5926 22.4773 66.1593 22.364 66.76 22.364C67.9386 22.364 68.8226 22.6813 69.412 23.316C70.0126 23.9393 70.313 24.7723 70.313 25.815V31H69.038L68.953 29.487C68.715 29.963 68.3636 30.371 67.899 30.711C67.4456 31.0397 66.8336 31.204 66.063 31.204ZM66.284 29.997C66.828 29.997 67.2926 29.8553 67.678 29.572C68.0746 29.2887 68.375 28.9203 68.579 28.467C68.783 28.0137 68.885 27.5377 68.885 27.039V27.022H66.726C65.8873 27.022 65.2923 27.1693 64.941 27.464C64.601 27.7473 64.431 28.1043 64.431 28.535C64.431 28.977 64.5896 29.334 64.907 29.606C65.2356 29.8667 65.6946 29.997 66.284 29.997ZM72.4552 31V18.76H73.8832V31H72.4552ZM76.2238 31V18.76H77.6518V31H76.2238ZM88.2824 31.204C87.4777 31.204 86.7637 31.0227 86.1404 30.66C85.517 30.286 85.024 29.7703 84.6614 29.113C84.31 28.4557 84.1344 27.6793 84.1344 26.784C84.1344 25.9 84.31 25.1293 84.6614 24.472C85.0127 23.8033 85.5 23.2877 86.1234 22.925C86.758 22.551 87.489 22.364 88.3164 22.364C89.1324 22.364 89.835 22.551 90.4244 22.925C91.025 23.2877 91.484 23.7693 91.8014 24.37C92.1187 24.9707 92.2774 25.6167 92.2774 26.308C92.2774 26.4327 92.2717 26.5573 92.2604 26.682C92.2604 26.8067 92.2604 26.9483 92.2604 27.107H85.5454C85.5794 27.753 85.7267 28.2913 85.9874 28.722C86.2594 29.1413 86.5937 29.4587 86.9904 29.674C87.3984 29.8893 87.829 29.997 88.2824 29.997C88.8717 29.997 89.3647 29.861 89.7614 29.589C90.158 29.317 90.447 28.9487 90.6284 28.484H92.0394C91.8127 29.266 91.3764 29.9177 90.7304 30.439C90.0957 30.949 89.2797 31.204 88.2824 31.204ZM88.2824 23.571C87.6024 23.571 86.996 23.7807 86.4634 24.2C85.942 24.608 85.6417 25.2087 85.5624 26.002H90.8664C90.8324 25.2427 90.5717 24.6477 90.0844 24.217C89.597 23.7863 88.9964 23.571 88.2824 23.571ZM94.1701 34.74V22.568H95.4621L95.5981 23.962C95.8701 23.554 96.2554 23.1857 96.7541 22.857C97.2641 22.5283 97.9101 22.364 98.6921 22.364C99.5307 22.364 100.262 22.5567 100.885 22.942C101.508 23.3273 101.99 23.8543 102.33 24.523C102.681 25.1917 102.857 25.951 102.857 26.801C102.857 27.651 102.681 28.4103 102.33 29.079C101.99 29.7363 101.503 30.2577 100.868 30.643C100.245 31.017 99.5137 31.204 98.6751 31.204C97.9837 31.204 97.3661 31.0623 96.8221 30.779C96.2894 30.4957 95.8814 30.099 95.5981 29.589V34.74H94.1701ZM98.5221 29.963C99.0887 29.963 99.5874 29.8327 100.018 29.572C100.449 29.3 100.789 28.926 101.038 28.45C101.287 27.974 101.412 27.4187 101.412 26.784C101.412 26.1493 101.287 25.594 101.038 25.118C100.789 24.642 100.449 24.2737 100.018 24.013C99.5874 23.741 99.0887 23.605 98.5221 23.605C97.9554 23.605 97.4567 23.741 97.0261 24.013C96.5954 24.2737 96.2554 24.642 96.0061 25.118C95.7567 25.594 95.6321 26.1493 95.6321 26.784C95.6321 27.4187 95.7567 27.974 96.0061 28.45C96.2554 28.926 96.5954 29.3 97.0261 29.572C97.4567 29.8327 97.9554 29.963 98.5221 29.963ZM105.712 20.698C105.429 20.698 105.191 20.6073 104.998 20.426C104.817 20.2333 104.726 19.9953 104.726 19.712C104.726 19.44 104.817 19.2133 104.998 19.032C105.191 18.8507 105.429 18.76 105.712 18.76C105.984 18.76 106.216 18.8507 106.409 19.032C106.602 19.2133 106.698 19.44 106.698 19.712C106.698 19.9953 106.602 20.2333 106.409 20.426C106.216 20.6073 105.984 20.698 105.712 20.698ZM104.998 31V22.568H106.426V31H104.998ZM112.142 31.204C111.134 31.204 110.295 30.949 109.626 30.439C108.958 29.929 108.567 29.2377 108.453 28.365H109.915C110.006 28.807 110.238 29.1923 110.612 29.521C110.998 29.8383 111.513 29.997 112.159 29.997C112.76 29.997 113.202 29.8723 113.485 29.623C113.769 29.3623 113.91 29.0563 113.91 28.705C113.91 28.195 113.723 27.855 113.349 27.685C112.987 27.515 112.471 27.362 111.802 27.226C111.349 27.1353 110.896 27.005 110.442 26.835C109.989 26.665 109.609 26.427 109.303 26.121C108.997 25.8037 108.844 25.39 108.844 24.88C108.844 24.1433 109.116 23.5427 109.66 23.078C110.216 22.602 110.964 22.364 111.904 22.364C112.8 22.364 113.531 22.5907 114.097 23.044C114.675 23.486 115.01 24.1207 115.1 24.948H113.689C113.633 24.5173 113.446 24.183 113.128 23.945C112.822 23.6957 112.409 23.571 111.887 23.571C111.377 23.571 110.981 23.6787 110.697 23.894C110.425 24.1093 110.289 24.3927 110.289 24.744C110.289 25.084 110.465 25.3503 110.816 25.543C111.179 25.7357 111.666 25.9 112.278 26.036C112.8 26.1493 113.293 26.291 113.757 26.461C114.233 26.6197 114.619 26.8633 114.913 27.192C115.219 27.5093 115.372 27.974 115.372 28.586C115.384 29.3453 115.095 29.9743 114.505 30.473C113.927 30.9603 113.14 31.204 112.142 31.204ZM121.254 31.204C120.461 31.204 119.747 31.0227 119.112 30.66C118.478 30.2973 117.973 29.7873 117.599 29.13C117.237 28.4613 117.055 27.6793 117.055 26.784C117.055 25.8887 117.242 25.1123 117.616 24.455C117.99 23.7863 118.495 23.2707 119.129 22.908C119.775 22.5453 120.495 22.364 121.288 22.364C122.082 22.364 122.796 22.5453 123.43 22.908C124.065 23.2707 124.564 23.7863 124.926 24.455C125.3 25.1123 125.487 25.8887 125.487 26.784C125.487 27.6793 125.3 28.4613 124.926 29.13C124.552 29.7873 124.042 30.2973 123.396 30.66C122.762 31.0227 122.048 31.204 121.254 31.204ZM121.254 29.98C121.742 29.98 122.195 29.861 122.614 29.623C123.034 29.385 123.374 29.028 123.634 28.552C123.895 28.076 124.025 27.4867 124.025 26.784C124.025 26.0813 123.895 25.492 123.634 25.016C123.385 24.54 123.051 24.183 122.631 23.945C122.212 23.707 121.764 23.588 121.288 23.588C120.801 23.588 120.348 23.707 119.928 23.945C119.509 24.183 119.169 24.54 118.908 25.016C118.648 25.492 118.517 26.0813 118.517 26.784C118.517 27.4867 118.648 28.076 118.908 28.552C119.169 29.028 119.503 29.385 119.911 29.623C120.331 29.861 120.778 29.98 121.254 29.98ZM131.298 31.204C130.459 31.204 129.722 31.0113 129.088 30.626C128.464 30.2407 127.977 29.7137 127.626 29.045C127.286 28.3763 127.116 27.617 127.116 26.767C127.116 25.917 127.291 25.1633 127.643 24.506C127.994 23.8373 128.481 23.316 129.105 22.942C129.728 22.5567 130.465 22.364 131.315 22.364C132.006 22.364 132.618 22.5057 133.151 22.789C133.683 23.0723 134.097 23.469 134.392 23.979V18.76H135.82V31H134.528L134.392 29.606C134.12 30.014 133.729 30.3823 133.219 30.711C132.709 31.0397 132.068 31.204 131.298 31.204ZM131.451 29.963C132.017 29.963 132.516 29.8327 132.947 29.572C133.389 29.3 133.729 28.926 133.967 28.45C134.216 27.974 134.341 27.4187 134.341 26.784C134.341 26.1493 134.216 25.594 133.967 25.118C133.729 24.642 133.389 24.2737 132.947 24.013C132.516 23.741 132.017 23.605 131.451 23.605C130.895 23.605 130.397 23.741 129.955 24.013C129.524 24.2737 129.184 24.642 128.935 25.118C128.697 25.594 128.578 26.1493 128.578 26.784C128.578 27.4187 128.697 27.974 128.935 28.45C129.184 28.926 129.524 29.3 129.955 29.572C130.397 29.8327 130.895 29.963 131.451 29.963ZM141.939 31.204C141.134 31.204 140.42 31.0227 139.797 30.66C139.173 30.286 138.68 29.7703 138.318 29.113C137.966 28.4557 137.791 27.6793 137.791 26.784C137.791 25.9 137.966 25.1293 138.318 24.472C138.669 23.8033 139.156 23.2877 139.78 22.925C140.414 22.551 141.145 22.364 141.973 22.364C142.789 22.364 143.491 22.551 144.081 22.925C144.681 23.2877 145.14 23.7693 145.458 24.37C145.775 24.9707 145.934 25.6167 145.934 26.308C145.934 26.4327 145.928 26.5573 145.917 26.682C145.917 26.8067 145.917 26.9483 145.917 27.107H139.202C139.236 27.753 139.383 28.2913 139.644 28.722C139.916 29.1413 140.25 29.4587 140.647 29.674C141.055 29.8893 141.485 29.997 141.939 29.997C142.528 29.997 143.021 29.861 143.418 29.589C143.814 29.317 144.103 28.9487 144.285 28.484H145.696C145.469 29.266 145.033 29.9177 144.387 30.439C143.752 30.949 142.936 31.204 141.939 31.204ZM141.939 23.571C141.259 23.571 140.652 23.7807 140.12 24.2C139.598 24.608 139.298 25.2087 139.219 26.002H144.523C144.489 25.2427 144.228 24.6477 143.741 24.217C143.253 23.7863 142.653 23.571 141.939 23.571ZM151.056 31.204C150.048 31.204 149.209 30.949 148.54 30.439C147.872 29.929 147.481 29.2377 147.367 28.365H148.829C148.92 28.807 149.152 29.1923 149.526 29.521C149.912 29.8383 150.427 29.997 151.073 29.997C151.674 29.997 152.116 29.8723 152.399 29.623C152.683 29.3623 152.824 29.0563 152.824 28.705C152.824 28.195 152.637 27.855 152.263 27.685C151.901 27.515 151.385 27.362 150.716 27.226C150.263 27.1353 149.81 27.005 149.356 26.835C148.903 26.665 148.523 26.427 148.217 26.121C147.911 25.8037 147.758 25.39 147.758 24.88C147.758 24.1433 148.03 23.5427 148.574 23.078C149.13 22.602 149.878 22.364 150.818 22.364C151.714 22.364 152.445 22.5907 153.011 23.044C153.589 23.486 153.924 24.1207 154.014 24.948H152.603C152.547 24.5173 152.36 24.183 152.042 23.945C151.736 23.6957 151.323 23.571 150.801 23.571C150.291 23.571 149.895 23.6787 149.611 23.894C149.339 24.1093 149.203 24.3927 149.203 24.744C149.203 25.084 149.379 25.3503 149.73 25.543C150.093 25.7357 150.58 25.9 151.192 26.036C151.714 26.1493 152.207 26.291 152.671 26.461C153.147 26.6197 153.533 26.8633 153.827 27.192C154.133 27.5093 154.286 27.974 154.286 28.586C154.298 29.3453 154.009 29.9743 153.419 30.473C152.841 30.9603 152.054 31.204 151.056 31.204Z" fill="white"/>
</svg>
