<svg width="504" height="62" viewBox="0 0 504 62" fill="none" xmlns="http://www.w3.org/2000/svg">
<path d="M0.736 47V2.2H6.112V42.712H26.976V47H0.736ZM47.481 47.768C44.8357 47.768 42.6383 47.32 40.889 46.424C39.1397 45.528 37.8383 44.3333 36.985 42.84C36.1317 41.3467 35.705 39.7253 35.705 37.976C35.705 34.7333 36.9423 32.2373 39.417 30.488C41.8917 28.7387 45.2623 27.864 49.529 27.864H58.105V27.48C58.105 24.7067 57.3797 22.616 55.929 21.208C54.4783 19.7573 52.537 19.032 50.105 19.032C48.0143 19.032 46.201 19.5653 44.665 20.632C43.1717 21.656 42.233 23.1707 41.849 25.176H36.345C36.5583 22.872 37.3263 20.9307 38.649 19.352C40.0143 17.7733 41.6997 16.5787 43.705 15.768C45.7103 14.9147 47.8437 14.488 50.105 14.488C54.5423 14.488 57.8703 15.6827 60.089 18.072C62.3503 20.4187 63.481 23.5547 63.481 27.48V47H58.681L58.361 41.304C57.465 43.096 56.1423 44.632 54.393 45.912C52.6863 47.1493 50.3823 47.768 47.481 47.768ZM48.313 43.224C50.361 43.224 52.1103 42.6907 53.561 41.624C55.0543 40.5573 56.185 39.1707 56.953 37.464C57.721 35.7573 58.105 33.9653 58.105 32.088V32.024H49.977C46.8197 32.024 44.5797 32.5787 43.257 33.688C41.977 34.7547 41.337 36.0987 41.337 37.72C41.337 39.384 41.9343 40.728 43.129 41.752C44.3663 42.7333 46.0943 43.224 48.313 43.224ZM86.095 47C83.1937 47 80.911 46.296 79.247 44.888C77.583 43.48 76.751 40.9413 76.751 37.272V19.8H71.247V15.256H76.751L77.455 7.64H82.127V15.256H91.471V19.8H82.127V37.272C82.127 39.2773 82.5323 40.6427 83.343 41.368C84.1537 42.0507 85.583 42.392 87.631 42.392H90.959V47H86.095ZM114.578 47.768C111.549 47.768 108.861 47.0853 106.514 45.72C104.167 44.312 102.311 42.3707 100.946 39.896C99.6233 37.4213 98.962 34.4987 98.962 31.128C98.962 27.8 99.6233 24.8987 100.946 22.424C102.269 19.9067 104.103 17.9653 106.45 16.6C108.839 15.192 111.591 14.488 114.706 14.488C117.778 14.488 120.423 15.192 122.642 16.6C124.903 17.9653 126.631 19.7787 127.826 22.04C129.021 24.3013 129.618 26.7333 129.618 29.336C129.618 29.8053 129.597 30.2747 129.554 30.744C129.554 31.2133 129.554 31.7467 129.554 32.344H104.274C104.402 34.776 104.957 36.8027 105.938 38.424C106.962 40.0027 108.221 41.1973 109.714 42.008C111.25 42.8187 112.871 43.224 114.578 43.224C116.797 43.224 118.653 42.712 120.146 41.688C121.639 40.664 122.727 39.2773 123.41 37.528H128.722C127.869 40.472 126.226 42.9253 123.794 44.888C121.405 46.808 118.333 47.768 114.578 47.768ZM114.578 19.032C112.018 19.032 109.735 19.8213 107.73 21.4C105.767 22.936 104.637 25.1973 104.338 28.184H124.306C124.178 25.3253 123.197 23.0853 121.362 21.464C119.527 19.8427 117.266 19.032 114.578 19.032ZM151.784 47.768C147.986 47.768 144.829 46.808 142.312 44.888C139.794 42.968 138.322 40.3653 137.896 37.08H143.4C143.741 38.744 144.616 40.1947 146.024 41.432C147.474 42.6267 149.416 43.224 151.848 43.224C154.109 43.224 155.773 42.7547 156.84 41.816C157.906 40.8347 158.44 39.6827 158.44 38.36C158.44 36.44 157.736 35.16 156.328 34.52C154.962 33.88 153.021 33.304 150.504 32.792C148.797 32.4507 147.09 31.96 145.384 31.32C143.677 30.68 142.248 29.784 141.096 28.632C139.944 27.4373 139.368 25.88 139.368 23.96C139.368 21.1867 140.392 18.9253 142.44 17.176C144.53 15.384 147.346 14.488 150.888 14.488C154.258 14.488 157.01 15.3413 159.144 17.048C161.32 18.712 162.578 21.1013 162.92 24.216H157.608C157.394 22.5947 156.69 21.336 155.496 20.44C154.344 19.5013 152.786 19.032 150.824 19.032C148.904 19.032 147.41 19.4373 146.344 20.248C145.32 21.0587 144.808 22.1253 144.808 23.448C144.808 24.728 145.469 25.7307 146.792 26.456C148.157 27.1813 149.992 27.8 152.296 28.312C154.258 28.7387 156.114 29.272 157.864 29.912C159.656 30.5093 161.106 31.4267 162.216 32.664C163.368 33.8587 163.944 35.608 163.944 37.912C163.986 40.7707 162.898 43.1387 160.68 45.016C158.504 46.8507 155.538 47.768 151.784 47.768ZM185.61 47C182.709 47 180.426 46.296 178.762 44.888C177.098 43.48 176.266 40.9413 176.266 37.272V19.8H170.762V15.256H176.266L176.97 7.64H181.642V15.256H190.986V19.8H181.642V37.272C181.642 39.2773 182.047 40.6427 182.858 41.368C183.669 42.0507 185.098 42.392 187.146 42.392H190.474V47H185.61ZM234.786 47.768C231.756 47.768 229.068 47.0853 226.722 45.72C224.375 44.312 222.519 42.3707 221.154 39.896C219.831 37.4213 219.17 34.4987 219.17 31.128C219.17 27.8 219.831 24.8987 221.154 22.424C222.476 19.9067 224.311 17.9653 226.658 16.6C229.047 15.192 231.799 14.488 234.914 14.488C237.986 14.488 240.631 15.192 242.85 16.6C245.111 17.9653 246.839 19.7787 248.034 22.04C249.228 24.3013 249.826 26.7333 249.826 29.336C249.826 29.8053 249.804 30.2747 249.762 30.744C249.762 31.2133 249.762 31.7467 249.762 32.344H224.482C224.61 34.776 225.164 36.8027 226.146 38.424C227.17 40.0027 228.428 41.1973 229.922 42.008C231.458 42.8187 233.079 43.224 234.786 43.224C237.004 43.224 238.86 42.712 240.354 41.688C241.847 40.664 242.935 39.2773 243.618 37.528H248.93C248.076 40.472 246.434 42.9253 244.002 44.888C241.612 46.808 238.54 47.768 234.786 47.768ZM234.786 19.032C232.226 19.032 229.943 19.8213 227.938 21.4C225.975 22.936 224.844 25.1973 224.546 28.184H244.514C244.386 25.3253 243.404 23.0853 241.57 21.464C239.735 19.8427 237.474 19.032 234.786 19.032ZM259.831 61.08V15.256H264.695L265.207 20.504C266.231 18.968 267.682 17.5813 269.559 16.344C271.479 15.1067 273.911 14.488 276.855 14.488C280.012 14.488 282.764 15.2133 285.111 16.664C287.458 18.1147 289.271 20.0987 290.551 22.616C291.874 25.1333 292.535 27.992 292.535 31.192C292.535 34.392 291.874 37.2507 290.551 39.768C289.271 42.2427 287.436 44.2053 285.047 45.656C282.7 47.064 279.948 47.768 276.791 47.768C274.188 47.768 271.863 47.2347 269.815 46.168C267.81 45.1013 266.274 43.608 265.207 41.688V61.08H259.831ZM276.215 43.096C278.348 43.096 280.226 42.6053 281.847 41.624C283.468 40.6 284.748 39.192 285.687 37.4C286.626 35.608 287.095 33.5173 287.095 31.128C287.095 28.7387 286.626 26.648 285.687 24.856C284.748 23.064 283.468 21.6773 281.847 20.696C280.226 19.672 278.348 19.16 276.215 19.16C274.082 19.16 272.204 19.672 270.583 20.696C268.962 21.6773 267.682 23.064 266.743 24.856C265.804 26.648 265.335 28.7387 265.335 31.128C265.335 33.5173 265.804 35.608 266.743 37.4C267.682 39.192 268.962 40.6 270.583 41.624C272.204 42.6053 274.082 43.096 276.215 43.096ZM306.163 8.216C305.096 8.216 304.2 7.87467 303.475 7.192C302.792 6.46666 302.451 5.57066 302.451 4.504C302.451 3.48 302.792 2.62666 303.475 1.944C304.2 1.26133 305.096 0.919998 306.163 0.919998C307.187 0.919998 308.061 1.26133 308.787 1.944C309.512 2.62666 309.875 3.48 309.875 4.504C309.875 5.57066 309.512 6.46666 308.787 7.192C308.061 7.87467 307.187 8.216 306.163 8.216ZM303.475 47V15.256H308.851V47H303.475ZM333.251 47.768C329.454 47.768 326.296 46.808 323.779 44.888C321.262 42.968 319.79 40.3653 319.363 37.08H324.867C325.208 38.744 326.083 40.1947 327.491 41.432C328.942 42.6267 330.883 43.224 333.315 43.224C335.576 43.224 337.24 42.7547 338.307 41.816C339.374 40.8347 339.907 39.6827 339.907 38.36C339.907 36.44 339.203 35.16 337.795 34.52C336.43 33.88 334.488 33.304 331.971 32.792C330.264 32.4507 328.558 31.96 326.851 31.32C325.144 30.68 323.715 29.784 322.563 28.632C321.411 27.4373 320.835 25.88 320.835 23.96C320.835 21.1867 321.859 18.9253 323.907 17.176C325.998 15.384 328.814 14.488 332.355 14.488C335.726 14.488 338.478 15.3413 340.611 17.048C342.787 18.712 344.046 21.1013 344.387 24.216H339.075C338.862 22.5947 338.158 21.336 336.963 20.44C335.811 19.5013 334.254 19.032 332.291 19.032C330.371 19.032 328.878 19.4373 327.811 20.248C326.787 21.0587 326.275 22.1253 326.275 23.448C326.275 24.728 326.936 25.7307 328.259 26.456C329.624 27.1813 331.459 27.8 333.763 28.312C335.726 28.7387 337.582 29.272 339.331 29.912C341.123 30.5093 342.574 31.4267 343.683 32.664C344.835 33.8587 345.411 35.608 345.411 37.912C345.454 40.7707 344.366 43.1387 342.147 45.016C339.971 46.8507 337.006 47.768 333.251 47.768ZM370.435 47.768C367.448 47.768 364.76 47.0853 362.371 45.72C359.982 44.3547 358.083 42.4347 356.675 39.96C355.31 37.4427 354.627 34.4987 354.627 31.128C354.627 27.7573 355.331 24.8347 356.739 22.36C358.147 19.8427 360.046 17.9013 362.435 16.536C364.867 15.1707 367.576 14.488 370.563 14.488C373.55 14.488 376.238 15.1707 378.627 16.536C381.016 17.9013 382.894 19.8427 384.259 22.36C385.667 24.8347 386.371 27.7573 386.371 31.128C386.371 34.4987 385.667 37.4427 384.259 39.96C382.851 42.4347 380.931 44.3547 378.499 45.72C376.11 47.0853 373.422 47.768 370.435 47.768ZM370.435 43.16C372.27 43.16 373.976 42.712 375.555 41.816C377.134 40.92 378.414 39.576 379.395 37.784C380.376 35.992 380.867 33.7733 380.867 31.128C380.867 28.4827 380.376 26.264 379.395 24.472C378.456 22.68 377.198 21.336 375.619 20.44C374.04 19.544 372.355 19.096 370.563 19.096C368.728 19.096 367.022 19.544 365.443 20.44C363.864 21.336 362.584 22.68 361.603 24.472C360.622 26.264 360.131 28.4827 360.131 31.128C360.131 33.7733 360.622 35.992 361.603 37.784C362.584 39.576 363.843 40.92 365.379 41.816C366.958 42.712 368.643 43.16 370.435 43.16ZM411.126 47.768C407.969 47.768 405.195 47.0427 402.806 45.592C400.459 44.1413 398.625 42.1573 397.302 39.64C396.022 37.1227 395.382 34.264 395.382 31.064C395.382 27.864 396.043 25.0267 397.366 22.552C398.689 20.0347 400.523 18.072 402.87 16.664C405.217 15.2133 407.99 14.488 411.19 14.488C413.793 14.488 416.097 15.0213 418.102 16.088C420.107 17.1547 421.665 18.648 422.774 20.568V0.919998H428.15V47H423.286L422.774 41.752C421.75 43.288 420.278 44.6747 418.358 45.912C416.438 47.1493 414.027 47.768 411.126 47.768ZM411.702 43.096C413.835 43.096 415.713 42.6053 417.334 41.624C418.998 40.6 420.278 39.192 421.174 37.4C422.113 35.608 422.582 33.5173 422.582 31.128C422.582 28.7387 422.113 26.648 421.174 24.856C420.278 23.064 418.998 21.6773 417.334 20.696C415.713 19.672 413.835 19.16 411.702 19.16C409.611 19.16 407.734 19.672 406.07 20.696C404.449 21.6773 403.169 23.064 402.23 24.856C401.334 26.648 400.886 28.7387 400.886 31.128C400.886 33.5173 401.334 35.608 402.23 37.4C403.169 39.192 404.449 40.6 406.07 41.624C407.734 42.6053 409.611 43.096 411.702 43.096ZM454.066 47.768C451.036 47.768 448.348 47.0853 446.002 45.72C443.655 44.312 441.799 42.3707 440.434 39.896C439.111 37.4213 438.45 34.4987 438.45 31.128C438.45 27.8 439.111 24.8987 440.434 22.424C441.756 19.9067 443.591 17.9653 445.938 16.6C448.327 15.192 451.079 14.488 454.194 14.488C457.266 14.488 459.911 15.192 462.13 16.6C464.391 17.9653 466.119 19.7787 467.314 22.04C468.508 24.3013 469.106 26.7333 469.106 29.336C469.106 29.8053 469.084 30.2747 469.042 30.744C469.042 31.2133 469.042 31.7467 469.042 32.344H443.762C443.89 34.776 444.444 36.8027 445.426 38.424C446.45 40.0027 447.708 41.1973 449.202 42.008C450.738 42.8187 452.359 43.224 454.066 43.224C456.284 43.224 458.14 42.712 459.634 41.688C461.127 40.664 462.215 39.2773 462.898 37.528H468.21C467.356 40.472 465.714 42.9253 463.282 44.888C460.892 46.808 457.82 47.768 454.066 47.768ZM454.066 19.032C451.506 19.032 449.223 19.8213 447.218 21.4C445.255 22.936 444.124 25.1973 443.826 28.184H463.794C463.666 25.3253 462.684 23.0853 460.85 21.464C459.015 19.8427 456.754 19.032 454.066 19.032ZM491.271 47.768C487.474 47.768 484.316 46.808 481.799 44.888C479.282 42.968 477.81 40.3653 477.383 37.08H482.887C483.228 38.744 484.103 40.1947 485.511 41.432C486.962 42.6267 488.903 43.224 491.335 43.224C493.596 43.224 495.26 42.7547 496.327 41.816C497.394 40.8347 497.927 39.6827 497.927 38.36C497.927 36.44 497.223 35.16 495.815 34.52C494.45 33.88 492.508 33.304 489.991 32.792C488.284 32.4507 486.578 31.96 484.871 31.32C483.164 30.68 481.735 29.784 480.583 28.632C479.431 27.4373 478.855 25.88 478.855 23.96C478.855 21.1867 479.879 18.9253 481.927 17.176C484.018 15.384 486.834 14.488 490.375 14.488C493.746 14.488 496.498 15.3413 498.631 17.048C500.807 18.712 502.066 21.1013 502.407 24.216H497.095C496.882 22.5947 496.178 21.336 494.983 20.44C493.831 19.5013 492.274 19.032 490.311 19.032C488.391 19.032 486.898 19.4373 485.831 20.248C484.807 21.0587 484.295 22.1253 484.295 23.448C484.295 24.728 484.956 25.7307 486.279 26.456C487.644 27.1813 489.479 27.8 491.783 28.312C493.746 28.7387 495.602 29.272 497.351 29.912C499.143 30.5093 500.594 31.4267 501.703 32.664C502.855 33.8587 503.431 35.608 503.431 37.912C503.474 40.7707 502.386 43.1387 500.167 45.016C497.991 46.8507 495.026 47.768 491.271 47.768Z" fill="white"/>
</svg>
