<svg width="423" height="364" viewBox="0 0 423 364" fill="none" xmlns="http://www.w3.org/2000/svg">
<rect width="423" height="364" rx="32" fill="black"/>
<g clip-path="url(#clip0_2_231)">
<path d="M82.0126 67.6975L86.1626 70.2075C86.9226 70.6675 87.8526 69.9875 87.6526 69.1275L86.5526 64.4075L90.2226 61.2275C90.8926 60.6475 90.5326 59.5475 89.6526 59.4775L84.8226 59.0675L82.9326 54.6075C82.5926 53.7975 81.4327 53.7975 81.0926 54.6075L79.2026 59.0575L74.3726 59.4675C73.4926 59.5375 73.1326 60.6375 73.8026 61.2175L77.4726 64.3975L76.3726 69.1175C76.1726 69.9775 77.1026 70.6575 77.8626 70.1975L82.0126 67.6975Z" fill="#FCFF51"/>
</g>
<g clip-path="url(#clip1_2_231)">
<path d="M128.013 67.6975L132.163 70.2075C132.923 70.6675 133.853 69.9875 133.653 69.1275L132.553 64.4075L136.223 61.2275C136.893 60.6475 136.533 59.5475 135.653 59.4775L130.823 59.0675L128.933 54.6075C128.593 53.7975 127.433 53.7975 127.093 54.6075L125.203 59.0575L120.373 59.4675C119.493 59.5375 119.133 60.6375 119.803 61.2175L123.473 64.3975L122.373 69.1175C122.173 69.9775 123.103 70.6575 123.863 70.1975L128.013 67.6975Z" fill="#FCFF51"/>
</g>
<path d="M52.664 126V100.8H68.252V103.284H55.688V112.068H67.172V114.516H55.688V123.516H68.252V126H52.664ZM77.9523 126L71.1843 108.144H74.3523L79.7163 123.084L85.1163 108.144H88.2123L81.4443 126H77.9523ZM98.6917 126.432C96.9877 126.432 95.4757 126.048 94.1557 125.28C92.8357 124.488 91.7917 123.396 91.0237 122.004C90.2797 120.612 89.9077 118.968 89.9077 117.072C89.9077 115.2 90.2797 113.568 91.0237 112.176C91.7677 110.76 92.7997 109.668 94.1197 108.9C95.4637 108.108 97.0117 107.712 98.7637 107.712C100.492 107.712 101.98 108.108 103.228 108.9C104.5 109.668 105.472 110.688 106.144 111.96C106.816 113.232 107.152 114.6 107.152 116.064C107.152 116.328 107.14 116.592 107.116 116.856C107.116 117.12 107.116 117.42 107.116 117.756H92.8957C92.9677 119.124 93.2797 120.264 93.8317 121.176C94.4077 122.064 95.1157 122.736 95.9557 123.192C96.8197 123.648 97.7317 123.876 98.6917 123.876C99.9397 123.876 100.984 123.588 101.824 123.012C102.664 122.436 103.276 121.656 103.66 120.672H106.648C106.168 122.328 105.244 123.708 103.876 124.812C102.532 125.892 100.804 126.432 98.6917 126.432ZM98.6917 110.268C97.2517 110.268 95.9677 110.712 94.8397 111.6C93.7357 112.464 93.0997 113.736 92.9317 115.416H104.164C104.092 113.808 103.54 112.548 102.508 111.636C101.476 110.724 100.204 110.268 98.6917 110.268ZM111.16 126V108.144H113.896L114.148 111.564C114.7 110.388 115.54 109.452 116.668 108.756C117.796 108.06 119.188 107.712 120.844 107.712V110.88H120.016C118.96 110.88 117.988 111.072 117.1 111.456C116.212 111.816 115.504 112.44 114.976 113.328C114.448 114.216 114.184 115.44 114.184 117V126H111.16ZM126.182 133.92L130.61 124.272H129.566L122.474 108.144H125.75L131.654 122.04L137.918 108.144H141.05L129.35 133.92H126.182ZM161.797 126.432C160.093 126.432 158.581 126.048 157.261 125.28C155.941 124.488 154.897 123.396 154.129 122.004C153.385 120.612 153.013 118.968 153.013 117.072C153.013 115.2 153.385 113.568 154.129 112.176C154.873 110.76 155.905 109.668 157.225 108.9C158.569 108.108 160.117 107.712 161.869 107.712C163.597 107.712 165.085 108.108 166.333 108.9C167.605 109.668 168.577 110.688 169.249 111.96C169.921 113.232 170.257 114.6 170.257 116.064C170.257 116.328 170.245 116.592 170.221 116.856C170.221 117.12 170.221 117.42 170.221 117.756H156.001C156.073 119.124 156.385 120.264 156.937 121.176C157.513 122.064 158.221 122.736 159.061 123.192C159.925 123.648 160.837 123.876 161.797 123.876C163.045 123.876 164.089 123.588 164.929 123.012C165.769 122.436 166.381 121.656 166.765 120.672H169.753C169.273 122.328 168.349 123.708 166.981 124.812C165.637 125.892 163.909 126.432 161.797 126.432ZM161.797 110.268C160.357 110.268 159.073 110.712 157.945 111.6C156.841 112.464 156.205 113.736 156.037 115.416H167.269C167.197 113.808 166.645 112.548 165.613 111.636C164.581 110.724 163.309 110.268 161.797 110.268ZM174.265 133.92V108.144H177.001L177.289 111.096C177.865 110.232 178.681 109.452 179.737 108.756C180.817 108.06 182.185 107.712 183.841 107.712C185.617 107.712 187.165 108.12 188.485 108.936C189.805 109.752 190.825 110.868 191.545 112.284C192.289 113.7 192.661 115.308 192.661 117.108C192.661 118.908 192.289 120.516 191.545 121.932C190.825 123.324 189.793 124.428 188.449 125.244C187.129 126.036 185.581 126.432 183.805 126.432C182.341 126.432 181.033 126.132 179.881 125.532C178.753 124.932 177.889 124.092 177.289 123.012V133.92H174.265ZM183.481 123.804C184.681 123.804 185.737 123.528 186.649 122.976C187.561 122.4 188.281 121.608 188.809 120.6C189.337 119.592 189.601 118.416 189.601 117.072C189.601 115.728 189.337 114.552 188.809 113.544C188.281 112.536 187.561 111.756 186.649 111.204C185.737 110.628 184.681 110.34 183.481 110.34C182.281 110.34 181.225 110.628 180.313 111.204C179.401 111.756 178.681 112.536 178.153 113.544C177.625 114.552 177.361 115.728 177.361 117.072C177.361 118.416 177.625 119.592 178.153 120.6C178.681 121.608 179.401 122.4 180.313 122.976C181.225 123.528 182.281 123.804 183.481 123.804ZM198.707 104.184C198.107 104.184 197.603 103.992 197.195 103.608C196.811 103.2 196.619 102.696 196.619 102.096C196.619 101.52 196.811 101.04 197.195 100.656C197.603 100.272 198.107 100.08 198.707 100.08C199.283 100.08 199.775 100.272 200.183 100.656C200.591 101.04 200.795 101.52 200.795 102.096C200.795 102.696 200.591 103.2 200.183 103.608C199.775 103.992 199.283 104.184 198.707 104.184ZM197.195 126V108.144H200.219V126H197.195ZM212.324 126.432C210.188 126.432 208.412 125.892 206.996 124.812C205.58 123.732 204.752 122.268 204.512 120.42H207.608C207.8 121.356 208.292 122.172 209.084 122.868C209.9 123.54 210.992 123.876 212.36 123.876C213.632 123.876 214.568 123.612 215.168 123.084C215.768 122.532 216.068 121.884 216.068 121.14C216.068 120.06 215.672 119.34 214.88 118.98C214.112 118.62 213.02 118.296 211.604 118.008C210.644 117.816 209.684 117.54 208.724 117.18C207.764 116.82 206.96 116.316 206.312 115.668C205.664 114.996 205.34 114.12 205.34 113.04C205.34 111.48 205.916 110.208 207.068 109.224C208.244 108.216 209.828 107.712 211.82 107.712C213.716 107.712 215.264 108.192 216.464 109.152C217.688 110.088 218.396 111.432 218.588 113.184H215.6C215.48 112.272 215.084 111.564 214.412 111.06C213.764 110.532 212.888 110.268 211.784 110.268C210.704 110.268 209.864 110.496 209.264 110.952C208.688 111.408 208.4 112.008 208.4 112.752C208.4 113.472 208.772 114.036 209.516 114.444C210.284 114.852 211.316 115.2 212.612 115.488C213.716 115.728 214.76 116.028 215.744 116.388C216.752 116.724 217.568 117.24 218.192 117.936C218.84 118.608 219.164 119.592 219.164 120.888C219.188 122.496 218.576 123.828 217.328 124.884C216.104 125.916 214.436 126.432 212.324 126.432ZM231.62 126.432C229.94 126.432 228.428 126.048 227.084 125.28C225.74 124.512 224.672 123.432 223.88 122.04C223.112 120.624 222.728 118.968 222.728 117.072C222.728 115.176 223.124 113.532 223.916 112.14C224.708 110.724 225.776 109.632 227.12 108.864C228.488 108.096 230.012 107.712 231.692 107.712C233.372 107.712 234.884 108.096 236.228 108.864C237.572 109.632 238.628 110.724 239.396 112.14C240.188 113.532 240.584 115.176 240.584 117.072C240.584 118.968 240.188 120.624 239.396 122.04C238.604 123.432 237.524 124.512 236.156 125.28C234.812 126.048 233.3 126.432 231.62 126.432ZM231.62 123.84C232.652 123.84 233.612 123.588 234.5 123.084C235.388 122.58 236.108 121.824 236.66 120.816C237.212 119.808 237.488 118.56 237.488 117.072C237.488 115.584 237.212 114.336 236.66 113.328C236.132 112.32 235.424 111.564 234.536 111.06C233.648 110.556 232.7 110.304 231.692 110.304C230.66 110.304 229.7 110.556 228.812 111.06C227.924 111.564 227.204 112.32 226.652 113.328C226.1 114.336 225.824 115.584 225.824 117.072C225.824 118.56 226.1 119.808 226.652 120.816C227.204 121.824 227.912 122.58 228.776 123.084C229.664 123.588 230.612 123.84 231.62 123.84ZM252.889 126.432C251.113 126.432 249.553 126.024 248.209 125.208C246.889 124.392 245.857 123.276 245.113 121.86C244.393 120.444 244.033 118.836 244.033 117.036C244.033 115.236 244.405 113.64 245.149 112.248C245.893 110.832 246.925 109.728 248.245 108.936C249.565 108.12 251.125 107.712 252.925 107.712C254.389 107.712 255.685 108.012 256.813 108.612C257.941 109.212 258.817 110.052 259.441 111.132V100.08H262.465V126H259.729L259.441 123.048C258.865 123.912 258.037 124.692 256.957 125.388C255.877 126.084 254.521 126.432 252.889 126.432ZM253.213 123.804C254.413 123.804 255.469 123.528 256.381 122.976C257.317 122.4 258.037 121.608 258.541 120.6C259.069 119.592 259.333 118.416 259.333 117.072C259.333 115.728 259.069 114.552 258.541 113.544C258.037 112.536 257.317 111.756 256.381 111.204C255.469 110.628 254.413 110.34 253.213 110.34C252.037 110.34 250.981 110.628 250.045 111.204C249.133 111.756 248.413 112.536 247.885 113.544C247.381 114.552 247.129 115.728 247.129 117.072C247.129 118.416 247.381 119.592 247.885 120.6C248.413 121.608 249.133 122.4 250.045 122.976C250.981 123.528 252.037 123.804 253.213 123.804ZM275.422 126.432C273.718 126.432 272.206 126.048 270.886 125.28C269.566 124.488 268.522 123.396 267.754 122.004C267.01 120.612 266.638 118.968 266.638 117.072C266.638 115.2 267.01 113.568 267.754 112.176C268.498 110.76 269.53 109.668 270.85 108.9C272.194 108.108 273.742 107.712 275.494 107.712C277.222 107.712 278.71 108.108 279.958 108.9C281.23 109.668 282.202 110.688 282.874 111.96C283.546 113.232 283.882 114.6 283.882 116.064C283.882 116.328 283.87 116.592 283.846 116.856C283.846 117.12 283.846 117.42 283.846 117.756H269.626C269.698 119.124 270.01 120.264 270.562 121.176C271.138 122.064 271.846 122.736 272.686 123.192C273.55 123.648 274.462 123.876 275.422 123.876C276.67 123.876 277.714 123.588 278.554 123.012C279.394 122.436 280.006 121.656 280.39 120.672H283.378C282.898 122.328 281.974 123.708 280.606 124.812C279.262 125.892 277.534 126.432 275.422 126.432ZM275.422 110.268C273.982 110.268 272.698 110.712 271.57 111.6C270.466 112.464 269.83 113.736 269.662 115.416H280.894C280.822 113.808 280.27 112.548 279.238 111.636C278.206 110.724 276.934 110.268 275.422 110.268ZM299.254 104.184C298.654 104.184 298.15 103.992 297.742 103.608C297.358 103.2 297.166 102.696 297.166 102.096C297.166 101.52 297.358 101.04 297.742 100.656C298.15 100.272 298.654 100.08 299.254 100.08C299.83 100.08 300.322 100.272 300.73 100.656C301.138 101.04 301.342 101.52 301.342 102.096C301.342 102.696 301.138 103.2 300.73 103.608C300.322 103.992 299.83 104.184 299.254 104.184ZM297.742 126V108.144H300.766V126H297.742ZM312.871 126.432C310.735 126.432 308.959 125.892 307.543 124.812C306.127 123.732 305.299 122.268 305.059 120.42H308.155C308.347 121.356 308.839 122.172 309.631 122.868C310.447 123.54 311.539 123.876 312.907 123.876C314.179 123.876 315.115 123.612 315.715 123.084C316.315 122.532 316.615 121.884 316.615 121.14C316.615 120.06 316.219 119.34 315.427 118.98C314.659 118.62 313.567 118.296 312.151 118.008C311.191 117.816 310.231 117.54 309.271 117.18C308.311 116.82 307.507 116.316 306.859 115.668C306.211 114.996 305.887 114.12 305.887 113.04C305.887 111.48 306.463 110.208 307.615 109.224C308.791 108.216 310.375 107.712 312.367 107.712C314.263 107.712 315.811 108.192 317.011 109.152C318.235 110.088 318.943 111.432 319.135 113.184H316.147C316.027 112.272 315.631 111.564 314.959 111.06C314.311 110.532 313.435 110.268 312.331 110.268C311.251 110.268 310.411 110.496 309.811 110.952C309.235 111.408 308.947 112.008 308.947 112.752C308.947 113.472 309.319 114.036 310.063 114.444C310.831 114.852 311.863 115.2 313.159 115.488C314.263 115.728 315.307 116.028 316.291 116.388C317.299 116.724 318.115 117.24 318.739 117.936C319.387 118.608 319.711 119.592 319.711 120.888C319.735 122.496 319.123 123.828 317.875 124.884C316.651 125.916 314.983 126.432 312.871 126.432ZM339.498 126.432C338.01 126.432 336.774 126.18 335.79 125.676C334.806 125.172 334.074 124.5 333.594 123.66C333.114 122.82 332.874 121.908 332.874 120.924C332.874 119.1 333.57 117.696 334.962 116.712C336.354 115.728 338.25 115.236 340.65 115.236H345.474V115.02C345.474 113.46 345.066 112.284 344.25 111.492C343.434 110.676 342.342 110.268 340.974 110.268C339.798 110.268 338.778 110.568 337.914 111.168C337.074 111.744 336.546 112.596 336.33 113.724H333.234C333.354 112.428 333.786 111.336 334.53 110.448C335.298 109.56 336.246 108.888 337.374 108.432C338.502 107.952 339.702 107.712 340.974 107.712C343.47 107.712 345.342 108.384 346.59 109.728C347.862 111.048 348.498 112.812 348.498 115.02V126H345.798L345.618 122.796C345.114 123.804 344.37 124.668 343.386 125.388C342.426 126.084 341.13 126.432 339.498 126.432ZM339.966 123.876C341.118 123.876 342.102 123.576 342.918 122.976C343.758 122.376 344.394 121.596 344.826 120.636C345.258 119.676 345.474 118.668 345.474 117.612V117.576H340.902C339.126 117.576 337.866 117.888 337.122 118.512C336.402 119.112 336.042 119.868 336.042 120.78C336.042 121.716 336.378 122.472 337.05 123.048C337.746 123.6 338.718 123.876 339.966 123.876ZM59.54 163.384C58.532 163.384 57.608 163.252 56.768 162.988L54.968 164.68C55.232 164.872 55.556 165.04 55.94 165.184C56.348 165.304 56.924 165.424 57.668 165.544C58.412 165.64 59.456 165.748 60.8 165.868C63.2 166.036 64.916 166.588 65.948 167.524C66.98 168.46 67.496 169.684 67.496 171.196C67.496 172.228 67.208 173.212 66.632 174.148C66.08 175.084 65.216 175.852 64.04 176.452C62.888 177.052 61.4 177.352 59.576 177.352C57.968 177.352 56.54 177.136 55.292 176.704C54.044 176.296 53.072 175.66 52.376 174.796C51.68 173.956 51.332 172.888 51.332 171.592C51.332 170.92 51.512 170.188 51.872 169.396C52.232 168.628 52.904 167.896 53.888 167.2C53.36 166.984 52.904 166.756 52.52 166.516C52.16 166.252 51.824 165.964 51.512 165.652V164.824L54.572 161.8C53.156 160.6 52.448 159.016 52.448 157.048C52.448 155.872 52.724 154.804 53.276 153.844C53.828 152.884 54.632 152.128 55.688 151.576C56.744 151 58.028 150.712 59.54 150.712C60.572 150.712 61.508 150.856 62.348 151.144H68.936V153.412L65.588 153.556C66.284 154.564 66.632 155.728 66.632 157.048C66.632 158.224 66.344 159.292 65.768 160.252C65.216 161.212 64.412 161.98 63.356 162.556C62.324 163.108 61.052 163.384 59.54 163.384ZM59.54 160.9C60.812 160.9 61.82 160.576 62.564 159.928C63.332 159.256 63.716 158.296 63.716 157.048C63.716 155.824 63.332 154.888 62.564 154.24C61.82 153.568 60.812 153.232 59.54 153.232C58.244 153.232 57.212 153.568 56.444 154.24C55.7 154.888 55.328 155.824 55.328 157.048C55.328 158.296 55.7 159.256 56.444 159.928C57.212 160.576 58.244 160.9 59.54 160.9ZM54.284 171.304C54.284 172.504 54.788 173.392 55.796 173.968C56.804 174.568 58.064 174.868 59.576 174.868C61.064 174.868 62.252 174.544 63.14 173.896C64.052 173.248 64.508 172.384 64.508 171.304C64.508 170.536 64.196 169.864 63.572 169.288C62.948 168.736 61.796 168.412 60.116 168.316C58.796 168.22 57.656 168.1 56.696 167.956C55.712 168.484 55.064 169.048 54.752 169.648C54.44 170.272 54.284 170.824 54.284 171.304ZM79.6722 169.432C77.9682 169.432 76.4562 169.048 75.1362 168.28C73.8162 167.488 72.7722 166.396 72.0042 165.004C71.2602 163.612 70.8882 161.968 70.8882 160.072C70.8882 158.2 71.2602 156.568 72.0042 155.176C72.7482 153.76 73.7802 152.668 75.1002 151.9C76.4442 151.108 77.9922 150.712 79.7442 150.712C81.4722 150.712 82.9602 151.108 84.2082 151.9C85.4802 152.668 86.4522 153.688 87.1242 154.96C87.7962 156.232 88.1322 157.6 88.1322 159.064C88.1322 159.328 88.1202 159.592 88.0962 159.856C88.0962 160.12 88.0962 160.42 88.0962 160.756H73.8762C73.9482 162.124 74.2602 163.264 74.8122 164.176C75.3882 165.064 76.0962 165.736 76.9362 166.192C77.8002 166.648 78.7122 166.876 79.6722 166.876C80.9202 166.876 81.9642 166.588 82.8042 166.012C83.6442 165.436 84.2562 164.656 84.6402 163.672H87.6282C87.1482 165.328 86.2242 166.708 84.8562 167.812C83.5122 168.892 81.7842 169.432 79.6722 169.432ZM79.6722 153.268C78.2322 153.268 76.9482 153.712 75.8202 154.6C74.7162 155.464 74.0802 156.736 73.9122 158.416H85.1442C85.0722 156.808 84.5202 155.548 83.4882 154.636C82.4562 153.724 81.1842 153.268 79.6722 153.268ZM92.1403 169V151.144H94.8763L95.0923 153.736C95.6683 152.776 96.4363 152.032 97.3963 151.504C98.3563 150.976 99.4363 150.712 100.636 150.712C102.052 150.712 103.264 151 104.272 151.576C105.304 152.152 106.096 153.028 106.648 154.204C107.272 153.124 108.124 152.272 109.204 151.648C110.308 151.024 111.496 150.712 112.768 150.712C114.904 150.712 116.608 151.36 117.88 152.656C119.152 153.928 119.788 155.896 119.788 158.56V169H116.8V158.884C116.8 157.036 116.428 155.644 115.684 154.708C114.94 153.772 113.872 153.304 112.48 153.304C111.04 153.304 109.84 153.868 108.88 154.996C107.944 156.1 107.476 157.684 107.476 159.748V169H104.452V158.884C104.452 157.036 104.08 155.644 103.336 154.708C102.592 153.772 101.524 153.304 100.132 153.304C98.7163 153.304 97.5283 153.868 96.5683 154.996C95.6323 156.1 95.1643 157.684 95.1643 159.748V169H92.1403ZM124.991 162.016L124.631 143.8H127.907L127.547 162.016H124.991ZM126.359 169.18C125.759 169.18 125.255 168.988 124.847 168.604C124.463 168.196 124.271 167.704 124.271 167.128C124.271 166.552 124.463 166.072 124.847 165.688C125.255 165.28 125.759 165.076 126.359 165.076C126.935 165.076 127.415 165.28 127.799 165.688C128.207 166.072 128.411 166.552 128.411 167.128C128.411 167.704 128.207 168.196 127.799 168.604C127.415 168.988 126.935 169.18 126.359 169.18Z" fill="white"/>
<g clip-path="url(#clip2_2_231)">
<path d="M59.0126 67.6975L63.1626 70.2075C63.9226 70.6675 64.8526 69.9875 64.6526 69.1275L63.5526 64.4075L67.2226 61.2275C67.8926 60.6475 67.5326 59.5475 66.6526 59.4775L61.8226 59.0675L59.9326 54.6075C59.5926 53.7975 58.4327 53.7975 58.0926 54.6075L56.2026 59.0575L51.3726 59.4675C50.4926 59.5375 50.1326 60.6375 50.8026 61.2175L54.4726 64.3975L53.3726 69.1175C53.1726 69.9775 54.1026 70.6575 54.8626 70.1975L59.0126 67.6975Z" fill="#FCFF51"/>
</g>
<g clip-path="url(#clip3_2_231)">
<path d="M151.013 67.6975L155.163 70.2075C155.923 70.6675 156.853 69.9875 156.653 69.1275L155.553 64.4075L159.223 61.2275C159.893 60.6475 159.533 59.5475 158.653 59.4775L153.823 59.0675L151.933 54.6075C151.593 53.7975 150.433 53.7975 150.093 54.6075L148.203 59.0575L143.373 59.4675C142.493 59.5375 142.133 60.6375 142.803 61.2175L146.473 64.3975L145.373 69.1175C145.173 69.9775 146.103 70.6575 146.863 70.1975L151.013 67.6975Z" fill="#FCFF51"/>
</g>
<path d="M55.52 221.288C54 221.288 52.808 220.864 51.944 220.016C51.08 219.168 50.648 217.992 50.648 216.488H52.688C52.688 217.336 52.896 218.048 53.312 218.624C53.728 219.2 54.456 219.488 55.496 219.488C56.504 219.488 57.2 219.208 57.584 218.648C57.984 218.088 58.184 217.392 58.184 216.56V204.2H60.2V216.56C60.2 218.048 59.784 219.208 58.952 220.04C58.136 220.872 56.992 221.288 55.52 221.288ZM68.9846 221.288C67.8486 221.288 66.8406 221.032 65.9606 220.52C65.0806 219.992 64.3846 219.264 63.8726 218.336C63.3766 217.408 63.1286 216.312 63.1286 215.048C63.1286 213.8 63.3766 212.712 63.8726 211.784C64.3686 210.84 65.0566 210.112 65.9366 209.6C66.8326 209.072 67.8646 208.808 69.0326 208.808C70.1846 208.808 71.1766 209.072 72.0086 209.6C72.8566 210.112 73.5046 210.792 73.9526 211.64C74.4006 212.488 74.6246 213.4 74.6246 214.376C74.6246 214.552 74.6166 214.728 74.6006 214.904C74.6006 215.08 74.6006 215.28 74.6006 215.504H65.1206C65.1686 216.416 65.3766 217.176 65.7446 217.784C66.1286 218.376 66.6006 218.824 67.1606 219.128C67.7366 219.432 68.3446 219.584 68.9846 219.584C69.8166 219.584 70.5126 219.392 71.0726 219.008C71.6326 218.624 72.0406 218.104 72.2966 217.448H74.2886C73.9686 218.552 73.3526 219.472 72.4406 220.208C71.5446 220.928 70.3926 221.288 68.9846 221.288ZM68.9846 210.512C68.0246 210.512 67.1686 210.808 66.4166 211.4C65.6806 211.976 65.2566 212.824 65.1446 213.944H72.6326C72.5846 212.872 72.2166 212.032 71.5286 211.424C70.8406 210.816 69.9926 210.512 68.9846 210.512ZM81.8566 221.288C80.4326 221.288 79.2486 220.928 78.3046 220.208C77.3606 219.488 76.8086 218.512 76.6486 217.28H78.7126C78.8406 217.904 79.1686 218.448 79.6966 218.912C80.2406 219.36 80.9686 219.584 81.8806 219.584C82.7286 219.584 83.3526 219.408 83.7526 219.056C84.1526 218.688 84.3526 218.256 84.3526 217.76C84.3526 217.04 84.0886 216.56 83.5606 216.32C83.0486 216.08 82.3206 215.864 81.3766 215.672C80.7366 215.544 80.0966 215.36 79.4566 215.12C78.8166 214.88 78.2806 214.544 77.8486 214.112C77.4166 213.664 77.2006 213.08 77.2006 212.36C77.2006 211.32 77.5846 210.472 78.3526 209.816C79.1366 209.144 80.1926 208.808 81.5206 208.808C82.7846 208.808 83.8166 209.128 84.6166 209.768C85.4326 210.392 85.9046 211.288 86.0326 212.456H84.0406C83.9606 211.848 83.6966 211.376 83.2486 211.04C82.8166 210.688 82.2326 210.512 81.4966 210.512C80.7766 210.512 80.2166 210.664 79.8166 210.968C79.4326 211.272 79.2406 211.672 79.2406 212.168C79.2406 212.648 79.4886 213.024 79.9846 213.296C80.4966 213.568 81.1846 213.8 82.0486 213.992C82.7846 214.152 83.4806 214.352 84.1366 214.592C84.8086 214.816 85.3526 215.16 85.7686 215.624C86.2006 216.072 86.4166 216.728 86.4166 217.592C86.4326 218.664 86.0246 219.552 85.1926 220.256C84.3766 220.944 83.2646 221.288 81.8566 221.288ZM93.8566 221.288C92.4326 221.288 91.2486 220.928 90.3046 220.208C89.3606 219.488 88.8086 218.512 88.6486 217.28H90.7126C90.8406 217.904 91.1686 218.448 91.6966 218.912C92.2406 219.36 92.9686 219.584 93.8806 219.584C94.7286 219.584 95.3526 219.408 95.7526 219.056C96.1526 218.688 96.3526 218.256 96.3526 217.76C96.3526 217.04 96.0886 216.56 95.5606 216.32C95.0486 216.08 94.3206 215.864 93.3766 215.672C92.7366 215.544 92.0966 215.36 91.4566 215.12C90.8166 214.88 90.2806 214.544 89.8486 214.112C89.4166 213.664 89.2006 213.08 89.2006 212.36C89.2006 211.32 89.5846 210.472 90.3526 209.816C91.1366 209.144 92.1926 208.808 93.5206 208.808C94.7846 208.808 95.8166 209.128 96.6166 209.768C97.4326 210.392 97.9046 211.288 98.0326 212.456H96.0406C95.9606 211.848 95.6966 211.376 95.2486 211.04C94.8166 210.688 94.2326 210.512 93.4966 210.512C92.7766 210.512 92.2166 210.664 91.8166 210.968C91.4326 211.272 91.2406 211.672 91.2406 212.168C91.2406 212.648 91.4886 213.024 91.9846 213.296C92.4966 213.568 93.1846 213.8 94.0486 213.992C94.7846 214.152 95.4806 214.352 96.1366 214.592C96.8086 214.816 97.3526 215.16 97.7686 215.624C98.2006 216.072 98.4166 216.728 98.4166 217.592C98.4326 218.664 98.0246 219.552 97.1926 220.256C96.3766 220.944 95.2646 221.288 93.8566 221.288ZM102.521 206.456C102.121 206.456 101.785 206.328 101.513 206.072C101.257 205.8 101.129 205.464 101.129 205.064C101.129 204.68 101.257 204.36 101.513 204.104C101.785 203.848 102.121 203.72 102.521 203.72C102.905 203.72 103.233 203.848 103.505 204.104C103.777 204.36 103.913 204.68 103.913 205.064C103.913 205.464 103.777 205.8 103.505 206.072C103.233 206.328 102.905 206.456 102.521 206.456ZM101.513 221V209.096H103.529V221H101.513ZM112.511 221.288C111.375 221.288 110.351 221.032 109.439 220.52C108.543 219.992 107.831 219.264 107.303 218.336C106.791 217.392 106.535 216.296 106.535 215.048C106.535 213.8 106.791 212.712 107.303 211.784C107.831 210.84 108.543 210.112 109.439 209.6C110.351 209.072 111.375 208.808 112.511 208.808C113.919 208.808 115.103 209.176 116.063 209.912C117.039 210.648 117.655 211.632 117.911 212.864H115.847C115.687 212.128 115.295 211.56 114.671 211.16C114.047 210.744 113.319 210.536 112.487 210.536C111.815 210.536 111.183 210.704 110.591 211.04C109.999 211.376 109.519 211.88 109.151 212.552C108.783 213.224 108.599 214.056 108.599 215.048C108.599 216.04 108.783 216.872 109.151 217.544C109.519 218.216 109.999 218.728 110.591 219.08C111.183 219.416 111.815 219.584 112.487 219.584C113.319 219.584 114.047 219.384 114.671 218.984C115.295 218.568 115.687 217.984 115.847 217.232H117.911C117.671 218.432 117.063 219.408 116.087 220.16C115.111 220.912 113.919 221.288 112.511 221.288ZM124.686 221.288C123.694 221.288 122.87 221.12 122.214 220.784C121.558 220.448 121.07 220 120.75 219.44C120.43 218.88 120.27 218.272 120.27 217.616C120.27 216.4 120.734 215.464 121.662 214.808C122.59 214.152 123.854 213.824 125.454 213.824H128.67V213.68C128.67 212.64 128.398 211.856 127.854 211.328C127.31 210.784 126.582 210.512 125.67 210.512C124.886 210.512 124.206 210.712 123.63 211.112C123.07 211.496 122.718 212.064 122.574 212.816H120.51C120.59 211.952 120.878 211.224 121.374 210.632C121.886 210.04 122.518 209.592 123.27 209.288C124.022 208.968 124.822 208.808 125.67 208.808C127.334 208.808 128.582 209.256 129.414 210.152C130.262 211.032 130.686 212.208 130.686 213.68V221H128.886L128.766 218.864C128.43 219.536 127.934 220.112 127.278 220.592C126.638 221.056 125.774 221.288 124.686 221.288ZM124.998 219.584C125.766 219.584 126.422 219.384 126.966 218.984C127.526 218.584 127.95 218.064 128.238 217.424C128.526 216.784 128.67 216.112 128.67 215.408V215.384H125.622C124.438 215.384 123.598 215.592 123.102 216.008C122.622 216.408 122.382 216.912 122.382 217.52C122.382 218.144 122.606 218.648 123.054 219.032C123.518 219.4 124.166 219.584 124.998 219.584ZM140.182 221V204.2H142.198V211.808L149.206 204.2H151.75L145.51 210.896L151.846 221H149.398L144.07 212.456L142.198 214.448V221H140.182ZM154.031 221V209.096H155.855L155.975 211.232C156.359 210.48 156.911 209.888 157.631 209.456C158.351 209.024 159.167 208.808 160.079 208.808C161.487 208.808 162.607 209.24 163.439 210.104C164.287 210.952 164.711 212.264 164.711 214.04V221H162.695V214.256C162.695 211.776 161.671 210.536 159.623 210.536C158.599 210.536 157.743 210.912 157.055 211.664C156.383 212.4 156.047 213.456 156.047 214.832V221H154.031ZM173.189 221.288C172.069 221.288 171.061 221.032 170.165 220.52C169.269 220.008 168.557 219.288 168.029 218.36C167.517 217.416 167.261 216.312 167.261 215.048C167.261 213.784 167.525 212.688 168.053 211.76C168.581 210.816 169.293 210.088 170.189 209.576C171.101 209.064 172.117 208.808 173.237 208.808C174.357 208.808 175.365 209.064 176.261 209.576C177.157 210.088 177.861 210.816 178.373 211.76C178.901 212.688 179.165 213.784 179.165 215.048C179.165 216.312 178.901 217.416 178.373 218.36C177.845 219.288 177.125 220.008 176.213 220.52C175.317 221.032 174.309 221.288 173.189 221.288ZM173.189 219.56C173.877 219.56 174.517 219.392 175.109 219.056C175.701 218.72 176.181 218.216 176.549 217.544C176.917 216.872 177.101 216.04 177.101 215.048C177.101 214.056 176.917 213.224 176.549 212.552C176.197 211.88 175.725 211.376 175.133 211.04C174.541 210.704 173.909 210.536 173.237 210.536C172.549 210.536 171.909 210.704 171.317 211.04C170.725 211.376 170.245 211.88 169.877 212.552C169.509 213.224 169.325 214.056 169.325 215.048C169.325 216.04 169.509 216.872 169.877 217.544C170.245 218.216 170.717 218.72 171.293 219.056C171.885 219.392 172.517 219.56 173.189 219.56ZM183.923 221L180.443 209.096H182.459L184.979 218.432L187.763 209.096H190.043L192.851 218.432L195.347 209.096H197.387L193.907 221H191.843L188.915 211.184L185.987 221H183.923ZM199.617 221V203.72H201.633V221H199.617Z" fill="white" fill-opacity="0.7"/>
<g clip-path="url(#clip4_2_231)">
<path d="M105.013 67.6975L109.163 70.2075C109.923 70.6675 110.853 69.9875 110.653 69.1275L109.553 64.4075L113.223 61.2275C113.893 60.6475 113.533 59.5475 112.653 59.4775L107.823 59.0675L105.933 54.6075C105.593 53.7975 104.433 53.7975 104.093 54.6075L102.203 59.0575L97.3726 59.4675C96.4926 59.5375 96.1326 60.6375 96.8026 61.2175L100.473 64.3975L99.3726 69.1175C99.1726 69.9775 100.103 70.6575 100.863 70.1975L105.013 67.6975Z" fill="#FCFF51"/>
</g>
<defs>
<clipPath id="clip0_2_231">
<rect width="18" height="17" fill="white" transform="translate(73 54)"/>
</clipPath>
<clipPath id="clip1_2_231">
<rect width="18" height="17" fill="white" transform="translate(119 54)"/>
</clipPath>
<clipPath id="clip2_2_231">
<rect width="18" height="17" fill="white" transform="translate(50 54)"/>
</clipPath>
<clipPath id="clip3_2_231">
<rect width="18" height="17" fill="white" transform="translate(142 54)"/>
</clipPath>
<clipPath id="clip4_2_231">
<rect width="18" height="17" fill="white" transform="translate(96 54)"/>
</clipPath>
</defs>
</svg>
