<svg width="423" height="321" viewBox="0 0 423 321" fill="none" xmlns="http://www.w3.org/2000/svg">
<rect width="423" height="321" rx="32" fill="black"/>
<g clip-path="url(#clip0_2_189)">
<path d="M82.0126 67.6975L86.1626 70.2075C86.9226 70.6675 87.8526 69.9875 87.6526 69.1275L86.5526 64.4075L90.2226 61.2275C90.8926 60.6475 90.5326 59.5475 89.6526 59.4775L84.8226 59.0675L82.9326 54.6075C82.5926 53.7975 81.4327 53.7975 81.0926 54.6075L79.2026 59.0575L74.3726 59.4675C73.4926 59.5375 73.1326 60.6375 73.8026 61.2175L77.4726 64.3975L76.3726 69.1175C76.1726 69.9775 77.1026 70.6575 77.8626 70.1975L82.0126 67.6975Z" fill="#FCFF51"/>
</g>
<g clip-path="url(#clip1_2_189)">
<path d="M128.013 67.6975L132.163 70.2075C132.923 70.6675 133.853 69.9875 133.653 69.1275L132.553 64.4075L136.223 61.2275C136.893 60.6475 136.533 59.5475 135.653 59.4775L130.823 59.0675L128.933 54.6075C128.593 53.7975 127.433 53.7975 127.093 54.6075L125.203 59.0575L120.373 59.4675C119.493 59.5375 119.133 60.6375 119.803 61.2175L123.473 64.3975L122.373 69.1175C122.173 69.9775 123.103 70.6575 123.863 70.1975L128.013 67.6975Z" fill="#FCFF51"/>
</g>
<path d="M52.664 126V100.8H55.688V126H52.664ZM78.5865 126.432C76.8825 126.432 75.3465 126.048 73.9785 125.28C72.6345 124.488 71.5665 123.396 70.7745 122.004C70.0065 120.588 69.6225 118.944 69.6225 117.072C69.6225 115.2 70.0065 113.568 70.7745 112.176C71.5665 110.76 72.6345 109.668 73.9785 108.9C75.3465 108.108 76.8825 107.712 78.5865 107.712C80.6985 107.712 82.4745 108.264 83.9145 109.368C85.3785 110.472 86.3025 111.948 86.6865 113.796H83.5905C83.3505 112.692 82.7625 111.84 81.8265 111.24C80.8905 110.616 79.7985 110.304 78.5505 110.304C77.5425 110.304 76.5945 110.556 75.7065 111.06C74.8185 111.564 74.0985 112.32 73.5465 113.328C72.9945 114.336 72.7185 115.584 72.7185 117.072C72.7185 118.56 72.9945 119.808 73.5465 120.816C74.0985 121.824 74.8185 122.592 75.7065 123.12C76.5945 123.624 77.5425 123.876 78.5505 123.876C79.7985 123.876 80.8905 123.576 81.8265 122.976C82.7625 122.352 83.3505 121.476 83.5905 120.348H86.6865C86.3265 122.148 85.4145 123.612 83.9505 124.74C82.4865 125.868 80.6985 126.432 78.5865 126.432ZM96.8498 126.432C95.3618 126.432 94.1258 126.18 93.1418 125.676C92.1578 125.172 91.4258 124.5 90.9458 123.66C90.4658 122.82 90.2258 121.908 90.2258 120.924C90.2258 119.1 90.9218 117.696 92.3138 116.712C93.7058 115.728 95.6018 115.236 98.0018 115.236H102.826V115.02C102.826 113.46 102.418 112.284 101.602 111.492C100.786 110.676 99.6938 110.268 98.3258 110.268C97.1498 110.268 96.1298 110.568 95.2658 111.168C94.4258 111.744 93.8978 112.596 93.6818 113.724H90.5858C90.7058 112.428 91.1378 111.336 91.8818 110.448C92.6498 109.56 93.5978 108.888 94.7258 108.432C95.8538 107.952 97.0538 107.712 98.3258 107.712C100.822 107.712 102.694 108.384 103.942 109.728C105.214 111.048 105.85 112.812 105.85 115.02V126H103.15L102.97 122.796C102.466 123.804 101.722 124.668 100.738 125.388C99.7778 126.084 98.4818 126.432 96.8498 126.432ZM97.3178 123.876C98.4698 123.876 99.4538 123.576 100.27 122.976C101.11 122.376 101.746 121.596 102.178 120.636C102.61 119.676 102.826 118.668 102.826 117.612V117.576H98.2538C96.4778 117.576 95.2178 117.888 94.4738 118.512C93.7538 119.112 93.3938 119.868 93.3938 120.78C93.3938 121.716 93.7298 122.472 94.4018 123.048C95.0978 123.6 96.0698 123.876 97.3178 123.876ZM110.386 126V108.144H113.122L113.302 111.348C113.878 110.22 114.706 109.332 115.786 108.684C116.866 108.036 118.09 107.712 119.458 107.712C121.57 107.712 123.25 108.36 124.498 109.656C125.77 110.928 126.406 112.896 126.406 115.56V126H123.382V115.884C123.382 112.164 121.846 110.304 118.774 110.304C117.238 110.304 115.954 110.868 114.922 111.996C113.914 113.1 113.41 114.684 113.41 116.748V126H110.386ZM129.692 108.828L131.78 100.8H135.164L131.852 108.828H129.692ZM145.708 126C144.076 126 142.792 125.604 141.856 124.812C140.92 124.02 140.452 122.592 140.452 120.528V110.7H137.356V108.144H140.452L140.848 103.86H143.476V108.144H148.732V110.7H143.476V120.528C143.476 121.656 143.704 122.424 144.16 122.832C144.616 123.216 145.42 123.408 146.572 123.408H148.444V126H145.708ZM162.101 126V108.144H164.837L165.089 111.564C165.641 110.388 166.481 109.452 167.609 108.756C168.737 108.06 170.129 107.712 171.785 107.712V110.88H170.957C169.901 110.88 168.929 111.072 168.041 111.456C167.153 111.816 166.445 112.44 165.917 113.328C165.389 114.216 165.125 115.44 165.125 117V126H162.101ZM182.539 126.432C180.835 126.432 179.323 126.048 178.003 125.28C176.683 124.488 175.639 123.396 174.871 122.004C174.127 120.612 173.755 118.968 173.755 117.072C173.755 115.2 174.127 113.568 174.871 112.176C175.615 110.76 176.647 109.668 177.967 108.9C179.311 108.108 180.859 107.712 182.611 107.712C184.339 107.712 185.827 108.108 187.075 108.9C188.347 109.668 189.319 110.688 189.991 111.96C190.663 113.232 190.999 114.6 190.999 116.064C190.999 116.328 190.987 116.592 190.963 116.856C190.963 117.12 190.963 117.42 190.963 117.756H176.743C176.815 119.124 177.127 120.264 177.679 121.176C178.255 122.064 178.963 122.736 179.803 123.192C180.667 123.648 181.579 123.876 182.539 123.876C183.787 123.876 184.831 123.588 185.671 123.012C186.511 122.436 187.123 121.656 187.507 120.672H190.495C190.015 122.328 189.091 123.708 187.723 124.812C186.379 125.892 184.651 126.432 182.539 126.432ZM182.539 110.268C181.099 110.268 179.815 110.712 178.687 111.6C177.583 112.464 176.947 113.736 176.779 115.416H188.011C187.939 113.808 187.387 112.548 186.355 111.636C185.323 110.724 184.051 110.268 182.539 110.268ZM203.215 126.432C201.511 126.432 199.975 126.048 198.607 125.28C197.263 124.488 196.195 123.396 195.403 122.004C194.635 120.588 194.251 118.944 194.251 117.072C194.251 115.2 194.635 113.568 195.403 112.176C196.195 110.76 197.263 109.668 198.607 108.9C199.975 108.108 201.511 107.712 203.215 107.712C205.327 107.712 207.103 108.264 208.543 109.368C210.007 110.472 210.931 111.948 211.315 113.796H208.219C207.979 112.692 207.391 111.84 206.455 111.24C205.519 110.616 204.427 110.304 203.179 110.304C202.171 110.304 201.223 110.556 200.335 111.06C199.447 111.564 198.727 112.32 198.175 113.328C197.623 114.336 197.347 115.584 197.347 117.072C197.347 118.56 197.623 119.808 198.175 120.816C198.727 121.824 199.447 122.592 200.335 123.12C201.223 123.624 202.171 123.876 203.179 123.876C204.427 123.876 205.519 123.576 206.455 122.976C207.391 122.352 207.979 121.476 208.219 120.348H211.315C210.955 122.148 210.043 123.612 208.579 124.74C207.115 125.868 205.327 126.432 203.215 126.432ZM223.675 126.432C221.995 126.432 220.483 126.048 219.139 125.28C217.795 124.512 216.727 123.432 215.935 122.04C215.167 120.624 214.783 118.968 214.783 117.072C214.783 115.176 215.179 113.532 215.971 112.14C216.763 110.724 217.831 109.632 219.175 108.864C220.543 108.096 222.067 107.712 223.747 107.712C225.427 107.712 226.939 108.096 228.283 108.864C229.627 109.632 230.683 110.724 231.451 112.14C232.243 113.532 232.639 115.176 232.639 117.072C232.639 118.968 232.243 120.624 231.451 122.04C230.659 123.432 229.579 124.512 228.211 125.28C226.867 126.048 225.355 126.432 223.675 126.432ZM223.675 123.84C224.707 123.84 225.667 123.588 226.555 123.084C227.443 122.58 228.163 121.824 228.715 120.816C229.267 119.808 229.543 118.56 229.543 117.072C229.543 115.584 229.267 114.336 228.715 113.328C228.187 112.32 227.479 111.564 226.591 111.06C225.703 110.556 224.755 110.304 223.747 110.304C222.715 110.304 221.755 110.556 220.867 111.06C219.979 111.564 219.259 112.32 218.707 113.328C218.155 114.336 217.879 115.584 217.879 117.072C217.879 118.56 218.155 119.808 218.707 120.816C219.259 121.824 219.967 122.58 220.831 123.084C221.719 123.588 222.667 123.84 223.675 123.84ZM236.843 126V108.144H239.579L239.795 110.736C240.371 109.776 241.139 109.032 242.099 108.504C243.059 107.976 244.139 107.712 245.339 107.712C246.755 107.712 247.967 108 248.975 108.576C250.007 109.152 250.799 110.028 251.351 111.204C251.975 110.124 252.827 109.272 253.907 108.648C255.011 108.024 256.199 107.712 257.471 107.712C259.607 107.712 261.311 108.36 262.583 109.656C263.855 110.928 264.491 112.896 264.491 115.56V126H261.503V115.884C261.503 114.036 261.131 112.644 260.387 111.708C259.643 110.772 258.575 110.304 257.183 110.304C255.743 110.304 254.543 110.868 253.583 111.996C252.647 113.1 252.179 114.684 252.179 116.748V126H249.155V115.884C249.155 114.036 248.783 112.644 248.039 111.708C247.295 110.772 246.227 110.304 244.835 110.304C243.419 110.304 242.231 110.868 241.271 111.996C240.335 113.1 239.867 114.684 239.867 116.748V126H236.843ZM269.047 126V108.144H271.783L271.999 110.736C272.575 109.776 273.343 109.032 274.303 108.504C275.263 107.976 276.343 107.712 277.543 107.712C278.959 107.712 280.171 108 281.179 108.576C282.211 109.152 283.003 110.028 283.555 111.204C284.179 110.124 285.031 109.272 286.111 108.648C287.215 108.024 288.403 107.712 289.675 107.712C291.811 107.712 293.515 108.36 294.787 109.656C296.059 110.928 296.695 112.896 296.695 115.56V126H293.707V115.884C293.707 114.036 293.335 112.644 292.591 111.708C291.847 110.772 290.779 110.304 289.387 110.304C287.947 110.304 286.747 110.868 285.787 111.996C284.851 113.1 284.383 114.684 284.383 116.748V126H281.359V115.884C281.359 114.036 280.987 112.644 280.243 111.708C279.499 110.772 278.431 110.304 277.039 110.304C275.623 110.304 274.435 110.868 273.475 111.996C272.539 113.1 272.071 114.684 272.071 116.748V126H269.047ZM309.278 126.432C307.574 126.432 306.062 126.048 304.742 125.28C303.422 124.488 302.378 123.396 301.61 122.004C300.866 120.612 300.494 118.968 300.494 117.072C300.494 115.2 300.866 113.568 301.61 112.176C302.354 110.76 303.386 109.668 304.706 108.9C306.05 108.108 307.598 107.712 309.35 107.712C311.078 107.712 312.566 108.108 313.814 108.9C315.086 109.668 316.058 110.688 316.73 111.96C317.402 113.232 317.738 114.6 317.738 116.064C317.738 116.328 317.726 116.592 317.702 116.856C317.702 117.12 317.702 117.42 317.702 117.756H303.482C303.554 119.124 303.866 120.264 304.418 121.176C304.994 122.064 305.702 122.736 306.542 123.192C307.406 123.648 308.318 123.876 309.278 123.876C310.526 123.876 311.57 123.588 312.41 123.012C313.25 122.436 313.862 121.656 314.246 120.672H317.234C316.754 122.328 315.83 123.708 314.462 124.812C313.118 125.892 311.39 126.432 309.278 126.432ZM309.278 110.268C307.838 110.268 306.554 110.712 305.426 111.6C304.322 112.464 303.686 113.736 303.518 115.416H314.75C314.678 113.808 314.126 112.548 313.094 111.636C312.062 110.724 310.79 110.268 309.278 110.268ZM321.746 126V108.144H324.482L324.662 111.348C325.238 110.22 326.066 109.332 327.146 108.684C328.226 108.036 329.45 107.712 330.818 107.712C332.93 107.712 334.61 108.36 335.858 109.656C337.13 110.928 337.766 112.896 337.766 115.56V126H334.742V115.884C334.742 112.164 333.206 110.304 330.134 110.304C328.598 110.304 327.314 110.868 326.282 111.996C325.274 113.1 324.77 114.684 324.77 116.748V126H321.746ZM350.447 126.432C348.671 126.432 347.111 126.024 345.767 125.208C344.447 124.392 343.415 123.276 342.671 121.86C341.951 120.444 341.591 118.836 341.591 117.036C341.591 115.236 341.963 113.64 342.707 112.248C343.451 110.832 344.483 109.728 345.803 108.936C347.123 108.12 348.683 107.712 350.483 107.712C351.947 107.712 353.243 108.012 354.371 108.612C355.499 109.212 356.375 110.052 356.999 111.132V100.08H360.023V126H357.287L356.999 123.048C356.423 123.912 355.595 124.692 354.515 125.388C353.435 126.084 352.079 126.432 350.447 126.432ZM350.771 123.804C351.971 123.804 353.027 123.528 353.939 122.976C354.875 122.4 355.595 121.608 356.099 120.6C356.627 119.592 356.891 118.416 356.891 117.072C356.891 115.728 356.627 114.552 356.099 113.544C355.595 112.536 354.875 111.756 353.939 111.204C353.027 110.628 351.971 110.34 350.771 110.34C349.595 110.34 348.539 110.628 347.603 111.204C346.691 111.756 345.971 112.536 345.443 113.544C344.939 114.552 344.687 115.728 344.687 117.072C344.687 118.416 344.939 119.592 345.443 120.6C345.971 121.608 346.691 122.4 347.603 122.976C348.539 123.528 349.595 123.804 350.771 123.804ZM59.54 169C57.908 169 56.624 168.604 55.688 167.812C54.752 167.02 54.284 165.592 54.284 163.528V153.7H51.188V151.144H54.284L54.68 146.86H57.308V151.144H62.564V153.7H57.308V163.528C57.308 164.656 57.536 165.424 57.992 165.832C58.448 166.216 59.252 166.408 60.404 166.408H62.276V169H59.54ZM66.4059 169V143.08H69.4299V154.204C70.0299 153.1 70.8819 152.248 71.9859 151.648C73.0899 151.024 74.2899 150.712 75.5859 150.712C77.6499 150.712 79.3059 151.36 80.5539 152.656C81.8019 153.928 82.4259 155.896 82.4259 158.56V169H79.4379V158.884C79.4379 155.164 77.9379 153.304 74.9379 153.304C73.3779 153.304 72.0699 153.868 71.0139 154.996C69.9579 156.1 69.4299 157.684 69.4299 159.748V169H66.4059ZM88.8434 147.184C88.2434 147.184 87.7394 146.992 87.3314 146.608C86.9474 146.2 86.7554 145.696 86.7554 145.096C86.7554 144.52 86.9474 144.04 87.3314 143.656C87.7394 143.272 88.2434 143.08 88.8434 143.08C89.4194 143.08 89.9114 143.272 90.3194 143.656C90.7274 144.04 90.9314 144.52 90.9314 145.096C90.9314 145.696 90.7274 146.2 90.3194 146.608C89.9114 146.992 89.4194 147.184 88.8434 147.184ZM87.3314 169V151.144H90.3554V169H87.3314ZM102.461 169.432C100.325 169.432 98.5487 168.892 97.1327 167.812C95.7167 166.732 94.8887 165.268 94.6487 163.42H97.7447C97.9367 164.356 98.4287 165.172 99.2207 165.868C100.037 166.54 101.129 166.876 102.497 166.876C103.769 166.876 104.705 166.612 105.305 166.084C105.905 165.532 106.205 164.884 106.205 164.14C106.205 163.06 105.809 162.34 105.017 161.98C104.249 161.62 103.157 161.296 101.741 161.008C100.781 160.816 99.8207 160.54 98.8607 160.18C97.9007 159.82 97.0967 159.316 96.4487 158.668C95.8007 157.996 95.4767 157.12 95.4767 156.04C95.4767 154.48 96.0527 153.208 97.2047 152.224C98.3807 151.216 99.9647 150.712 101.957 150.712C103.853 150.712 105.401 151.192 106.601 152.152C107.825 153.088 108.533 154.432 108.725 156.184H105.737C105.617 155.272 105.221 154.564 104.549 154.06C103.901 153.532 103.025 153.268 101.921 153.268C100.841 153.268 100.001 153.496 99.4007 153.952C98.8247 154.408 98.5367 155.008 98.5367 155.752C98.5367 156.472 98.9087 157.036 99.6527 157.444C100.421 157.852 101.453 158.2 102.749 158.488C103.853 158.728 104.897 159.028 105.881 159.388C106.889 159.724 107.705 160.24 108.329 160.936C108.977 161.608 109.301 162.592 109.301 163.888C109.325 165.496 108.713 166.828 107.465 167.884C106.241 168.916 104.573 169.432 102.461 169.432ZM123.148 176.92V151.144H125.884L126.172 154.096C126.748 153.232 127.564 152.452 128.62 151.756C129.7 151.06 131.068 150.712 132.724 150.712C134.5 150.712 136.048 151.12 137.368 151.936C138.688 152.752 139.708 153.868 140.428 155.284C141.172 156.7 141.544 158.308 141.544 160.108C141.544 161.908 141.172 163.516 140.428 164.932C139.708 166.324 138.676 167.428 137.332 168.244C136.012 169.036 134.464 169.432 132.688 169.432C131.224 169.432 129.916 169.132 128.764 168.532C127.636 167.932 126.772 167.092 126.172 166.012V176.92H123.148ZM132.364 166.804C133.564 166.804 134.62 166.528 135.532 165.976C136.444 165.4 137.164 164.608 137.692 163.6C138.22 162.592 138.484 161.416 138.484 160.072C138.484 158.728 138.22 157.552 137.692 156.544C137.164 155.536 136.444 154.756 135.532 154.204C134.62 153.628 133.564 153.34 132.364 153.34C131.164 153.34 130.108 153.628 129.196 154.204C128.284 154.756 127.564 155.536 127.036 156.544C126.508 157.552 126.244 158.728 126.244 160.072C126.244 161.416 126.508 162.592 127.036 163.6C127.564 164.608 128.284 165.4 129.196 165.976C130.108 166.528 131.164 166.804 132.364 166.804ZM153.89 169.432C152.21 169.432 150.698 169.048 149.354 168.28C148.01 167.512 146.942 166.432 146.15 165.04C145.382 163.624 144.998 161.968 144.998 160.072C144.998 158.176 145.394 156.532 146.186 155.14C146.978 153.724 148.046 152.632 149.39 151.864C150.758 151.096 152.282 150.712 153.962 150.712C155.642 150.712 157.154 151.096 158.498 151.864C159.842 152.632 160.898 153.724 161.666 155.14C162.458 156.532 162.854 158.176 162.854 160.072C162.854 161.968 162.458 163.624 161.666 165.04C160.874 166.432 159.794 167.512 158.426 168.28C157.082 169.048 155.57 169.432 153.89 169.432ZM153.89 166.84C154.922 166.84 155.882 166.588 156.77 166.084C157.658 165.58 158.378 164.824 158.93 163.816C159.482 162.808 159.758 161.56 159.758 160.072C159.758 158.584 159.482 157.336 158.93 156.328C158.402 155.32 157.694 154.564 156.806 154.06C155.918 153.556 154.97 153.304 153.962 153.304C152.93 153.304 151.97 153.556 151.082 154.06C150.194 154.564 149.474 155.32 148.922 156.328C148.37 157.336 148.094 158.584 148.094 160.072C148.094 161.56 148.37 162.808 148.922 163.816C149.474 164.824 150.182 165.58 151.046 166.084C151.934 166.588 152.882 166.84 153.89 166.84ZM175.158 169.432C173.382 169.432 171.822 169.024 170.478 168.208C169.158 167.392 168.126 166.276 167.382 164.86C166.662 163.444 166.302 161.836 166.302 160.036C166.302 158.236 166.674 156.64 167.418 155.248C168.162 153.832 169.194 152.728 170.514 151.936C171.834 151.12 173.394 150.712 175.194 150.712C176.658 150.712 177.954 151.012 179.082 151.612C180.21 152.212 181.086 153.052 181.71 154.132V143.08H184.734V169H181.998L181.71 166.048C181.134 166.912 180.306 167.692 179.226 168.388C178.146 169.084 176.79 169.432 175.158 169.432ZM175.482 166.804C176.682 166.804 177.738 166.528 178.65 165.976C179.586 165.4 180.306 164.608 180.81 163.6C181.338 162.592 181.602 161.416 181.602 160.072C181.602 158.728 181.338 157.552 180.81 156.544C180.306 155.536 179.586 154.756 178.65 154.204C177.738 153.628 176.682 153.34 175.482 153.34C174.306 153.34 173.25 153.628 172.314 154.204C171.402 154.756 170.682 155.536 170.154 156.544C169.65 157.552 169.398 158.728 169.398 160.072C169.398 161.416 169.65 162.592 170.154 163.6C170.682 164.608 171.402 165.4 172.314 165.976C173.25 166.528 174.306 166.804 175.482 166.804ZM197.872 169.432C196.168 169.432 194.632 169.048 193.264 168.28C191.92 167.488 190.852 166.396 190.06 165.004C189.292 163.588 188.908 161.944 188.908 160.072C188.908 158.2 189.292 156.568 190.06 155.176C190.852 153.76 191.92 152.668 193.264 151.9C194.632 151.108 196.168 150.712 197.872 150.712C199.984 150.712 201.76 151.264 203.2 152.368C204.664 153.472 205.588 154.948 205.972 156.796H202.876C202.636 155.692 202.048 154.84 201.112 154.24C200.176 153.616 199.084 153.304 197.836 153.304C196.828 153.304 195.88 153.556 194.992 154.06C194.104 154.564 193.384 155.32 192.832 156.328C192.28 157.336 192.004 158.584 192.004 160.072C192.004 161.56 192.28 162.808 192.832 163.816C193.384 164.824 194.104 165.592 194.992 166.12C195.88 166.624 196.828 166.876 197.836 166.876C199.084 166.876 200.176 166.576 201.112 165.976C202.048 165.352 202.636 164.476 202.876 163.348H205.972C205.612 165.148 204.7 166.612 203.236 167.74C201.772 168.868 199.984 169.432 197.872 169.432ZM216.135 169.432C214.647 169.432 213.411 169.18 212.427 168.676C211.443 168.172 210.711 167.5 210.231 166.66C209.751 165.82 209.511 164.908 209.511 163.924C209.511 162.1 210.207 160.696 211.599 159.712C212.991 158.728 214.887 158.236 217.287 158.236H222.111V158.02C222.111 156.46 221.703 155.284 220.887 154.492C220.071 153.676 218.979 153.268 217.611 153.268C216.435 153.268 215.415 153.568 214.551 154.168C213.711 154.744 213.183 155.596 212.967 156.724H209.871C209.991 155.428 210.423 154.336 211.167 153.448C211.935 152.56 212.883 151.888 214.011 151.432C215.139 150.952 216.339 150.712 217.611 150.712C220.107 150.712 221.979 151.384 223.227 152.728C224.499 154.048 225.135 155.812 225.135 158.02V169H222.435L222.255 165.796C221.751 166.804 221.007 167.668 220.023 168.388C219.063 169.084 217.767 169.432 216.135 169.432ZM216.603 166.876C217.755 166.876 218.739 166.576 219.555 165.976C220.395 165.376 221.031 164.596 221.463 163.636C221.895 162.676 222.111 161.668 222.111 160.612V160.576H217.539C215.763 160.576 214.503 160.888 213.759 161.512C213.039 162.112 212.679 162.868 212.679 163.78C212.679 164.716 213.015 165.472 213.687 166.048C214.383 166.6 215.355 166.876 216.603 166.876ZM236.512 169.432C234.376 169.432 232.6 168.892 231.184 167.812C229.768 166.732 228.94 165.268 228.7 163.42H231.796C231.988 164.356 232.48 165.172 233.272 165.868C234.088 166.54 235.18 166.876 236.548 166.876C237.82 166.876 238.756 166.612 239.356 166.084C239.956 165.532 240.256 164.884 240.256 164.14C240.256 163.06 239.86 162.34 239.068 161.98C238.3 161.62 237.208 161.296 235.792 161.008C234.832 160.816 233.872 160.54 232.912 160.18C231.952 159.82 231.148 159.316 230.5 158.668C229.852 157.996 229.528 157.12 229.528 156.04C229.528 154.48 230.104 153.208 231.256 152.224C232.432 151.216 234.016 150.712 236.008 150.712C237.904 150.712 239.452 151.192 240.652 152.152C241.876 153.088 242.584 154.432 242.776 156.184H239.788C239.668 155.272 239.272 154.564 238.6 154.06C237.952 153.532 237.076 153.268 235.972 153.268C234.892 153.268 234.052 153.496 233.452 153.952C232.876 154.408 232.588 155.008 232.588 155.752C232.588 156.472 232.96 157.036 233.704 157.444C234.472 157.852 235.504 158.2 236.8 158.488C237.904 158.728 238.948 159.028 239.932 159.388C240.94 159.724 241.756 160.24 242.38 160.936C243.028 161.608 243.352 162.592 243.352 163.888C243.376 165.496 242.764 166.828 241.516 167.884C240.292 168.916 238.624 169.432 236.512 169.432ZM253.919 169C252.287 169 251.003 168.604 250.067 167.812C249.131 167.02 248.663 165.592 248.663 163.528V153.7H245.567V151.144H248.663L249.059 146.86H251.687V151.144H256.943V153.7H251.687V163.528C251.687 164.656 251.915 165.424 252.371 165.832C252.827 166.216 253.631 166.408 254.783 166.408H256.655V169H253.919ZM60.512 212.432C58.808 212.432 57.296 212.048 55.976 211.28C54.656 210.488 53.612 209.396 52.844 208.004C52.1 206.612 51.728 204.968 51.728 203.072C51.728 201.2 52.1 199.568 52.844 198.176C53.588 196.76 54.62 195.668 55.94 194.9C57.284 194.108 58.832 193.712 60.584 193.712C62.312 193.712 63.8 194.108 65.048 194.9C66.32 195.668 67.292 196.688 67.964 197.96C68.636 199.232 68.972 200.6 68.972 202.064C68.972 202.328 68.96 202.592 68.936 202.856C68.936 203.12 68.936 203.42 68.936 203.756H54.716C54.788 205.124 55.1 206.264 55.652 207.176C56.228 208.064 56.936 208.736 57.776 209.192C58.64 209.648 59.552 209.876 60.512 209.876C61.76 209.876 62.804 209.588 63.644 209.012C64.484 208.436 65.096 207.656 65.48 206.672H68.468C67.988 208.328 67.064 209.708 65.696 210.812C64.352 211.892 62.624 212.432 60.512 212.432ZM60.512 196.268C59.072 196.268 57.788 196.712 56.66 197.6C55.556 198.464 54.92 199.736 54.752 201.416H65.984C65.912 199.808 65.36 198.548 64.328 197.636C63.296 196.724 62.024 196.268 60.512 196.268ZM72.9801 212V194.144H75.7161L75.8961 197.348C76.4721 196.22 77.3001 195.332 78.3801 194.684C79.4601 194.036 80.6841 193.712 82.0521 193.712C84.1641 193.712 85.8441 194.36 87.0921 195.656C88.3641 196.928 89.0001 198.896 89.0001 201.56V212H85.9761V201.884C85.9761 198.164 84.4401 196.304 81.3681 196.304C79.8321 196.304 78.5481 196.868 77.5161 197.996C76.5081 199.1 76.0041 200.684 76.0041 202.748V212H72.9801ZM101.718 212.432C100.038 212.432 98.5257 212.048 97.1817 211.28C95.8377 210.512 94.7697 209.432 93.9777 208.04C93.2097 206.624 92.8257 204.968 92.8257 203.072C92.8257 201.176 93.2217 199.532 94.0137 198.14C94.8057 196.724 95.8737 195.632 97.2177 194.864C98.5857 194.096 100.11 193.712 101.79 193.712C103.47 193.712 104.982 194.096 106.326 194.864C107.67 195.632 108.726 196.724 109.494 198.14C110.286 199.532 110.682 201.176 110.682 203.072C110.682 204.968 110.286 206.624 109.494 208.04C108.702 209.432 107.622 210.512 106.254 211.28C104.91 212.048 103.398 212.432 101.718 212.432ZM101.718 209.84C102.75 209.84 103.71 209.588 104.598 209.084C105.486 208.58 106.206 207.824 106.758 206.816C107.31 205.808 107.586 204.56 107.586 203.072C107.586 201.584 107.31 200.336 106.758 199.328C106.23 198.32 105.522 197.564 104.634 197.06C103.746 196.556 102.798 196.304 101.79 196.304C100.758 196.304 99.7977 196.556 98.9097 197.06C98.0217 197.564 97.3017 198.32 96.7497 199.328C96.1977 200.336 95.9217 201.584 95.9217 203.072C95.9217 204.56 96.1977 205.808 96.7497 206.816C97.3017 207.824 98.0097 208.58 98.8737 209.084C99.7617 209.588 100.71 209.84 101.718 209.84ZM121.402 212.432C119.29 212.432 117.61 211.796 116.362 210.524C115.114 209.228 114.49 207.248 114.49 204.584V194.144H117.514V204.26C117.514 207.98 119.038 209.84 122.086 209.84C123.646 209.84 124.93 209.288 125.938 208.184C126.97 207.056 127.486 205.46 127.486 203.396V194.144H130.51V212H127.774L127.558 208.796C127.006 209.924 126.178 210.812 125.074 211.46C123.994 212.108 122.77 212.432 121.402 212.432ZM142.544 206.384C141.536 206.384 140.612 206.252 139.772 205.988L137.972 207.68C138.236 207.872 138.56 208.04 138.944 208.184C139.352 208.304 139.928 208.424 140.672 208.544C141.416 208.64 142.46 208.748 143.804 208.868C146.204 209.036 147.92 209.588 148.952 210.524C149.984 211.46 150.5 212.684 150.5 214.196C150.5 215.228 150.212 216.212 149.636 217.148C149.084 218.084 148.22 218.852 147.044 219.452C145.892 220.052 144.404 220.352 142.58 220.352C140.972 220.352 139.544 220.136 138.296 219.704C137.048 219.296 136.076 218.66 135.38 217.796C134.684 216.956 134.336 215.888 134.336 214.592C134.336 213.92 134.516 213.188 134.876 212.396C135.236 211.628 135.908 210.896 136.892 210.2C136.364 209.984 135.908 209.756 135.524 209.516C135.164 209.252 134.828 208.964 134.516 208.652V207.824L137.576 204.8C136.16 203.6 135.452 202.016 135.452 200.048C135.452 198.872 135.728 197.804 136.28 196.844C136.832 195.884 137.636 195.128 138.692 194.576C139.748 194 141.032 193.712 142.544 193.712C143.576 193.712 144.512 193.856 145.352 194.144H151.94V196.412L148.592 196.556C149.288 197.564 149.636 198.728 149.636 200.048C149.636 201.224 149.348 202.292 148.772 203.252C148.22 204.212 147.416 204.98 146.36 205.556C145.328 206.108 144.056 206.384 142.544 206.384ZM142.544 203.9C143.816 203.9 144.824 203.576 145.568 202.928C146.336 202.256 146.72 201.296 146.72 200.048C146.72 198.824 146.336 197.888 145.568 197.24C144.824 196.568 143.816 196.232 142.544 196.232C141.248 196.232 140.216 196.568 139.448 197.24C138.704 197.888 138.332 198.824 138.332 200.048C138.332 201.296 138.704 202.256 139.448 202.928C140.216 203.576 141.248 203.9 142.544 203.9ZM137.288 214.304C137.288 215.504 137.792 216.392 138.8 216.968C139.808 217.568 141.068 217.868 142.58 217.868C144.068 217.868 145.256 217.544 146.144 216.896C147.056 216.248 147.512 215.384 147.512 214.304C147.512 213.536 147.2 212.864 146.576 212.288C145.952 211.736 144.8 211.412 143.12 211.316C141.8 211.22 140.66 211.1 139.7 210.956C138.716 211.484 138.068 212.048 137.756 212.648C137.444 213.272 137.288 213.824 137.288 214.304ZM155.351 212V186.08H158.375V197.204C158.975 196.1 159.827 195.248 160.931 194.648C162.035 194.024 163.235 193.712 164.531 193.712C166.595 193.712 168.251 194.36 169.499 195.656C170.747 196.928 171.371 198.896 171.371 201.56V212H168.383V201.884C168.383 198.164 166.883 196.304 163.883 196.304C162.323 196.304 161.015 196.868 159.959 197.996C158.903 199.1 158.375 200.684 158.375 202.748V212H155.351Z" fill="white"/>
<g clip-path="url(#clip2_2_189)">
<path d="M105.013 67.6975L109.163 70.2075C109.923 70.6675 110.853 69.9875 110.653 69.1275L109.553 64.4075L113.223 61.2275C113.893 60.6475 113.533 59.5475 112.653 59.4775L107.823 59.0675L105.933 54.6075C105.593 53.7975 104.433 53.7975 104.093 54.6075L102.203 59.0575L97.3726 59.4675C96.4926 59.5375 96.1326 60.6375 96.8026 61.2175L100.473 64.3975L99.3726 69.1175C99.1726 69.9775 100.103 70.6575 100.863 70.1975L105.013 67.6975Z" fill="#FCFF51"/>
</g>
<path d="M51.776 264V247.2H57.68C58.864 247.2 59.84 247.392 60.608 247.776C61.392 248.144 61.976 248.656 62.36 249.312C62.744 249.952 62.936 250.672 62.936 251.472C62.936 252.56 62.64 253.416 62.048 254.04C61.472 254.664 60.776 255.096 59.96 255.336C60.584 255.448 61.152 255.696 61.664 256.08C62.176 256.464 62.576 256.944 62.864 257.52C63.168 258.096 63.32 258.728 63.32 259.416C63.32 260.264 63.112 261.04 62.696 261.744C62.28 262.432 61.664 262.984 60.848 263.4C60.032 263.8 59.04 264 57.872 264H51.776ZM53.792 254.544H57.536C58.608 254.544 59.432 254.296 60.008 253.8C60.584 253.288 60.872 252.584 60.872 251.688C60.872 250.84 60.584 250.16 60.008 249.648C59.448 249.136 58.6 248.88 57.464 248.88H53.792V254.544ZM53.792 262.32H57.656C58.808 262.32 59.696 262.056 60.32 261.528C60.944 260.984 61.256 260.232 61.256 259.272C61.256 258.328 60.928 257.576 60.272 257.016C59.616 256.44 58.728 256.152 57.608 256.152H53.792V262.32ZM71.4455 264.288C70.3095 264.288 69.3015 264.032 68.4215 263.52C67.5415 262.992 66.8455 262.264 66.3335 261.336C65.8375 260.408 65.5895 259.312 65.5895 258.048C65.5895 256.8 65.8375 255.712 66.3335 254.784C66.8295 253.84 67.5175 253.112 68.3975 252.6C69.2935 252.072 70.3255 251.808 71.4935 251.808C72.6455 251.808 73.6375 252.072 74.4695 252.6C75.3175 253.112 75.9655 253.792 76.4135 254.64C76.8615 255.488 77.0855 256.4 77.0855 257.376C77.0855 257.552 77.0775 257.728 77.0615 257.904C77.0615 258.08 77.0615 258.28 77.0615 258.504H67.5815C67.6295 259.416 67.8375 260.176 68.2055 260.784C68.5895 261.376 69.0615 261.824 69.6215 262.128C70.1975 262.432 70.8055 262.584 71.4455 262.584C72.2775 262.584 72.9735 262.392 73.5335 262.008C74.0935 261.624 74.5015 261.104 74.7575 260.448H76.7495C76.4295 261.552 75.8135 262.472 74.9015 263.208C74.0055 263.928 72.8535 264.288 71.4455 264.288ZM71.4455 253.512C70.4855 253.512 69.6295 253.808 68.8775 254.4C68.1415 254.976 67.7175 255.824 67.6055 256.944H75.0935C75.0455 255.872 74.6775 255.032 73.9895 254.424C73.3015 253.816 72.4535 253.512 71.4455 253.512ZM84.0631 264C82.9751 264 82.1191 263.736 81.4951 263.208C80.8711 262.68 80.5591 261.728 80.5591 260.352V253.8H78.4951V252.096H80.5591L80.8231 249.24H82.5751V252.096H86.0791V253.8H82.5751V260.352C82.5751 261.104 82.7271 261.616 83.0311 261.888C83.3351 262.144 83.8711 262.272 84.6391 262.272H85.8871V264H84.0631ZM93.3444 264C92.2564 264 91.4004 263.736 90.7764 263.208C90.1524 262.68 89.8404 261.728 89.8404 260.352V253.8H87.7764V252.096H89.8404L90.1044 249.24H91.8564V252.096H95.3604V253.8H91.8564V260.352C91.8564 261.104 92.0084 261.616 92.3124 261.888C92.6164 262.144 93.1524 262.272 93.9204 262.272H95.1684V264H93.3444ZM99.2176 269.28L102.17 262.848H101.474L96.7456 252.096H98.9296L102.866 261.36L107.042 252.096H109.13L101.33 269.28H99.2176ZM117.729 264V247.2H119.745V262.392H127.569V264H117.729ZM134.179 264.288C133.187 264.288 132.363 264.12 131.707 263.784C131.051 263.448 130.563 263 130.243 262.44C129.923 261.88 129.763 261.272 129.763 260.616C129.763 259.4 130.227 258.464 131.155 257.808C132.083 257.152 133.347 256.824 134.947 256.824H138.163V256.68C138.163 255.64 137.891 254.856 137.347 254.328C136.803 253.784 136.075 253.512 135.163 253.512C134.379 253.512 133.699 253.712 133.123 254.112C132.563 254.496 132.211 255.064 132.067 255.816H130.003C130.083 254.952 130.371 254.224 130.867 253.632C131.379 253.04 132.011 252.592 132.763 252.288C133.515 251.968 134.315 251.808 135.163 251.808C136.827 251.808 138.075 252.256 138.907 253.152C139.755 254.032 140.179 255.208 140.179 256.68V264H138.379L138.259 261.864C137.923 262.536 137.427 263.112 136.771 263.592C136.131 264.056 135.267 264.288 134.179 264.288ZM134.491 262.584C135.259 262.584 135.915 262.384 136.459 261.984C137.019 261.584 137.443 261.064 137.731 260.424C138.019 259.784 138.163 259.112 138.163 258.408V258.384H135.115C133.931 258.384 133.091 258.592 132.595 259.008C132.115 259.408 131.875 259.912 131.875 260.52C131.875 261.144 132.099 261.648 132.547 262.032C133.011 262.4 133.659 262.584 134.491 262.584ZM148.675 264.288C147.539 264.288 146.515 264.032 145.603 263.52C144.707 262.992 143.995 262.264 143.467 261.336C142.955 260.392 142.699 259.296 142.699 258.048C142.699 256.8 142.955 255.712 143.467 254.784C143.995 253.84 144.707 253.112 145.603 252.6C146.515 252.072 147.539 251.808 148.675 251.808C150.083 251.808 151.267 252.176 152.227 252.912C153.203 253.648 153.819 254.632 154.075 255.864H152.011C151.851 255.128 151.459 254.56 150.835 254.16C150.211 253.744 149.483 253.536 148.651 253.536C147.979 253.536 147.347 253.704 146.755 254.04C146.163 254.376 145.683 254.88 145.315 255.552C144.947 256.224 144.763 257.056 144.763 258.048C144.763 259.04 144.947 259.872 145.315 260.544C145.683 261.216 146.163 261.728 146.755 262.08C147.347 262.416 147.979 262.584 148.651 262.584C149.483 262.584 150.211 262.384 150.835 261.984C151.459 261.568 151.851 260.984 152.011 260.232H154.075C153.835 261.432 153.227 262.408 152.251 263.16C151.275 263.912 150.083 264.288 148.675 264.288ZM162.242 264.288C161.106 264.288 160.098 264.032 159.218 263.52C158.338 262.992 157.642 262.264 157.13 261.336C156.634 260.408 156.386 259.312 156.386 258.048C156.386 256.8 156.634 255.712 157.13 254.784C157.626 253.84 158.314 253.112 159.194 252.6C160.09 252.072 161.122 251.808 162.29 251.808C163.442 251.808 164.434 252.072 165.266 252.6C166.114 253.112 166.762 253.792 167.21 254.64C167.658 255.488 167.882 256.4 167.882 257.376C167.882 257.552 167.874 257.728 167.858 257.904C167.858 258.08 167.858 258.28 167.858 258.504H158.378C158.426 259.416 158.634 260.176 159.002 260.784C159.386 261.376 159.858 261.824 160.418 262.128C160.994 262.432 161.602 262.584 162.242 262.584C163.074 262.584 163.77 262.392 164.33 262.008C164.89 261.624 165.298 261.104 165.554 260.448H167.546C167.226 261.552 166.61 262.472 165.698 263.208C164.802 263.928 163.65 264.288 162.242 264.288ZM162.242 253.512C161.282 253.512 160.426 253.808 159.674 254.4C158.938 254.976 158.514 255.824 158.402 256.944H165.89C165.842 255.872 165.474 255.032 164.786 254.424C164.098 253.816 163.25 253.512 162.242 253.512ZM171.382 269.28L174.334 262.848H173.638L168.91 252.096H171.094L175.03 261.36L179.206 252.096H181.294L173.494 269.28H171.382Z" fill="white" fill-opacity="0.7"/>
<g clip-path="url(#clip3_2_189)">
<path d="M59.0126 67.6975L63.1626 70.2075C63.9226 70.6675 64.8526 69.9875 64.6526 69.1275L63.5526 64.4075L67.2226 61.2275C67.8926 60.6475 67.5326 59.5475 66.6526 59.4775L61.8226 59.0675L59.9326 54.6075C59.5926 53.7975 58.4327 53.7975 58.0926 54.6075L56.2026 59.0575L51.3726 59.4675C50.4926 59.5375 50.1326 60.6375 50.8026 61.2175L54.4726 64.3975L53.3726 69.1175C53.1726 69.9775 54.1026 70.6575 54.8626 70.1975L59.0126 67.6975Z" fill="#FCFF51"/>
</g>
<g clip-path="url(#clip4_2_189)">
<path d="M151.013 67.6975L155.163 70.2075C155.923 70.6675 156.853 69.9875 156.653 69.1275L155.553 64.4075L159.223 61.2275C159.893 60.6475 159.533 59.5475 158.653 59.4775L153.823 59.0675L151.933 54.6075C151.593 53.7975 150.433 53.7975 150.093 54.6075L148.203 59.0575L143.373 59.4675C142.493 59.5375 142.133 60.6375 142.803 61.2175L146.473 64.3975L145.373 69.1175C145.173 69.9775 146.103 70.6575 146.863 70.1975L151.013 67.6975Z" fill="#FCFF51"/>
</g>
<defs>
<clipPath id="clip0_2_189">
<rect width="18" height="17" fill="white" transform="translate(73 54)"/>
</clipPath>
<clipPath id="clip1_2_189">
<rect width="18" height="17" fill="white" transform="translate(119 54)"/>
</clipPath>
<clipPath id="clip2_2_189">
<rect width="18" height="17" fill="white" transform="translate(96 54)"/>
</clipPath>
<clipPath id="clip3_2_189">
<rect width="18" height="17" fill="white" transform="translate(50 54)"/>
</clipPath>
<clipPath id="clip4_2_189">
<rect width="18" height="17" fill="white" transform="translate(142 54)"/>
</clipPath>
</defs>
</svg>
