<svg width="423" height="321" viewBox="0 0 423 321" fill="none" xmlns="http://www.w3.org/2000/svg">
<rect width="423" height="321" rx="32" fill="black"/>
<g clip-path="url(#clip0_2_203)">
<path d="M82.0126 67.6975L86.1626 70.2075C86.9226 70.6675 87.8526 69.9875 87.6526 69.1275L86.5526 64.4075L90.2226 61.2275C90.8926 60.6475 90.5326 59.5475 89.6526 59.4775L84.8226 59.0675L82.9326 54.6075C82.5926 53.7975 81.4327 53.7975 81.0926 54.6075L79.2026 59.0575L74.3726 59.4675C73.4926 59.5375 73.1326 60.6375 73.8026 61.2175L77.4726 64.3975L76.3726 69.1175C76.1726 69.9775 77.1026 70.6575 77.8626 70.1975L82.0126 67.6975Z" fill="#FCFF51"/>
</g>
<g clip-path="url(#clip1_2_203)">
<path d="M128.013 67.6975L132.163 70.2075C132.923 70.6675 133.853 69.9875 133.653 69.1275L132.553 64.4075L136.223 61.2275C136.893 60.6475 136.533 59.5475 135.653 59.4775L130.823 59.0675L128.933 54.6075C128.593 53.7975 127.433 53.7975 127.093 54.6075L125.203 59.0575L120.373 59.4675C119.493 59.5375 119.133 60.6375 119.803 61.2175L123.473 64.3975L122.373 69.1175C122.173 69.9775 123.103 70.6575 123.863 70.1975L128.013 67.6975Z" fill="#FCFF51"/>
</g>
<path d="M58.28 126.432C56 126.432 54.212 125.796 52.916 124.524C51.62 123.252 50.972 121.488 50.972 119.232H54.032C54.032 120.504 54.344 121.572 54.968 122.436C55.592 123.3 56.684 123.732 58.244 123.732C59.756 123.732 60.8 123.312 61.376 122.472C61.976 121.632 62.276 120.588 62.276 119.34V100.8H65.3V119.34C65.3 121.572 64.676 123.312 63.428 124.56C62.204 125.808 60.488 126.432 58.28 126.432ZM76.3888 126.432C74.9008 126.432 73.6648 126.18 72.6808 125.676C71.6968 125.172 70.9648 124.5 70.4848 123.66C70.0048 122.82 69.7648 121.908 69.7648 120.924C69.7648 119.1 70.4608 117.696 71.8528 116.712C73.2448 115.728 75.1408 115.236 77.5408 115.236H82.3648V115.02C82.3648 113.46 81.9568 112.284 81.1408 111.492C80.3248 110.676 79.2328 110.268 77.8648 110.268C76.6888 110.268 75.6688 110.568 74.8048 111.168C73.9648 111.744 73.4368 112.596 73.2208 113.724H70.1248C70.2448 112.428 70.6768 111.336 71.4208 110.448C72.1888 109.56 73.1368 108.888 74.2648 108.432C75.3928 107.952 76.5928 107.712 77.8648 107.712C80.3608 107.712 82.2328 108.384 83.4808 109.728C84.7528 111.048 85.3888 112.812 85.3888 115.02V126H82.6888L82.5088 122.796C82.0048 123.804 81.2608 124.668 80.2768 125.388C79.3168 126.084 78.0208 126.432 76.3888 126.432ZM76.8568 123.876C78.0088 123.876 78.9928 123.576 79.8088 122.976C80.6488 122.376 81.2848 121.596 81.7168 120.636C82.1488 119.676 82.3648 118.668 82.3648 117.612V117.576H77.7928C76.0168 117.576 74.7568 117.888 74.0128 118.512C73.2928 119.112 72.9328 119.868 72.9328 120.78C72.9328 121.716 73.2688 122.472 73.9408 123.048C74.6368 123.6 75.6088 123.876 76.8568 123.876ZM98.1334 126.432C96.4294 126.432 94.8934 126.048 93.5254 125.28C92.1814 124.488 91.1134 123.396 90.3214 122.004C89.5534 120.588 89.1694 118.944 89.1694 117.072C89.1694 115.2 89.5534 113.568 90.3214 112.176C91.1134 110.76 92.1814 109.668 93.5254 108.9C94.8934 108.108 96.4294 107.712 98.1334 107.712C100.245 107.712 102.021 108.264 103.461 109.368C104.925 110.472 105.849 111.948 106.233 113.796H103.137C102.897 112.692 102.309 111.84 101.373 111.24C100.437 110.616 99.3454 110.304 98.0974 110.304C97.0894 110.304 96.1414 110.556 95.2534 111.06C94.3654 111.564 93.6454 112.32 93.0934 113.328C92.5414 114.336 92.2654 115.584 92.2654 117.072C92.2654 118.56 92.5414 119.808 93.0934 120.816C93.6454 121.824 94.3654 122.592 95.2534 123.12C96.1414 123.624 97.0894 123.876 98.0974 123.876C99.3454 123.876 100.437 123.576 101.373 122.976C102.309 122.352 102.897 121.476 103.137 120.348H106.233C105.873 122.148 104.961 123.612 103.497 124.74C102.033 125.868 100.245 126.432 98.1334 126.432ZM118.593 126.432C116.913 126.432 115.401 126.048 114.057 125.28C112.713 124.512 111.645 123.432 110.853 122.04C110.085 120.624 109.701 118.968 109.701 117.072C109.701 115.176 110.097 113.532 110.889 112.14C111.681 110.724 112.749 109.632 114.093 108.864C115.461 108.096 116.985 107.712 118.665 107.712C120.345 107.712 121.857 108.096 123.201 108.864C124.545 109.632 125.601 110.724 126.369 112.14C127.161 113.532 127.557 115.176 127.557 117.072C127.557 118.968 127.161 120.624 126.369 122.04C125.577 123.432 124.497 124.512 123.129 125.28C121.785 126.048 120.273 126.432 118.593 126.432ZM118.593 123.84C119.625 123.84 120.585 123.588 121.473 123.084C122.361 122.58 123.081 121.824 123.633 120.816C124.185 119.808 124.461 118.56 124.461 117.072C124.461 115.584 124.185 114.336 123.633 113.328C123.105 112.32 122.397 111.564 121.509 111.06C120.621 110.556 119.673 110.304 118.665 110.304C117.633 110.304 116.673 110.556 115.785 111.06C114.897 111.564 114.177 112.32 113.625 113.328C113.073 114.336 112.797 115.584 112.797 117.072C112.797 118.56 113.073 119.808 113.625 120.816C114.177 121.824 114.885 122.58 115.749 123.084C116.637 123.588 117.585 123.84 118.593 123.84ZM141.301 126.432C139.837 126.432 138.529 126.132 137.377 125.532C136.249 124.932 135.385 124.092 134.785 123.012L134.497 126H131.761V100.08H134.785V111.096C135.361 110.232 136.177 109.452 137.233 108.756C138.313 108.06 139.681 107.712 141.337 107.712C143.113 107.712 144.661 108.12 145.981 108.936C147.301 109.752 148.321 110.868 149.041 112.284C149.785 113.7 150.157 115.308 150.157 117.108C150.157 118.908 149.785 120.516 149.041 121.932C148.321 123.324 147.289 124.428 145.945 125.244C144.625 126.036 143.077 126.432 141.301 126.432ZM140.977 123.804C142.177 123.804 143.233 123.528 144.145 122.976C145.057 122.4 145.777 121.608 146.305 120.6C146.833 119.592 147.097 118.416 147.097 117.072C147.097 115.728 146.833 114.552 146.305 113.544C145.777 112.536 145.057 111.756 144.145 111.204C143.233 110.628 142.177 110.34 140.977 110.34C139.777 110.34 138.721 110.628 137.809 111.204C136.897 111.756 136.177 112.536 135.649 113.544C135.121 114.552 134.857 115.728 134.857 117.072C134.857 118.416 135.121 119.592 135.649 120.6C136.177 121.608 136.897 122.4 137.809 122.976C138.721 123.528 139.777 123.804 140.977 123.804ZM165.73 104.184C165.13 104.184 164.626 103.992 164.218 103.608C163.834 103.2 163.642 102.696 163.642 102.096C163.642 101.52 163.834 101.04 164.218 100.656C164.626 100.272 165.13 100.08 165.73 100.08C166.306 100.08 166.798 100.272 167.206 100.656C167.614 101.04 167.818 101.52 167.818 102.096C167.818 102.696 167.614 103.2 167.206 103.608C166.798 103.992 166.306 104.184 165.73 104.184ZM164.218 126V108.144H167.242V126H164.218ZM179.347 126.432C177.211 126.432 175.435 125.892 174.019 124.812C172.603 123.732 171.775 122.268 171.535 120.42H174.631C174.823 121.356 175.315 122.172 176.107 122.868C176.923 123.54 178.015 123.876 179.383 123.876C180.655 123.876 181.591 123.612 182.191 123.084C182.791 122.532 183.091 121.884 183.091 121.14C183.091 120.06 182.695 119.34 181.903 118.98C181.135 118.62 180.043 118.296 178.627 118.008C177.667 117.816 176.707 117.54 175.747 117.18C174.787 116.82 173.983 116.316 173.335 115.668C172.687 114.996 172.363 114.12 172.363 113.04C172.363 111.48 172.939 110.208 174.091 109.224C175.267 108.216 176.851 107.712 178.843 107.712C180.739 107.712 182.287 108.192 183.487 109.152C184.711 110.088 185.419 111.432 185.611 113.184H182.623C182.503 112.272 182.107 111.564 181.435 111.06C180.787 110.532 179.911 110.268 178.807 110.268C177.727 110.268 176.887 110.496 176.287 110.952C175.711 111.408 175.423 112.008 175.423 112.752C175.423 113.472 175.795 114.036 176.539 114.444C177.307 114.852 178.339 115.2 179.635 115.488C180.739 115.728 181.783 116.028 182.767 116.388C183.775 116.724 184.591 117.24 185.215 117.936C185.863 118.608 186.187 119.592 186.187 120.888C186.211 122.496 185.599 123.828 184.351 124.884C183.127 125.916 181.459 126.432 179.347 126.432ZM207.091 126C205.459 126 204.175 125.604 203.239 124.812C202.303 124.02 201.835 122.592 201.835 120.528V110.7H198.739V108.144H201.835L202.231 103.86H204.859V108.144H210.115V110.7H204.859V120.528C204.859 121.656 205.087 122.424 205.543 122.832C205.999 123.216 206.803 123.408 207.955 123.408H209.827V126H207.091ZM213.957 126V100.08H216.981V111.204C217.581 110.1 218.433 109.248 219.537 108.648C220.641 108.024 221.841 107.712 223.137 107.712C225.201 107.712 226.857 108.36 228.105 109.656C229.353 110.928 229.977 112.896 229.977 115.56V126H226.989V115.884C226.989 112.164 225.489 110.304 222.489 110.304C220.929 110.304 219.621 110.868 218.565 111.996C217.509 113.1 216.981 114.684 216.981 116.748V126H213.957ZM242.586 126.432C240.882 126.432 239.37 126.048 238.05 125.28C236.73 124.488 235.686 123.396 234.918 122.004C234.174 120.612 233.802 118.968 233.802 117.072C233.802 115.2 234.174 113.568 234.918 112.176C235.662 110.76 236.694 109.668 238.014 108.9C239.358 108.108 240.906 107.712 242.658 107.712C244.386 107.712 245.874 108.108 247.122 108.9C248.394 109.668 249.366 110.688 250.038 111.96C250.71 113.232 251.046 114.6 251.046 116.064C251.046 116.328 251.034 116.592 251.01 116.856C251.01 117.12 251.01 117.42 251.01 117.756H236.79C236.862 119.124 237.174 120.264 237.726 121.176C238.302 122.064 239.01 122.736 239.85 123.192C240.714 123.648 241.626 123.876 242.586 123.876C243.834 123.876 244.878 123.588 245.718 123.012C246.558 122.436 247.17 121.656 247.554 120.672H250.542C250.062 122.328 249.138 123.708 247.77 124.812C246.426 125.892 244.698 126.432 242.586 126.432ZM242.586 110.268C241.146 110.268 239.862 110.712 238.734 111.6C237.63 112.464 236.994 113.736 236.826 115.416H248.058C247.986 113.808 247.434 112.548 246.402 111.636C245.37 110.724 244.098 110.268 242.586 110.268ZM274.122 126.432C272.658 126.432 271.35 126.132 270.198 125.532C269.07 124.932 268.206 124.092 267.606 123.012L267.318 126H264.582V100.08H267.606V111.096C268.182 110.232 268.998 109.452 270.054 108.756C271.134 108.06 272.502 107.712 274.158 107.712C275.934 107.712 277.482 108.12 278.802 108.936C280.122 109.752 281.142 110.868 281.862 112.284C282.606 113.7 282.978 115.308 282.978 117.108C282.978 118.908 282.606 120.516 281.862 121.932C281.142 123.324 280.11 124.428 278.766 125.244C277.446 126.036 275.898 126.432 274.122 126.432ZM273.798 123.804C274.998 123.804 276.054 123.528 276.966 122.976C277.878 122.4 278.598 121.608 279.126 120.6C279.654 119.592 279.918 118.416 279.918 117.072C279.918 115.728 279.654 114.552 279.126 113.544C278.598 112.536 277.878 111.756 276.966 111.204C276.054 110.628 274.998 110.34 273.798 110.34C272.598 110.34 271.542 110.628 270.63 111.204C269.718 111.756 268.998 112.536 268.47 113.544C267.942 114.552 267.678 115.728 267.678 117.072C267.678 118.416 267.942 119.592 268.47 120.6C268.998 121.608 269.718 122.4 270.63 122.976C271.542 123.528 272.598 123.804 273.798 123.804ZM295.215 126.432C293.511 126.432 291.999 126.048 290.679 125.28C289.359 124.488 288.315 123.396 287.547 122.004C286.803 120.612 286.431 118.968 286.431 117.072C286.431 115.2 286.803 113.568 287.547 112.176C288.291 110.76 289.323 109.668 290.643 108.9C291.987 108.108 293.535 107.712 295.287 107.712C297.015 107.712 298.503 108.108 299.751 108.9C301.023 109.668 301.995 110.688 302.667 111.96C303.339 113.232 303.675 114.6 303.675 116.064C303.675 116.328 303.663 116.592 303.639 116.856C303.639 117.12 303.639 117.42 303.639 117.756H289.419C289.491 119.124 289.803 120.264 290.355 121.176C290.931 122.064 291.639 122.736 292.479 123.192C293.343 123.648 294.255 123.876 295.215 123.876C296.463 123.876 297.507 123.588 298.347 123.012C299.187 122.436 299.799 121.656 300.183 120.672H303.171C302.691 122.328 301.767 123.708 300.399 124.812C299.055 125.892 297.327 126.432 295.215 126.432ZM295.215 110.268C293.775 110.268 292.491 110.712 291.363 111.6C290.259 112.464 289.623 113.736 289.455 115.416H300.687C300.615 113.808 300.063 112.548 299.031 111.636C297.999 110.724 296.727 110.268 295.215 110.268ZM314.523 126.432C312.387 126.432 310.611 125.892 309.195 124.812C307.779 123.732 306.951 122.268 306.711 120.42H309.807C309.999 121.356 310.491 122.172 311.283 122.868C312.099 123.54 313.191 123.876 314.559 123.876C315.831 123.876 316.767 123.612 317.367 123.084C317.967 122.532 318.267 121.884 318.267 121.14C318.267 120.06 317.871 119.34 317.079 118.98C316.311 118.62 315.219 118.296 313.803 118.008C312.843 117.816 311.883 117.54 310.923 117.18C309.963 116.82 309.159 116.316 308.511 115.668C307.863 114.996 307.539 114.12 307.539 113.04C307.539 111.48 308.115 110.208 309.267 109.224C310.443 108.216 312.027 107.712 314.019 107.712C315.915 107.712 317.463 108.192 318.663 109.152C319.887 110.088 320.595 111.432 320.787 113.184H317.799C317.679 112.272 317.283 111.564 316.611 111.06C315.963 110.532 315.087 110.268 313.983 110.268C312.903 110.268 312.063 110.496 311.463 110.952C310.887 111.408 310.599 112.008 310.599 112.752C310.599 113.472 310.971 114.036 311.715 114.444C312.483 114.852 313.515 115.2 314.811 115.488C315.915 115.728 316.959 116.028 317.943 116.388C318.951 116.724 319.767 117.24 320.391 117.936C321.039 118.608 321.363 119.592 321.363 120.888C321.387 122.496 320.775 123.828 319.527 124.884C318.303 125.916 316.635 126.432 314.523 126.432ZM331.931 126C330.299 126 329.015 125.604 328.079 124.812C327.143 124.02 326.675 122.592 326.675 120.528V110.7H323.579V108.144H326.675L327.071 103.86H329.699V108.144H334.955V110.7H329.699V120.528C329.699 121.656 329.927 122.424 330.383 122.832C330.839 123.216 331.643 123.408 332.795 123.408H334.667V126H331.931ZM54.32 147.184C53.72 147.184 53.216 146.992 52.808 146.608C52.424 146.2 52.232 145.696 52.232 145.096C52.232 144.52 52.424 144.04 52.808 143.656C53.216 143.272 53.72 143.08 54.32 143.08C54.896 143.08 55.388 143.272 55.796 143.656C56.204 144.04 56.408 144.52 56.408 145.096C56.408 145.696 56.204 146.2 55.796 146.608C55.388 146.992 54.896 147.184 54.32 147.184ZM52.808 169V151.144H55.832V169H52.808ZM61.0973 169V151.144H63.8333L64.0133 154.348C64.5893 153.22 65.4173 152.332 66.4973 151.684C67.5773 151.036 68.8013 150.712 70.1693 150.712C72.2813 150.712 73.9613 151.36 75.2093 152.656C76.4813 153.928 77.1173 155.896 77.1173 158.56V169H74.0933V158.884C74.0933 155.164 72.5573 153.304 69.4853 153.304C67.9493 153.304 66.6653 153.868 65.6333 154.996C64.6253 156.1 64.1213 157.684 64.1213 159.748V169H61.0973ZM98.2822 169C96.6502 169 95.3662 168.604 94.4302 167.812C93.4942 167.02 93.0262 165.592 93.0262 163.528V153.7H89.9302V151.144H93.0262L93.4222 146.86H96.0502V151.144H101.306V153.7H96.0502V163.528C96.0502 164.656 96.2782 165.424 96.7342 165.832C97.1902 166.216 97.9942 166.408 99.1462 166.408H101.018V169H98.2822ZM105.148 169V143.08H108.172V154.204C108.772 153.1 109.624 152.248 110.728 151.648C111.832 151.024 113.032 150.712 114.328 150.712C116.392 150.712 118.048 151.36 119.296 152.656C120.544 153.928 121.168 155.896 121.168 158.56V169H118.18V158.884C118.18 155.164 116.68 153.304 113.68 153.304C112.12 153.304 110.812 153.868 109.756 154.996C108.7 156.1 108.172 157.684 108.172 159.748V169H105.148ZM133.778 169.432C132.074 169.432 130.562 169.048 129.242 168.28C127.922 167.488 126.878 166.396 126.11 165.004C125.366 163.612 124.994 161.968 124.994 160.072C124.994 158.2 125.366 156.568 126.11 155.176C126.854 153.76 127.886 152.668 129.206 151.9C130.55 151.108 132.098 150.712 133.85 150.712C135.578 150.712 137.066 151.108 138.314 151.9C139.586 152.668 140.558 153.688 141.23 154.96C141.902 156.232 142.238 157.6 142.238 159.064C142.238 159.328 142.226 159.592 142.202 159.856C142.202 160.12 142.202 160.42 142.202 160.756H127.982C128.054 162.124 128.366 163.264 128.918 164.176C129.494 165.064 130.202 165.736 131.042 166.192C131.906 166.648 132.818 166.876 133.778 166.876C135.026 166.876 136.07 166.588 136.91 166.012C137.75 165.436 138.362 164.656 138.746 163.672H141.734C141.254 165.328 140.33 166.708 138.962 167.812C137.618 168.892 135.89 169.432 133.778 169.432ZM133.778 153.268C132.338 153.268 131.054 153.712 129.926 154.6C128.822 155.464 128.186 156.736 128.018 158.416H139.25C139.178 156.808 138.626 155.548 137.594 154.636C136.562 153.724 135.29 153.268 133.778 153.268ZM165.313 169.432C163.849 169.432 162.541 169.132 161.389 168.532C160.261 167.932 159.397 167.092 158.797 166.012L158.509 169H155.773V143.08H158.797V154.096C159.373 153.232 160.189 152.452 161.245 151.756C162.325 151.06 163.693 150.712 165.349 150.712C167.125 150.712 168.673 151.12 169.993 151.936C171.313 152.752 172.333 153.868 173.053 155.284C173.797 156.7 174.169 158.308 174.169 160.108C174.169 161.908 173.797 163.516 173.053 164.932C172.333 166.324 171.301 167.428 169.957 168.244C168.637 169.036 167.089 169.432 165.313 169.432ZM164.989 166.804C166.189 166.804 167.245 166.528 168.157 165.976C169.069 165.4 169.789 164.608 170.317 163.6C170.845 162.592 171.109 161.416 171.109 160.072C171.109 158.728 170.845 157.552 170.317 156.544C169.789 155.536 169.069 154.756 168.157 154.204C167.245 153.628 166.189 153.34 164.989 153.34C163.789 153.34 162.733 153.628 161.821 154.204C160.909 154.756 160.189 155.536 159.661 156.544C159.133 157.552 158.869 158.728 158.869 160.072C158.869 161.416 159.133 162.592 159.661 163.6C160.189 164.608 160.909 165.4 161.821 165.976C162.733 166.528 163.789 166.804 164.989 166.804ZM184.895 169.432C182.783 169.432 181.103 168.796 179.855 167.524C178.607 166.228 177.983 164.248 177.983 161.584V151.144H181.007V161.26C181.007 164.98 182.531 166.84 185.579 166.84C187.139 166.84 188.423 166.288 189.431 165.184C190.463 164.056 190.979 162.46 190.979 160.396V151.144H194.003V169H191.267L191.051 165.796C190.499 166.924 189.671 167.812 188.567 168.46C187.487 169.108 186.263 169.432 184.895 169.432ZM205.82 169.432C203.684 169.432 201.908 168.892 200.492 167.812C199.076 166.732 198.248 165.268 198.008 163.42H201.104C201.296 164.356 201.788 165.172 202.58 165.868C203.396 166.54 204.488 166.876 205.856 166.876C207.128 166.876 208.064 166.612 208.664 166.084C209.264 165.532 209.564 164.884 209.564 164.14C209.564 163.06 209.168 162.34 208.376 161.98C207.608 161.62 206.516 161.296 205.1 161.008C204.14 160.816 203.18 160.54 202.22 160.18C201.26 159.82 200.456 159.316 199.808 158.668C199.16 157.996 198.836 157.12 198.836 156.04C198.836 154.48 199.412 153.208 200.564 152.224C201.74 151.216 203.324 150.712 205.316 150.712C207.212 150.712 208.76 151.192 209.96 152.152C211.184 153.088 211.892 154.432 212.084 156.184H209.096C208.976 155.272 208.58 154.564 207.908 154.06C207.26 153.532 206.384 153.268 205.28 153.268C204.2 153.268 203.36 153.496 202.76 153.952C202.184 154.408 201.896 155.008 201.896 155.752C201.896 156.472 202.268 157.036 203.012 157.444C203.78 157.852 204.812 158.2 206.108 158.488C207.212 158.728 208.256 159.028 209.24 159.388C210.248 159.724 211.064 160.24 211.688 160.936C212.336 161.608 212.66 162.592 212.66 163.888C212.684 165.496 212.072 166.828 210.824 167.884C209.6 168.916 207.932 169.432 205.82 169.432ZM218.816 147.184C218.216 147.184 217.712 146.992 217.304 146.608C216.92 146.2 216.728 145.696 216.728 145.096C216.728 144.52 216.92 144.04 217.304 143.656C217.712 143.272 218.216 143.08 218.816 143.08C219.392 143.08 219.884 143.272 220.292 143.656C220.7 144.04 220.904 144.52 220.904 145.096C220.904 145.696 220.7 146.2 220.292 146.608C219.884 146.992 219.392 147.184 218.816 147.184ZM217.304 169V151.144H220.328V169H217.304ZM225.593 169V151.144H228.329L228.509 154.348C229.085 153.22 229.913 152.332 230.993 151.684C232.073 151.036 233.297 150.712 234.665 150.712C236.777 150.712 238.457 151.36 239.705 152.656C240.977 153.928 241.613 155.896 241.613 158.56V169H238.589V158.884C238.589 155.164 237.053 153.304 233.981 153.304C232.445 153.304 231.161 153.868 230.129 154.996C229.121 156.1 228.617 157.684 228.617 159.748V169H225.593ZM254.223 169.432C252.519 169.432 251.007 169.048 249.687 168.28C248.367 167.488 247.323 166.396 246.555 165.004C245.811 163.612 245.439 161.968 245.439 160.072C245.439 158.2 245.811 156.568 246.555 155.176C247.299 153.76 248.331 152.668 249.651 151.9C250.995 151.108 252.543 150.712 254.295 150.712C256.023 150.712 257.511 151.108 258.759 151.9C260.031 152.668 261.003 153.688 261.675 154.96C262.347 156.232 262.683 157.6 262.683 159.064C262.683 159.328 262.671 159.592 262.647 159.856C262.647 160.12 262.647 160.42 262.647 160.756H248.427C248.499 162.124 248.811 163.264 249.363 164.176C249.939 165.064 250.647 165.736 251.487 166.192C252.351 166.648 253.263 166.876 254.223 166.876C255.471 166.876 256.515 166.588 257.355 166.012C258.195 165.436 258.807 164.656 259.191 163.672H262.179C261.699 165.328 260.775 166.708 259.407 167.812C258.063 168.892 256.335 169.432 254.223 169.432ZM254.223 153.268C252.783 153.268 251.499 153.712 250.371 154.6C249.267 155.464 248.631 156.736 248.463 158.416H259.695C259.623 156.808 259.071 155.548 258.039 154.636C257.007 153.724 255.735 153.268 254.223 153.268ZM273.531 169.432C271.395 169.432 269.619 168.892 268.203 167.812C266.787 166.732 265.959 165.268 265.719 163.42H268.815C269.007 164.356 269.499 165.172 270.291 165.868C271.107 166.54 272.199 166.876 273.567 166.876C274.839 166.876 275.775 166.612 276.375 166.084C276.975 165.532 277.275 164.884 277.275 164.14C277.275 163.06 276.879 162.34 276.087 161.98C275.319 161.62 274.227 161.296 272.811 161.008C271.851 160.816 270.891 160.54 269.931 160.18C268.971 159.82 268.167 159.316 267.519 158.668C266.871 157.996 266.547 157.12 266.547 156.04C266.547 154.48 267.123 153.208 268.275 152.224C269.451 151.216 271.035 150.712 273.027 150.712C274.923 150.712 276.471 151.192 277.671 152.152C278.895 153.088 279.603 154.432 279.795 156.184H276.807C276.687 155.272 276.291 154.564 275.619 154.06C274.971 153.532 274.095 153.268 272.991 153.268C271.911 153.268 271.071 153.496 270.471 153.952C269.895 154.408 269.607 155.008 269.607 155.752C269.607 156.472 269.979 157.036 270.723 157.444C271.491 157.852 272.523 158.2 273.819 158.488C274.923 158.728 275.967 159.028 276.951 159.388C277.959 159.724 278.775 160.24 279.399 160.936C280.047 161.608 280.371 162.592 280.371 163.888C280.395 165.496 279.783 166.828 278.535 167.884C277.311 168.916 275.643 169.432 273.531 169.432ZM291.531 169.432C289.395 169.432 287.619 168.892 286.203 167.812C284.787 166.732 283.959 165.268 283.719 163.42H286.815C287.007 164.356 287.499 165.172 288.291 165.868C289.107 166.54 290.199 166.876 291.567 166.876C292.839 166.876 293.775 166.612 294.375 166.084C294.975 165.532 295.275 164.884 295.275 164.14C295.275 163.06 294.879 162.34 294.087 161.98C293.319 161.62 292.227 161.296 290.811 161.008C289.851 160.816 288.891 160.54 287.931 160.18C286.971 159.82 286.167 159.316 285.519 158.668C284.871 157.996 284.547 157.12 284.547 156.04C284.547 154.48 285.123 153.208 286.275 152.224C287.451 151.216 289.035 150.712 291.027 150.712C292.923 150.712 294.471 151.192 295.671 152.152C296.895 153.088 297.603 154.432 297.795 156.184H294.807C294.687 155.272 294.291 154.564 293.619 154.06C292.971 153.532 292.095 153.268 290.991 153.268C289.911 153.268 289.071 153.496 288.471 153.952C287.895 154.408 287.607 155.008 287.607 155.752C287.607 156.472 287.979 157.036 288.723 157.444C289.491 157.852 290.523 158.2 291.819 158.488C292.923 158.728 293.967 159.028 294.951 159.388C295.959 159.724 296.775 160.24 297.399 160.936C298.047 161.608 298.371 162.592 298.371 163.888C298.395 165.496 297.783 166.828 296.535 167.884C295.311 168.916 293.643 169.432 291.531 169.432Z" fill="white"/>
<g clip-path="url(#clip2_2_203)">
<path d="M59.0126 67.6975L63.1626 70.2075C63.9226 70.6675 64.8526 69.9875 64.6526 69.1275L63.5526 64.4075L67.2226 61.2275C67.8926 60.6475 67.5326 59.5475 66.6526 59.4775L61.8226 59.0675L59.9326 54.6075C59.5926 53.7975 58.4327 53.7975 58.0926 54.6075L56.2026 59.0575L51.3726 59.4675C50.4926 59.5375 50.1326 60.6375 50.8026 61.2175L54.4726 64.3975L53.3726 69.1175C53.1726 69.9775 54.1026 70.6575 54.8626 70.1975L59.0126 67.6975Z" fill="#FCFF51"/>
</g>
<g clip-path="url(#clip3_2_203)">
<path d="M151.013 67.6975L155.163 70.2075C155.923 70.6675 156.853 69.9875 156.653 69.1275L155.553 64.4075L159.223 61.2275C159.893 60.6475 159.533 59.5475 158.653 59.4775L153.823 59.0675L151.933 54.6075C151.593 53.7975 150.433 53.7975 150.093 54.6075L148.203 59.0575L143.373 59.4675C142.493 59.5375 142.133 60.6375 142.803 61.2175L146.473 64.3975L145.373 69.1175C145.173 69.9775 146.103 70.6575 146.863 70.1975L151.013 67.6975Z" fill="#FCFF51"/>
</g>
<g clip-path="url(#clip4_2_203)">
<path d="M105.013 67.6975L109.163 70.2075C109.923 70.6675 110.853 69.9875 110.653 69.1275L109.553 64.4075L113.223 61.2275C113.893 60.6475 113.533 59.5475 112.653 59.4775L107.823 59.0675L105.933 54.6075C105.593 53.7975 104.433 53.7975 104.093 54.6075L102.203 59.0575L97.3726 59.4675C96.4926 59.5375 96.1326 60.6375 96.8026 61.2175L100.473 64.3975L99.3726 69.1175C99.1726 69.9775 100.103 70.6575 100.863 70.1975L105.013 67.6975Z" fill="#FCFF51"/>
</g>
<path d="M50.72 221L56.912 204.2H59.048L65.216 221H63.08L61.544 216.68H54.392L52.832 221H50.72ZM54.992 215.048H60.944L57.968 206.744L54.992 215.048ZM72.3372 221.288C71.1533 221.288 70.1133 221.016 69.2173 220.472C68.3373 219.928 67.6493 219.184 67.1533 218.24C66.6733 217.296 66.4333 216.224 66.4333 215.024C66.4333 213.824 66.6813 212.76 67.1773 211.832C67.6733 210.888 68.3613 210.152 69.2413 209.624C70.1213 209.08 71.1613 208.808 72.3613 208.808C73.3373 208.808 74.2013 209.008 74.9533 209.408C75.7053 209.808 76.2893 210.368 76.7053 211.088V203.72H78.7213V221H76.8973L76.7053 219.032C76.3213 219.608 75.7693 220.128 75.0493 220.592C74.3293 221.056 73.4253 221.288 72.3372 221.288ZM72.5533 219.536C73.3533 219.536 74.0573 219.352 74.6653 218.984C75.2893 218.6 75.7693 218.072 76.1053 217.4C76.4573 216.728 76.6333 215.944 76.6333 215.048C76.6333 214.152 76.4573 213.368 76.1053 212.696C75.7693 212.024 75.2893 211.504 74.6653 211.136C74.0573 210.752 73.3533 210.56 72.5533 210.56C71.7693 210.56 71.0653 210.752 70.4413 211.136C69.8333 211.504 69.3533 212.024 69.0013 212.696C68.6653 213.368 68.4973 214.152 68.4973 215.048C68.4973 215.944 68.6653 216.728 69.0013 217.4C69.3533 218.072 69.8333 218.6 70.4413 218.984C71.0653 219.352 71.7693 219.536 72.5533 219.536ZM85.9676 221.288C84.9756 221.288 84.1516 221.12 83.4956 220.784C82.8396 220.448 82.3516 220 82.0316 219.44C81.7116 218.88 81.5516 218.272 81.5516 217.616C81.5516 216.4 82.0156 215.464 82.9436 214.808C83.8716 214.152 85.1356 213.824 86.7356 213.824H89.9516V213.68C89.9516 212.64 89.6796 211.856 89.1356 211.328C88.5916 210.784 87.8636 210.512 86.9516 210.512C86.1676 210.512 85.4876 210.712 84.9116 211.112C84.3516 211.496 83.9996 212.064 83.8556 212.816H81.7916C81.8716 211.952 82.1596 211.224 82.6556 210.632C83.1676 210.04 83.7996 209.592 84.5516 209.288C85.3036 208.968 86.1036 208.808 86.9516 208.808C88.6156 208.808 89.8636 209.256 90.6956 210.152C91.5436 211.032 91.9676 212.208 91.9676 213.68V221H90.1676L90.0476 218.864C89.7116 219.536 89.2156 220.112 88.5596 220.592C87.9196 221.056 87.0556 221.288 85.9676 221.288ZM86.2796 219.584C87.0476 219.584 87.7036 219.384 88.2476 218.984C88.8076 218.584 89.2316 218.064 89.5196 217.424C89.8076 216.784 89.9516 216.112 89.9516 215.408V215.384H86.9036C85.7196 215.384 84.8796 215.592 84.3836 216.008C83.9036 216.408 83.6636 216.912 83.6636 217.52C83.6636 218.144 83.8876 218.648 84.3356 219.032C84.7996 219.4 85.4476 219.584 86.2796 219.584ZM94.9919 221V209.096H96.8159L96.9599 210.824C97.3439 210.184 97.8559 209.688 98.4959 209.336C99.1359 208.984 99.8559 208.808 100.656 208.808C101.6 208.808 102.408 209 103.08 209.384C103.768 209.768 104.296 210.352 104.664 211.136C105.08 210.416 105.648 209.848 106.368 209.432C107.104 209.016 107.896 208.808 108.744 208.808C110.168 208.808 111.304 209.24 112.152 210.104C113 210.952 113.424 212.264 113.424 214.04V221H111.432V214.256C111.432 213.024 111.184 212.096 110.688 211.472C110.192 210.848 109.48 210.536 108.552 210.536C107.592 210.536 106.792 210.912 106.152 211.664C105.528 212.4 105.216 213.456 105.216 214.832V221H103.2V214.256C103.2 213.024 102.952 212.096 102.456 211.472C101.96 210.848 101.248 210.536 100.32 210.536C99.3759 210.536 98.5839 210.912 97.9439 211.664C97.3199 212.4 97.0079 213.456 97.0079 214.832V221H94.9919ZM122.932 221V204.2H128.092C131.052 204.2 133.228 204.952 134.62 206.456C136.028 207.96 136.732 210.024 136.732 212.648C136.732 215.224 136.028 217.264 134.62 218.768C133.228 220.256 131.052 221 128.092 221H122.932ZM124.948 219.32H128.044C129.676 219.32 130.972 219.056 131.932 218.528C132.908 217.984 133.604 217.216 134.02 216.224C134.436 215.216 134.644 214.024 134.644 212.648C134.644 211.24 134.436 210.032 134.02 209.024C133.604 208.016 132.908 207.24 131.932 206.696C130.972 206.152 129.676 205.88 128.044 205.88H124.948V219.32ZM139.523 221V209.096H141.347L141.515 211.376C141.883 210.592 142.443 209.968 143.195 209.504C143.947 209.04 144.875 208.808 145.979 208.808V210.92H145.427C144.723 210.92 144.075 211.048 143.483 211.304C142.891 211.544 142.419 211.96 142.067 212.552C141.715 213.144 141.539 213.96 141.539 215V221H139.523ZM149.466 206.456C149.066 206.456 148.73 206.328 148.458 206.072C148.202 205.8 148.074 205.464 148.074 205.064C148.074 204.68 148.202 204.36 148.458 204.104C148.73 203.848 149.066 203.72 149.466 203.72C149.85 203.72 150.178 203.848 150.45 204.104C150.722 204.36 150.858 204.68 150.858 205.064C150.858 205.464 150.722 205.8 150.45 206.072C150.178 206.328 149.85 206.456 149.466 206.456ZM148.458 221V209.096H150.474V221H148.458ZM157.416 221L152.904 209.096H155.016L158.592 219.056L162.192 209.096H164.256L159.744 221H157.416ZM171.242 221.288C170.106 221.288 169.098 221.032 168.218 220.52C167.338 219.992 166.642 219.264 166.13 218.336C165.634 217.408 165.386 216.312 165.386 215.048C165.386 213.8 165.634 212.712 166.13 211.784C166.626 210.84 167.314 210.112 168.194 209.6C169.09 209.072 170.122 208.808 171.29 208.808C172.442 208.808 173.434 209.072 174.266 209.6C175.114 210.112 175.762 210.792 176.21 211.64C176.658 212.488 176.882 213.4 176.882 214.376C176.882 214.552 176.874 214.728 176.858 214.904C176.858 215.08 176.858 215.28 176.858 215.504H167.378C167.426 216.416 167.634 217.176 168.002 217.784C168.386 218.376 168.858 218.824 169.418 219.128C169.994 219.432 170.602 219.584 171.242 219.584C172.074 219.584 172.77 219.392 173.33 219.008C173.89 218.624 174.298 218.104 174.554 217.448H176.546C176.226 218.552 175.61 219.472 174.698 220.208C173.802 220.928 172.65 221.288 171.242 221.288ZM171.242 210.512C170.282 210.512 169.426 210.808 168.674 211.4C167.938 211.976 167.514 212.824 167.402 213.944H174.89C174.842 212.872 174.474 212.032 173.786 211.424C173.098 210.816 172.25 210.512 171.242 210.512ZM179.554 221V209.096H181.378L181.546 211.376C181.914 210.592 182.474 209.968 183.226 209.504C183.978 209.04 184.906 208.808 186.01 208.808V210.92H185.458C184.754 210.92 184.106 211.048 183.514 211.304C182.922 211.544 182.45 211.96 182.098 212.552C181.746 213.144 181.57 213.96 181.57 215V221H179.554Z" fill="white" fill-opacity="0.7"/>
<defs>
<clipPath id="clip0_2_203">
<rect width="18" height="17" fill="white" transform="translate(73 54)"/>
</clipPath>
<clipPath id="clip1_2_203">
<rect width="18" height="17" fill="white" transform="translate(119 54)"/>
</clipPath>
<clipPath id="clip2_2_203">
<rect width="18" height="17" fill="white" transform="translate(50 54)"/>
</clipPath>
<clipPath id="clip3_2_203">
<rect width="18" height="17" fill="white" transform="translate(142 54)"/>
</clipPath>
<clipPath id="clip4_2_203">
<rect width="18" height="17" fill="white" transform="translate(96 54)"/>
</clipPath>
</defs>
</svg>
