<svg width="423" height="364" viewBox="0 0 423 364" fill="none" xmlns="http://www.w3.org/2000/svg">
<rect width="423" height="364" rx="32" fill="black"/>
<g clip-path="url(#clip0_2_245)">
<path d="M82.0126 67.6975L86.1626 70.2075C86.9226 70.6675 87.8526 69.9875 87.6526 69.1275L86.5526 64.4075L90.2226 61.2275C90.8926 60.6475 90.5326 59.5475 89.6526 59.4775L84.8226 59.0675L82.9326 54.6075C82.5926 53.7975 81.4327 53.7975 81.0926 54.6075L79.2026 59.0575L74.3726 59.4675C73.4926 59.5375 73.1326 60.6375 73.8026 61.2175L77.4726 64.3975L76.3726 69.1175C76.1726 69.9775 77.1026 70.6575 77.8626 70.1975L82.0126 67.6975Z" fill="#FCFF51"/>
</g>
<g clip-path="url(#clip1_2_245)">
<path d="M128.013 67.6975L132.163 70.2075C132.923 70.6675 133.853 69.9875 133.653 69.1275L132.553 64.4075L136.223 61.2275C136.893 60.6475 136.533 59.5475 135.653 59.4775L130.823 59.0675L128.933 54.6075C128.593 53.7975 127.433 53.7975 127.093 54.6075L125.203 59.0575L120.373 59.4675C119.493 59.5375 119.133 60.6375 119.803 61.2175L123.473 64.3975L122.373 69.1175C122.173 69.9775 123.103 70.6575 123.863 70.1975L128.013 67.6975Z" fill="#FCFF51"/>
</g>
<path d="M57.63 126.035L50.91 101.5H54.06L59.345 122.535L65.365 101.5H68.62L74.465 122.535L79.82 101.5H82.97L76.11 126H72.75L66.905 105.77L60.92 126L57.63 126.035ZM86.2529 126V100.8H89.1929V111.615C89.7762 110.542 90.6046 109.713 91.6779 109.13C92.7512 108.523 93.9179 108.22 95.1779 108.22C97.1846 108.22 98.7946 108.85 100.008 110.11C101.221 111.347 101.828 113.26 101.828 115.85V126H98.9229V116.165C98.9229 112.548 97.4646 110.74 94.5479 110.74C93.0312 110.74 91.7596 111.288 90.7329 112.385C89.7062 113.458 89.1929 114.998 89.1929 117.005V126H86.2529ZM114.192 126.42C112.559 126.42 111.089 126.047 109.782 125.3C108.476 124.553 107.437 123.503 106.667 122.15C105.921 120.773 105.547 119.163 105.547 117.32C105.547 115.477 105.932 113.878 106.702 112.525C107.472 111.148 108.511 110.087 109.817 109.34C111.147 108.593 112.629 108.22 114.262 108.22C115.896 108.22 117.366 108.593 118.672 109.34C119.979 110.087 121.006 111.148 121.752 112.525C122.522 113.878 122.907 115.477 122.907 117.32C122.907 119.163 122.522 120.773 121.752 122.15C120.982 123.503 119.932 124.553 118.602 125.3C117.296 126.047 115.826 126.42 114.192 126.42ZM114.192 123.9C115.196 123.9 116.129 123.655 116.992 123.165C117.856 122.675 118.556 121.94 119.092 120.96C119.629 119.98 119.897 118.767 119.897 117.32C119.897 115.873 119.629 114.66 119.092 113.68C118.579 112.7 117.891 111.965 117.027 111.475C116.164 110.985 115.242 110.74 114.262 110.74C113.259 110.74 112.326 110.985 111.462 111.475C110.599 111.965 109.899 112.7 109.362 113.68C108.826 114.66 108.557 115.873 108.557 117.32C108.557 118.767 108.826 119.98 109.362 120.96C109.899 121.94 110.587 122.675 111.427 123.165C112.291 123.655 113.212 123.9 114.192 123.9ZM132.77 126.42C131.323 126.42 130.122 126.175 129.165 125.685C128.208 125.195 127.497 124.542 127.03 123.725C126.563 122.908 126.33 122.022 126.33 121.065C126.33 119.292 127.007 117.927 128.36 116.97C129.713 116.013 131.557 115.535 133.89 115.535H138.58V115.325C138.58 113.808 138.183 112.665 137.39 111.895C136.597 111.102 135.535 110.705 134.205 110.705C133.062 110.705 132.07 110.997 131.23 111.58C130.413 112.14 129.9 112.968 129.69 114.065H126.68C126.797 112.805 127.217 111.743 127.94 110.88C128.687 110.017 129.608 109.363 130.705 108.92C131.802 108.453 132.968 108.22 134.205 108.22C136.632 108.22 138.452 108.873 139.665 110.18C140.902 111.463 141.52 113.178 141.52 115.325V126H138.895L138.72 122.885C138.23 123.865 137.507 124.705 136.55 125.405C135.617 126.082 134.357 126.42 132.77 126.42ZM133.225 123.935C134.345 123.935 135.302 123.643 136.095 123.06C136.912 122.477 137.53 121.718 137.95 120.785C138.37 119.852 138.58 118.872 138.58 117.845V117.81H134.135C132.408 117.81 131.183 118.113 130.46 118.72C129.76 119.303 129.41 120.038 129.41 120.925C129.41 121.835 129.737 122.57 130.39 123.13C131.067 123.667 132.012 123.935 133.225 123.935ZM158.693 126L153.618 108.64H156.558L160.233 122.255L164.293 108.64H167.618L171.713 122.255L175.353 108.64H178.328L173.253 126H170.243L165.973 111.685L161.703 126H158.693ZM181.58 126V100.8H184.52V111.615C185.103 110.542 185.932 109.713 187.005 109.13C188.078 108.523 189.245 108.22 190.505 108.22C192.512 108.22 194.122 108.85 195.335 110.11C196.548 111.347 197.155 113.26 197.155 115.85V126H194.25V116.165C194.25 112.548 192.792 110.74 189.875 110.74C188.358 110.74 187.087 111.288 186.06 112.385C185.033 113.458 184.52 114.998 184.52 117.005V126H181.58ZM209.519 126.42C207.886 126.42 206.416 126.047 205.109 125.3C203.803 124.553 202.764 123.503 201.994 122.15C201.248 120.773 200.874 119.163 200.874 117.32C200.874 115.477 201.259 113.878 202.029 112.525C202.799 111.148 203.838 110.087 205.144 109.34C206.474 108.593 207.956 108.22 209.589 108.22C211.223 108.22 212.693 108.593 213.999 109.34C215.306 110.087 216.333 111.148 217.079 112.525C217.849 113.878 218.234 115.477 218.234 117.32C218.234 119.163 217.849 120.773 217.079 122.15C216.309 123.503 215.259 124.553 213.929 125.3C212.623 126.047 211.153 126.42 209.519 126.42ZM209.519 123.9C210.523 123.9 211.456 123.655 212.319 123.165C213.183 122.675 213.883 121.94 214.419 120.96C214.956 119.98 215.224 118.767 215.224 117.32C215.224 115.873 214.956 114.66 214.419 113.68C213.906 112.7 213.218 111.965 212.354 111.475C211.491 110.985 210.569 110.74 209.589 110.74C208.586 110.74 207.653 110.985 206.789 111.475C205.926 111.965 205.226 112.7 204.689 113.68C204.153 114.66 203.884 115.873 203.884 117.32C203.884 118.767 204.153 119.98 204.689 120.96C205.226 121.94 205.914 122.675 206.754 123.165C207.618 123.655 208.539 123.9 209.519 123.9ZM228.097 126.42C226.651 126.42 225.449 126.175 224.492 125.685C223.536 125.195 222.824 124.542 222.357 123.725C221.891 122.908 221.657 122.022 221.657 121.065C221.657 119.292 222.334 117.927 223.687 116.97C225.041 116.013 226.884 115.535 229.217 115.535H233.907V115.325C233.907 113.808 233.511 112.665 232.717 111.895C231.924 111.102 230.862 110.705 229.532 110.705C228.389 110.705 227.397 110.997 226.557 111.58C225.741 112.14 225.227 112.968 225.017 114.065H222.007C222.124 112.805 222.544 111.743 223.267 110.88C224.014 110.017 224.936 109.363 226.032 108.92C227.129 108.453 228.296 108.22 229.532 108.22C231.959 108.22 233.779 108.873 234.992 110.18C236.229 111.463 236.847 113.178 236.847 115.325V126H234.222L234.047 122.885C233.557 123.865 232.834 124.705 231.877 125.405C230.944 126.082 229.684 126.42 228.097 126.42ZM228.552 123.935C229.672 123.935 230.629 123.643 231.422 123.06C232.239 122.477 232.857 121.718 233.277 120.785C233.697 119.852 233.907 118.872 233.907 117.845V117.81H229.462C227.736 117.81 226.511 118.113 225.787 118.72C225.087 119.303 224.737 120.038 224.737 120.925C224.737 121.835 225.064 122.57 225.717 123.13C226.394 123.667 227.339 123.935 228.552 123.935ZM238.913 130.165L240.943 122.43H243.988L240.943 130.165H238.913ZM256.741 126V100.8H259.681V126H256.741ZM272.305 126.42C270.648 126.42 269.178 126.047 267.895 125.3C266.612 124.53 265.597 123.468 264.85 122.115C264.127 120.762 263.765 119.163 263.765 117.32C263.765 115.5 264.127 113.913 264.85 112.56C265.573 111.183 266.577 110.122 267.86 109.375C269.167 108.605 270.672 108.22 272.375 108.22C274.055 108.22 275.502 108.605 276.715 109.375C277.952 110.122 278.897 111.113 279.55 112.35C280.203 113.587 280.53 114.917 280.53 116.34C280.53 116.597 280.518 116.853 280.495 117.11C280.495 117.367 280.495 117.658 280.495 117.985H266.67C266.74 119.315 267.043 120.423 267.58 121.31C268.14 122.173 268.828 122.827 269.645 123.27C270.485 123.713 271.372 123.935 272.305 123.935C273.518 123.935 274.533 123.655 275.35 123.095C276.167 122.535 276.762 121.777 277.135 120.82H280.04C279.573 122.43 278.675 123.772 277.345 124.845C276.038 125.895 274.358 126.42 272.305 126.42ZM272.305 110.705C270.905 110.705 269.657 111.137 268.56 112C267.487 112.84 266.868 114.077 266.705 115.71H277.625C277.555 114.147 277.018 112.922 276.015 112.035C275.012 111.148 273.775 110.705 272.305 110.705ZM290.706 126C289.119 126 287.871 125.615 286.961 124.845C286.051 124.075 285.596 122.687 285.596 120.68V111.125H282.586V108.64H285.596L285.981 104.475H288.536V108.64H293.646V111.125H288.536V120.68C288.536 121.777 288.757 122.523 289.201 122.92C289.644 123.293 290.426 123.48 291.546 123.48H293.366V126H290.706ZM306.644 126V108.64H309.304L309.514 111.16C310.074 110.227 310.82 109.503 311.754 108.99C312.687 108.477 313.737 108.22 314.904 108.22C316.28 108.22 317.459 108.5 318.439 109.06C319.442 109.62 320.212 110.472 320.749 111.615C321.355 110.565 322.184 109.737 323.234 109.13C324.307 108.523 325.462 108.22 326.699 108.22C328.775 108.22 330.432 108.85 331.669 110.11C332.905 111.347 333.524 113.26 333.524 115.85V126H330.619V116.165C330.619 114.368 330.257 113.015 329.534 112.105C328.81 111.195 327.772 110.74 326.419 110.74C325.019 110.74 323.852 111.288 322.919 112.385C322.009 113.458 321.554 114.998 321.554 117.005V126H318.614V116.165C318.614 114.368 318.252 113.015 317.529 112.105C316.805 111.195 315.767 110.74 314.414 110.74C313.037 110.74 311.882 111.288 310.949 112.385C310.039 113.458 309.584 114.998 309.584 117.005V126H306.644ZM345.757 126.42C344.1 126.42 342.63 126.047 341.347 125.3C340.064 124.53 339.049 123.468 338.302 122.115C337.579 120.762 337.217 119.163 337.217 117.32C337.217 115.5 337.579 113.913 338.302 112.56C339.025 111.183 340.029 110.122 341.312 109.375C342.619 108.605 344.124 108.22 345.827 108.22C347.507 108.22 348.954 108.605 350.167 109.375C351.404 110.122 352.349 111.113 353.002 112.35C353.655 113.587 353.982 114.917 353.982 116.34C353.982 116.597 353.97 116.853 353.947 117.11C353.947 117.367 353.947 117.658 353.947 117.985H340.122C340.192 119.315 340.495 120.423 341.032 121.31C341.592 122.173 342.28 122.827 343.097 123.27C343.937 123.713 344.824 123.935 345.757 123.935C346.97 123.935 347.985 123.655 348.802 123.095C349.619 122.535 350.214 121.777 350.587 120.82H353.492C353.025 122.43 352.127 123.772 350.797 124.845C349.49 125.895 347.81 126.42 345.757 126.42ZM345.757 110.705C344.357 110.705 343.109 111.137 342.012 112C340.939 112.84 340.32 114.077 340.157 115.71H351.077C351.007 114.147 350.47 112.922 349.467 112.035C348.464 111.148 347.227 110.705 345.757 110.705ZM59.275 169C57.6883 169 56.44 168.615 55.53 167.845C54.62 167.075 54.165 165.687 54.165 163.68V154.125H51.155V151.64H54.165L54.55 147.475H57.105V151.64H62.215V154.125H57.105V163.68C57.105 164.777 57.3267 165.523 57.77 165.92C58.2133 166.293 58.995 166.48 60.115 166.48H61.935V169H59.275ZM71.7252 169.42C70.2785 169.42 69.0768 169.175 68.1202 168.685C67.1635 168.195 66.4518 167.542 65.9852 166.725C65.5185 165.908 65.2852 165.022 65.2852 164.065C65.2852 162.292 65.9618 160.927 67.3152 159.97C68.6685 159.013 70.5118 158.535 72.8452 158.535H77.5352V158.325C77.5352 156.808 77.1385 155.665 76.3452 154.895C75.5518 154.102 74.4902 153.705 73.1602 153.705C72.0168 153.705 71.0252 153.997 70.1852 154.58C69.3685 155.14 68.8552 155.968 68.6452 157.065H65.6352C65.7518 155.805 66.1718 154.743 66.8952 153.88C67.6418 153.017 68.5635 152.363 69.6602 151.92C70.7568 151.453 71.9235 151.22 73.1602 151.22C75.5868 151.22 77.4068 151.873 78.6202 153.18C79.8568 154.463 80.4752 156.178 80.4752 158.325V169H77.8502L77.6752 165.885C77.1852 166.865 76.4618 167.705 75.5052 168.405C74.5718 169.082 73.3118 169.42 71.7252 169.42ZM72.1802 166.935C73.3002 166.935 74.2568 166.643 75.0502 166.06C75.8668 165.477 76.4852 164.718 76.9052 163.785C77.3252 162.852 77.5352 161.872 77.5352 160.845V160.81H73.0902C71.3635 160.81 70.1385 161.113 69.4152 161.72C68.7152 162.303 68.3652 163.038 68.3652 163.925C68.3652 164.835 68.6918 165.57 69.3452 166.13C70.0218 166.667 70.9668 166.935 72.1802 166.935ZM84.8857 169V143.8H87.8257V158.955L94.9307 151.64H98.5357L90.8357 159.48L99.5157 169H95.7707L87.8257 160.005V169H84.8857ZM109.063 169.42C107.406 169.42 105.936 169.047 104.653 168.3C103.369 167.53 102.354 166.468 101.608 165.115C100.884 163.762 100.523 162.163 100.523 160.32C100.523 158.5 100.884 156.913 101.608 155.56C102.331 154.183 103.334 153.122 104.618 152.375C105.924 151.605 107.429 151.22 109.133 151.22C110.813 151.22 112.259 151.605 113.473 152.375C114.709 153.122 115.654 154.113 116.308 155.35C116.961 156.587 117.288 157.917 117.288 159.34C117.288 159.597 117.276 159.853 117.253 160.11C117.253 160.367 117.253 160.658 117.253 160.985H103.428C103.498 162.315 103.801 163.423 104.338 164.31C104.898 165.173 105.586 165.827 106.403 166.27C107.243 166.713 108.129 166.935 109.063 166.935C110.276 166.935 111.291 166.655 112.108 166.095C112.924 165.535 113.519 164.777 113.893 163.82H116.798C116.331 165.43 115.433 166.772 114.103 167.845C112.796 168.895 111.116 169.42 109.063 169.42ZM109.063 153.705C107.663 153.705 106.414 154.137 105.318 155C104.244 155.84 103.626 157.077 103.463 158.71H114.383C114.313 157.147 113.776 155.922 112.773 155.035C111.769 154.148 110.533 153.705 109.063 153.705ZM137.097 169.42C135.021 169.42 133.294 168.895 131.917 167.845C130.541 166.795 129.736 165.372 129.502 163.575H132.512C132.699 164.485 133.177 165.278 133.947 165.955C134.741 166.608 135.802 166.935 137.132 166.935C138.369 166.935 139.279 166.678 139.862 166.165C140.446 165.628 140.737 164.998 140.737 164.275C140.737 163.225 140.352 162.525 139.582 162.175C138.836 161.825 137.774 161.51 136.397 161.23C135.464 161.043 134.531 160.775 133.597 160.425C132.664 160.075 131.882 159.585 131.252 158.955C130.622 158.302 130.307 157.45 130.307 156.4C130.307 154.883 130.867 153.647 131.987 152.69C133.131 151.71 134.671 151.22 136.607 151.22C138.451 151.22 139.956 151.687 141.122 152.62C142.312 153.53 143.001 154.837 143.187 156.54H140.282C140.166 155.653 139.781 154.965 139.127 154.475C138.497 153.962 137.646 153.705 136.572 153.705C135.522 153.705 134.706 153.927 134.122 154.37C133.562 154.813 133.282 155.397 133.282 156.12C133.282 156.82 133.644 157.368 134.367 157.765C135.114 158.162 136.117 158.5 137.377 158.78C138.451 159.013 139.466 159.305 140.422 159.655C141.402 159.982 142.196 160.483 142.802 161.16C143.432 161.813 143.747 162.77 143.747 164.03C143.771 165.593 143.176 166.888 141.962 167.915C140.772 168.918 139.151 169.42 137.097 169.42ZM155.857 169.42C154.224 169.42 152.754 169.047 151.447 168.3C150.141 167.553 149.102 166.503 148.332 165.15C147.586 163.773 147.212 162.163 147.212 160.32C147.212 158.477 147.597 156.878 148.367 155.525C149.137 154.148 150.176 153.087 151.482 152.34C152.812 151.593 154.294 151.22 155.927 151.22C157.561 151.22 159.031 151.593 160.337 152.34C161.644 153.087 162.671 154.148 163.417 155.525C164.187 156.878 164.572 158.477 164.572 160.32C164.572 162.163 164.187 163.773 163.417 165.15C162.647 166.503 161.597 167.553 160.267 168.3C158.961 169.047 157.491 169.42 155.857 169.42ZM155.857 166.9C156.861 166.9 157.794 166.655 158.657 166.165C159.521 165.675 160.221 164.94 160.757 163.96C161.294 162.98 161.562 161.767 161.562 160.32C161.562 158.873 161.294 157.66 160.757 156.68C160.244 155.7 159.556 154.965 158.692 154.475C157.829 153.985 156.907 153.74 155.927 153.74C154.924 153.74 153.991 153.985 153.127 154.475C152.264 154.965 151.564 155.7 151.027 156.68C150.491 157.66 150.222 158.873 150.222 160.32C150.222 161.767 150.491 162.98 151.027 163.96C151.564 164.94 152.252 165.675 153.092 166.165C153.956 166.655 154.877 166.9 155.857 166.9ZM168.66 169V151.64H171.32L171.53 154.16C172.09 153.227 172.837 152.503 173.77 151.99C174.703 151.477 175.753 151.22 176.92 151.22C178.297 151.22 179.475 151.5 180.455 152.06C181.458 152.62 182.228 153.472 182.765 154.615C183.372 153.565 184.2 152.737 185.25 152.13C186.323 151.523 187.478 151.22 188.715 151.22C190.792 151.22 192.448 151.85 193.685 153.11C194.922 154.347 195.54 156.26 195.54 158.85V169H192.635V159.165C192.635 157.368 192.273 156.015 191.55 155.105C190.827 154.195 189.788 153.74 188.435 153.74C187.035 153.74 185.868 154.288 184.935 155.385C184.025 156.458 183.57 157.998 183.57 160.005V169H180.63V159.165C180.63 157.368 180.268 156.015 179.545 155.105C178.822 154.195 177.783 153.74 176.43 153.74C175.053 153.74 173.898 154.288 172.965 155.385C172.055 156.458 171.6 157.998 171.6 160.005V169H168.66ZM207.774 169.42C206.117 169.42 204.647 169.047 203.364 168.3C202.08 167.53 201.065 166.468 200.319 165.115C199.595 163.762 199.234 162.163 199.234 160.32C199.234 158.5 199.595 156.913 200.319 155.56C201.042 154.183 202.045 153.122 203.329 152.375C204.635 151.605 206.14 151.22 207.844 151.22C209.524 151.22 210.97 151.605 212.184 152.375C213.42 153.122 214.365 154.113 215.019 155.35C215.672 156.587 215.999 157.917 215.999 159.34C215.999 159.597 215.987 159.853 215.964 160.11C215.964 160.367 215.964 160.658 215.964 160.985H202.139C202.209 162.315 202.512 163.423 203.049 164.31C203.609 165.173 204.297 165.827 205.114 166.27C205.954 166.713 206.84 166.935 207.774 166.935C208.987 166.935 210.002 166.655 210.819 166.095C211.635 165.535 212.23 164.777 212.604 163.82H215.509C215.042 165.43 214.144 166.772 212.814 167.845C211.507 168.895 209.827 169.42 207.774 169.42ZM207.774 153.705C206.374 153.705 205.125 154.137 204.029 155C202.955 155.84 202.337 157.077 202.174 158.71H213.094C213.024 157.147 212.487 155.922 211.484 155.035C210.48 154.148 209.244 153.705 207.774 153.705ZM229.158 169V151.64H231.818L231.993 154.755C232.553 153.658 233.358 152.795 234.408 152.165C235.458 151.535 236.648 151.22 237.978 151.22C240.031 151.22 241.665 151.85 242.878 153.11C244.115 154.347 244.733 156.26 244.733 158.85V169H241.793V159.165C241.793 155.548 240.3 153.74 237.313 153.74C235.82 153.74 234.571 154.288 233.568 155.385C232.588 156.458 232.098 157.998 232.098 160.005V169H229.158ZM257.097 169.42C255.464 169.42 253.994 169.047 252.687 168.3C251.381 167.553 250.342 166.503 249.572 165.15C248.826 163.773 248.452 162.163 248.452 160.32C248.452 158.477 248.837 156.878 249.607 155.525C250.377 154.148 251.416 153.087 252.722 152.34C254.052 151.593 255.534 151.22 257.167 151.22C258.801 151.22 260.271 151.593 261.577 152.34C262.884 153.087 263.911 154.148 264.657 155.525C265.427 156.878 265.812 158.477 265.812 160.32C265.812 162.163 265.427 163.773 264.657 165.15C263.887 166.503 262.837 167.553 261.507 168.3C260.201 169.047 258.731 169.42 257.097 169.42ZM257.097 166.9C258.101 166.9 259.034 166.655 259.897 166.165C260.761 165.675 261.461 164.94 261.997 163.96C262.534 162.98 262.802 161.767 262.802 160.32C262.802 158.873 262.534 157.66 261.997 156.68C261.484 155.7 260.796 154.965 259.932 154.475C259.069 153.985 258.147 153.74 257.167 153.74C256.164 153.74 255.231 153.985 254.367 154.475C253.504 154.965 252.804 155.7 252.267 156.68C251.731 157.66 251.462 158.873 251.462 160.32C251.462 161.767 251.731 162.98 252.267 163.96C252.804 164.94 253.492 165.675 254.332 166.165C255.196 166.655 256.117 166.9 257.097 166.9ZM276.077 169C274.49 169 273.242 168.615 272.332 167.845C271.422 167.075 270.967 165.687 270.967 163.68V154.125H267.957V151.64H270.967L271.352 147.475H273.907V151.64H279.017V154.125H273.907V163.68C273.907 164.777 274.128 165.523 274.572 165.92C275.015 166.293 275.797 166.48 276.917 166.48H278.737V169H276.077ZM290.078 169.42C288.422 169.42 286.952 169.047 285.668 168.3C284.385 167.53 283.37 166.468 282.623 165.115C281.9 163.762 281.538 162.163 281.538 160.32C281.538 158.5 281.9 156.913 282.623 155.56C283.347 154.183 284.35 153.122 285.633 152.375C286.94 151.605 288.445 151.22 290.148 151.22C291.828 151.22 293.275 151.605 294.488 152.375C295.725 153.122 296.67 154.113 297.323 155.35C297.977 156.587 298.303 157.917 298.303 159.34C298.303 159.597 298.292 159.853 298.268 160.11C298.268 160.367 298.268 160.658 298.268 160.985H284.443C284.513 162.315 284.817 163.423 285.353 164.31C285.913 165.173 286.602 165.827 287.418 166.27C288.258 166.713 289.145 166.935 290.078 166.935C291.292 166.935 292.307 166.655 293.123 166.095C293.94 165.535 294.535 164.777 294.908 163.82H297.813C297.347 165.43 296.448 166.772 295.118 167.845C293.812 168.895 292.132 169.42 290.078 169.42ZM290.078 153.705C288.678 153.705 287.43 154.137 286.333 155C285.26 155.84 284.642 157.077 284.478 158.71H295.398C295.328 157.147 294.792 155.922 293.788 155.035C292.785 154.148 291.548 153.705 290.078 153.705ZM308.85 169.42C306.773 169.42 305.047 168.895 303.67 167.845C302.293 166.795 301.488 165.372 301.255 163.575H304.265C304.452 164.485 304.93 165.278 305.7 165.955C306.493 166.608 307.555 166.935 308.885 166.935C310.122 166.935 311.032 166.678 311.615 166.165C312.198 165.628 312.49 164.998 312.49 164.275C312.49 163.225 312.105 162.525 311.335 162.175C310.588 161.825 309.527 161.51 308.15 161.23C307.217 161.043 306.283 160.775 305.35 160.425C304.417 160.075 303.635 159.585 303.005 158.955C302.375 158.302 302.06 157.45 302.06 156.4C302.06 154.883 302.62 153.647 303.74 152.69C304.883 151.71 306.423 151.22 308.36 151.22C310.203 151.22 311.708 151.687 312.875 152.62C314.065 153.53 314.753 154.837 314.94 156.54H312.035C311.918 155.653 311.533 154.965 310.88 154.475C310.25 153.962 309.398 153.705 308.325 153.705C307.275 153.705 306.458 153.927 305.875 154.37C305.315 154.813 305.035 155.397 305.035 156.12C305.035 156.82 305.397 157.368 306.12 157.765C306.867 158.162 307.87 158.5 309.13 158.78C310.203 159.013 311.218 159.305 312.175 159.655C313.155 159.982 313.948 160.483 314.555 161.16C315.185 161.813 315.5 162.77 315.5 164.03C315.523 165.593 314.928 166.888 313.715 167.915C312.525 168.918 310.903 169.42 308.85 169.42ZM320.33 162.21L319.98 144.5H323.165L322.815 162.21H320.33ZM321.66 169.175C321.077 169.175 320.587 168.988 320.19 168.615C319.817 168.218 319.63 167.74 319.63 167.18C319.63 166.62 319.817 166.153 320.19 165.78C320.587 165.383 321.077 165.185 321.66 165.185C322.22 165.185 322.687 165.383 323.06 165.78C323.457 166.153 323.655 166.62 323.655 167.18C323.655 167.74 323.457 168.218 323.06 168.615C322.687 168.988 322.22 169.175 321.66 169.175Z" fill="white"/>
<g clip-path="url(#clip2_2_245)">
<path d="M105.013 67.6975L109.163 70.2075C109.923 70.6675 110.853 69.9875 110.653 69.1275L109.553 64.4075L113.223 61.2275C113.893 60.6475 113.533 59.5475 112.653 59.4775L107.823 59.0675L105.933 54.6075C105.593 53.7975 104.433 53.7975 104.093 54.6075L102.203 59.0575L97.3726 59.4675C96.4926 59.5375 96.1326 60.6375 96.8026 61.2175L100.473 64.3975L99.3726 69.1175C99.1726 69.9775 100.103 70.6575 100.863 70.1975L105.013 67.6975Z" fill="#FCFF51"/>
</g>
<path d="M56.831 220.276C55.6503 220.276 54.623 220.061 53.749 219.632C52.875 219.203 52.2003 218.605 51.725 217.838C51.2497 217.071 51.012 216.182 51.012 215.17H53.036C53.036 215.799 53.1817 216.381 53.473 216.918C53.7643 217.439 54.186 217.861 54.738 218.183C55.3053 218.49 56.003 218.643 56.831 218.643C57.9197 218.643 58.763 218.382 59.361 217.861C59.959 217.34 60.258 216.688 60.258 215.906C60.258 215.262 60.12 214.748 59.844 214.365C59.568 213.966 59.1923 213.644 58.717 213.399C58.257 213.154 57.7203 212.939 57.107 212.755C56.509 212.571 55.8803 212.364 55.221 212.134C53.979 211.705 53.059 211.176 52.461 210.547C51.863 209.903 51.564 209.067 51.564 208.04C51.5487 207.181 51.748 206.422 52.162 205.763C52.576 205.088 53.1587 204.567 53.91 204.199C54.6767 203.816 55.5813 203.624 56.624 203.624C57.6513 203.624 58.5407 203.816 59.292 204.199C60.0587 204.582 60.649 205.111 61.063 205.786C61.4923 206.461 61.7147 207.227 61.73 208.086H59.706C59.706 207.641 59.591 207.204 59.361 206.775C59.131 206.33 58.7783 205.97 58.303 205.694C57.843 205.418 57.2603 205.28 56.555 205.28C55.681 205.265 54.9603 205.487 54.393 205.947C53.841 206.407 53.565 207.043 53.565 207.856C53.565 208.546 53.7567 209.075 54.14 209.443C54.5387 209.811 55.0907 210.118 55.796 210.363C56.5013 210.593 57.314 210.861 58.234 211.168C59.0007 211.444 59.6907 211.766 60.304 212.134C60.9173 212.502 61.3927 212.977 61.73 213.56C62.0827 214.143 62.259 214.886 62.259 215.791C62.259 216.558 62.0597 217.286 61.661 217.976C61.2623 218.651 60.6567 219.203 59.844 219.632C59.0467 220.061 58.0423 220.276 56.831 220.276ZM70.1279 220.276C69.0392 220.276 68.0579 220.031 67.1839 219.54C66.3252 219.034 65.6429 218.336 65.1369 217.447C64.6462 216.542 64.4009 215.492 64.4009 214.296C64.4009 213.1 64.6462 212.057 65.1369 211.168C65.6429 210.263 66.3252 209.566 67.1839 209.075C68.0579 208.569 69.0392 208.316 70.1279 208.316C71.4772 208.316 72.6119 208.669 73.5319 209.374C74.4672 210.079 75.0575 211.022 75.3029 212.203H73.3249C73.1715 211.498 72.7959 210.953 72.1979 210.57C71.5999 210.171 70.9022 209.972 70.1049 209.972C69.4609 209.972 68.8552 210.133 68.2879 210.455C67.7205 210.777 67.2605 211.26 66.9079 211.904C66.5552 212.548 66.3789 213.345 66.3789 214.296C66.3789 215.247 66.5552 216.044 66.9079 216.688C67.2605 217.332 67.7205 217.823 68.2879 218.16C68.8552 218.482 69.4609 218.643 70.1049 218.643C70.9022 218.643 71.5999 218.451 72.1979 218.068C72.7959 217.669 73.1715 217.11 73.3249 216.389H75.3029C75.0729 217.539 74.4902 218.474 73.5549 219.195C72.6195 219.916 71.4772 220.276 70.1279 220.276ZM83.1991 220.276C82.1257 220.276 81.1597 220.031 80.3011 219.54C79.4424 219.049 78.7601 218.359 78.2541 217.47C77.7634 216.565 77.5181 215.507 77.5181 214.296C77.5181 213.085 77.7711 212.034 78.2771 211.145C78.7831 210.24 79.4654 209.543 80.3241 209.052C81.1981 208.561 82.1717 208.316 83.2451 208.316C84.3184 208.316 85.2844 208.561 86.1431 209.052C87.0017 209.543 87.6764 210.24 88.1671 211.145C88.6731 212.034 88.9261 213.085 88.9261 214.296C88.9261 215.507 88.6731 216.565 88.1671 217.47C87.6611 218.359 86.9711 219.049 86.0971 219.54C85.2384 220.031 84.2724 220.276 83.1991 220.276ZM83.1991 218.62C83.8584 218.62 84.4717 218.459 85.0391 218.137C85.6064 217.815 86.0664 217.332 86.4191 216.688C86.7717 216.044 86.9481 215.247 86.9481 214.296C86.9481 213.345 86.7717 212.548 86.4191 211.904C86.0817 211.26 85.6294 210.777 85.0621 210.455C84.4947 210.133 83.8891 209.972 83.2451 209.972C82.5857 209.972 81.9724 210.133 81.4051 210.455C80.8377 210.777 80.3777 211.26 80.0251 211.904C79.6724 212.548 79.4961 213.345 79.4961 214.296C79.4961 215.247 79.6724 216.044 80.0251 216.688C80.3777 217.332 80.8301 217.815 81.3821 218.137C81.9494 218.459 82.5551 218.62 83.1991 218.62ZM95.6712 220C94.6285 220 93.8082 219.747 93.2102 219.241C92.6122 218.735 92.3132 217.823 92.3132 216.504V210.225H90.3352V208.592H92.3132L92.5662 205.855H94.2452V208.592H97.6032V210.225H94.2452V216.504C94.2452 217.225 94.3908 217.715 94.6822 217.976C94.9735 218.221 95.4872 218.344 96.2232 218.344H97.4192V220H95.6712ZM104.566 220C103.523 220 102.703 219.747 102.105 219.241C101.507 218.735 101.208 217.823 101.208 216.504V210.225H99.2297V208.592H101.208L101.461 205.855H103.14V208.592H106.498V210.225H103.14V216.504C103.14 217.225 103.285 217.715 103.577 217.976C103.868 218.221 104.382 218.344 105.118 218.344H106.314V220H104.566ZM114.142 220L120.076 203.9H122.123L128.034 220H125.987L124.515 215.86H117.661L116.166 220H114.142ZM118.236 214.296H123.94L121.088 206.338L118.236 214.296ZM134.859 220.276C133.724 220.276 132.727 220.015 131.869 219.494C131.025 218.973 130.366 218.26 129.891 217.355C129.431 216.45 129.201 215.423 129.201 214.273C129.201 213.123 129.438 212.103 129.914 211.214C130.389 210.309 131.048 209.604 131.892 209.098C132.735 208.577 133.732 208.316 134.882 208.316C135.817 208.316 136.645 208.508 137.366 208.891C138.086 209.274 138.646 209.811 139.045 210.501V203.44H140.977V220H139.229L139.045 218.114C138.677 218.666 138.148 219.164 137.458 219.609C136.768 220.054 135.901 220.276 134.859 220.276ZM135.066 218.597C135.832 218.597 136.507 218.421 137.09 218.068C137.688 217.7 138.148 217.194 138.47 216.55C138.807 215.906 138.976 215.155 138.976 214.296C138.976 213.437 138.807 212.686 138.47 212.042C138.148 211.398 137.688 210.9 137.09 210.547C136.507 210.179 135.832 209.995 135.066 209.995C134.314 209.995 133.64 210.179 133.042 210.547C132.459 210.9 131.999 211.398 131.662 212.042C131.34 212.686 131.179 213.437 131.179 214.296C131.179 215.155 131.34 215.906 131.662 216.55C131.999 217.194 132.459 217.7 133.042 218.068C133.64 218.421 134.314 218.597 135.066 218.597ZM147.921 220.276C146.97 220.276 146.181 220.115 145.552 219.793C144.923 219.471 144.456 219.042 144.149 218.505C143.842 217.968 143.689 217.386 143.689 216.757C143.689 215.592 144.134 214.695 145.023 214.066C145.912 213.437 147.124 213.123 148.657 213.123H151.739V212.985C151.739 211.988 151.478 211.237 150.957 210.731C150.436 210.21 149.738 209.949 148.864 209.949C148.113 209.949 147.461 210.141 146.909 210.524C146.372 210.892 146.035 211.436 145.897 212.157H143.919C143.996 211.329 144.272 210.631 144.747 210.064C145.238 209.497 145.843 209.067 146.564 208.776C147.285 208.469 148.051 208.316 148.864 208.316C150.459 208.316 151.655 208.745 152.452 209.604C153.265 210.447 153.671 211.574 153.671 212.985V220H151.946L151.831 217.953C151.509 218.597 151.034 219.149 150.405 219.609C149.792 220.054 148.964 220.276 147.921 220.276ZM148.22 218.643C148.956 218.643 149.585 218.451 150.106 218.068C150.643 217.685 151.049 217.186 151.325 216.573C151.601 215.96 151.739 215.316 151.739 214.641V214.618H148.818C147.683 214.618 146.878 214.817 146.403 215.216C145.943 215.599 145.713 216.082 145.713 216.665C145.713 217.263 145.928 217.746 146.357 218.114C146.802 218.467 147.423 218.643 148.22 218.643ZM156.569 220V208.592H158.317L158.455 210.248C158.823 209.635 159.314 209.159 159.927 208.822C160.541 208.485 161.231 208.316 161.997 208.316C162.902 208.316 163.676 208.5 164.32 208.868C164.98 209.236 165.486 209.796 165.838 210.547C166.237 209.857 166.781 209.313 167.471 208.914C168.177 208.515 168.936 208.316 169.748 208.316C171.113 208.316 172.202 208.73 173.014 209.558C173.827 210.371 174.233 211.628 174.233 213.33V220H172.324V213.537C172.324 212.356 172.087 211.467 171.611 210.869C171.136 210.271 170.454 209.972 169.564 209.972C168.644 209.972 167.878 210.332 167.264 211.053C166.666 211.758 166.367 212.77 166.367 214.089V220H164.435V213.537C164.435 212.356 164.198 211.467 163.722 210.869C163.247 210.271 162.565 209.972 161.675 209.972C160.771 209.972 160.012 210.332 159.398 211.053C158.8 211.758 158.501 212.77 158.501 214.089V220H156.569ZM181.514 220.276C180.149 220.276 179.014 219.931 178.11 219.241C177.205 218.551 176.676 217.616 176.523 216.435H178.501C178.623 217.033 178.938 217.554 179.444 217.999C179.965 218.428 180.663 218.643 181.537 218.643C182.349 218.643 182.947 218.474 183.331 218.137C183.714 217.784 183.906 217.37 183.906 216.895C183.906 216.205 183.653 215.745 183.147 215.515C182.656 215.285 181.958 215.078 181.054 214.894C180.44 214.771 179.827 214.595 179.214 214.365C178.6 214.135 178.087 213.813 177.673 213.399C177.259 212.97 177.052 212.41 177.052 211.72C177.052 210.723 177.42 209.911 178.156 209.282C178.907 208.638 179.919 208.316 181.192 208.316C182.403 208.316 183.392 208.623 184.159 209.236C184.941 209.834 185.393 210.693 185.516 211.812H183.607C183.53 211.229 183.277 210.777 182.848 210.455C182.434 210.118 181.874 209.949 181.169 209.949C180.479 209.949 179.942 210.095 179.559 210.386C179.191 210.677 179.007 211.061 179.007 211.536C179.007 211.996 179.244 212.356 179.72 212.617C180.21 212.878 180.87 213.1 181.698 213.284C182.403 213.437 183.07 213.629 183.699 213.859C184.343 214.074 184.864 214.403 185.263 214.848C185.677 215.277 185.884 215.906 185.884 216.734C185.899 217.761 185.508 218.612 184.711 219.287C183.929 219.946 182.863 220.276 181.514 220.276Z" fill="white" fill-opacity="0.7"/>
<g clip-path="url(#clip3_2_245)">
<path d="M59.0126 67.6975L63.1626 70.2075C63.9226 70.6675 64.8526 69.9875 64.6526 69.1275L63.5526 64.4075L67.2226 61.2275C67.8926 60.6475 67.5326 59.5475 66.6526 59.4775L61.8226 59.0675L59.9326 54.6075C59.5926 53.7975 58.4327 53.7975 58.0926 54.6075L56.2026 59.0575L51.3726 59.4675C50.4926 59.5375 50.1326 60.6375 50.8026 61.2175L54.4726 64.3975L53.3726 69.1175C53.1726 69.9775 54.1026 70.6575 54.8626 70.1975L59.0126 67.6975Z" fill="#FCFF51"/>
</g>
<g clip-path="url(#clip4_2_245)">
<path d="M151.013 67.6975L155.163 70.2075C155.923 70.6675 156.853 69.9875 156.653 69.1275L155.553 64.4075L159.223 61.2275C159.893 60.6475 159.533 59.5475 158.653 59.4775L153.823 59.0675L151.933 54.6075C151.593 53.7975 150.433 53.7975 150.093 54.6075L148.203 59.0575L143.373 59.4675C142.493 59.5375 142.133 60.6375 142.803 61.2175L146.473 64.3975L145.373 69.1175C145.173 69.9775 146.103 70.6575 146.863 70.1975L151.013 67.6975Z" fill="#FCFF51"/>
</g>
<defs>
<clipPath id="clip0_2_245">
<rect width="18" height="17" fill="white" transform="translate(73 54)"/>
</clipPath>
<clipPath id="clip1_2_245">
<rect width="18" height="17" fill="white" transform="translate(119 54)"/>
</clipPath>
<clipPath id="clip2_2_245">
<rect width="18" height="17" fill="white" transform="translate(96 54)"/>
</clipPath>
<clipPath id="clip3_2_245">
<rect width="18" height="17" fill="white" transform="translate(50 54)"/>
</clipPath>
<clipPath id="clip4_2_245">
<rect width="18" height="17" fill="white" transform="translate(142 54)"/>
</clipPath>
</defs>
</svg>
