<svg width="423" height="321" viewBox="0 0 423 321" fill="none" xmlns="http://www.w3.org/2000/svg">
<rect width="423" height="321" rx="32" fill="black"/>
<g clip-path="url(#clip0_2_217)">
<path d="M82.0126 67.6975L86.1626 70.2075C86.9226 70.6675 87.8526 69.9875 87.6526 69.1275L86.5526 64.4075L90.2226 61.2275C90.8926 60.6475 90.5326 59.5475 89.6526 59.4775L84.8226 59.0675L82.9326 54.6075C82.5926 53.7975 81.4327 53.7975 81.0926 54.6075L79.2026 59.0575L74.3726 59.4675C73.4926 59.5375 73.1326 60.6375 73.8026 61.2175L77.4726 64.3975L76.3726 69.1175C76.1726 69.9775 77.1026 70.6575 77.8626 70.1975L82.0126 67.6975Z" fill="#FCFF51"/>
</g>
<g clip-path="url(#clip1_2_217)">
<path d="M128.013 67.6975L132.163 70.2075C132.923 70.6675 133.853 69.9875 133.653 69.1275L132.553 64.4075L136.223 61.2275C136.893 60.6475 136.533 59.5475 135.653 59.4775L130.823 59.0675L128.933 54.6075C128.593 53.7975 127.433 53.7975 127.093 54.6075L125.203 59.0575L120.373 59.4675C119.493 59.5375 119.133 60.6375 119.803 61.2175L123.473 64.3975L122.373 69.1175C122.173 69.9775 123.103 70.6575 123.863 70.1975L128.013 67.6975Z" fill="#FCFF51"/>
</g>
<path d="M51.08 126L60.368 100.8H63.572L72.824 126H69.62L67.316 119.52H56.588L54.248 126H51.08ZM57.488 117.072H66.416L61.952 104.616L57.488 117.072ZM89.5176 126L84.2976 108.144H87.3216L91.1016 122.148L95.2776 108.144H98.6976L102.91 122.148L106.654 108.144H109.714L104.494 126H101.398L97.0056 111.276L92.6136 126H89.5176ZM120.418 126.432C118.714 126.432 117.202 126.048 115.882 125.28C114.562 124.488 113.518 123.396 112.75 122.004C112.006 120.612 111.634 118.968 111.634 117.072C111.634 115.2 112.006 113.568 112.75 112.176C113.494 110.76 114.526 109.668 115.846 108.9C117.19 108.108 118.738 107.712 120.49 107.712C122.218 107.712 123.706 108.108 124.954 108.9C126.226 109.668 127.198 110.688 127.87 111.96C128.542 113.232 128.878 114.6 128.878 116.064C128.878 116.328 128.866 116.592 128.842 116.856C128.842 117.12 128.842 117.42 128.842 117.756H114.622C114.694 119.124 115.006 120.264 115.558 121.176C116.134 122.064 116.842 122.736 117.682 123.192C118.546 123.648 119.458 123.876 120.418 123.876C121.666 123.876 122.71 123.588 123.55 123.012C124.39 122.436 125.002 121.656 125.386 120.672H128.374C127.894 122.328 126.97 123.708 125.602 124.812C124.258 125.892 122.53 126.432 120.418 126.432ZM120.418 110.268C118.978 110.268 117.694 110.712 116.566 111.6C115.462 112.464 114.826 113.736 114.658 115.416H125.89C125.818 113.808 125.266 112.548 124.234 111.636C123.202 110.724 121.93 110.268 120.418 110.268ZM138.826 126.432C137.338 126.432 136.102 126.18 135.118 125.676C134.134 125.172 133.402 124.5 132.922 123.66C132.442 122.82 132.202 121.908 132.202 120.924C132.202 119.1 132.898 117.696 134.29 116.712C135.682 115.728 137.578 115.236 139.978 115.236H144.802V115.02C144.802 113.46 144.394 112.284 143.578 111.492C142.762 110.676 141.67 110.268 140.302 110.268C139.126 110.268 138.106 110.568 137.242 111.168C136.402 111.744 135.874 112.596 135.658 113.724H132.562C132.682 112.428 133.114 111.336 133.858 110.448C134.626 109.56 135.574 108.888 136.702 108.432C137.83 107.952 139.03 107.712 140.302 107.712C142.798 107.712 144.67 108.384 145.918 109.728C147.19 111.048 147.826 112.812 147.826 115.02V126H145.126L144.946 122.796C144.442 123.804 143.698 124.668 142.714 125.388C141.754 126.084 140.458 126.432 138.826 126.432ZM139.294 123.876C140.446 123.876 141.43 123.576 142.246 122.976C143.086 122.376 143.722 121.596 144.154 120.636C144.586 119.676 144.802 118.668 144.802 117.612V117.576H140.23C138.454 117.576 137.194 117.888 136.45 118.512C135.73 119.112 135.37 119.868 135.37 120.78C135.37 121.716 135.706 122.472 136.378 123.048C137.074 123.6 138.046 123.876 139.294 123.876ZM152.363 126V100.08H155.387V126H152.363ZM167.399 126C165.767 126 164.483 125.604 163.547 124.812C162.611 124.02 162.143 122.592 162.143 120.528V110.7H159.047V108.144H162.143L162.539 103.86H165.167V108.144H170.423V110.7H165.167V120.528C165.167 121.656 165.395 122.424 165.851 122.832C166.307 123.216 167.111 123.408 168.263 123.408H170.135V126H167.399ZM174.265 126V100.08H177.289V111.204C177.889 110.1 178.741 109.248 179.845 108.648C180.949 108.024 182.149 107.712 183.445 107.712C185.509 107.712 187.165 108.36 188.413 109.656C189.661 110.928 190.285 112.896 190.285 115.56V126H187.297V115.884C187.297 112.164 185.797 110.304 182.797 110.304C181.237 110.304 179.929 110.868 178.873 111.996C177.817 113.1 177.289 114.684 177.289 116.748V126H174.265ZM212.53 126.432C210.85 126.432 209.338 126.048 207.994 125.28C206.65 124.512 205.582 123.432 204.79 122.04C204.022 120.624 203.638 118.968 203.638 117.072C203.638 115.176 204.034 113.532 204.826 112.14C205.618 110.724 206.686 109.632 208.03 108.864C209.398 108.096 210.922 107.712 212.602 107.712C214.282 107.712 215.794 108.096 217.138 108.864C218.482 109.632 219.538 110.724 220.306 112.14C221.098 113.532 221.494 115.176 221.494 117.072C221.494 118.968 221.098 120.624 220.306 122.04C219.514 123.432 218.434 124.512 217.066 125.28C215.722 126.048 214.21 126.432 212.53 126.432ZM212.53 123.84C213.562 123.84 214.522 123.588 215.41 123.084C216.298 122.58 217.018 121.824 217.57 120.816C218.122 119.808 218.398 118.56 218.398 117.072C218.398 115.584 218.122 114.336 217.57 113.328C217.042 112.32 216.334 111.564 215.446 111.06C214.558 110.556 213.61 110.304 212.602 110.304C211.57 110.304 210.61 110.556 209.722 111.06C208.834 111.564 208.114 112.32 207.562 113.328C207.01 114.336 206.734 115.584 206.734 117.072C206.734 118.56 207.01 119.808 207.562 120.816C208.114 121.824 208.822 122.58 209.686 123.084C210.574 123.588 211.522 123.84 212.53 123.84ZM226.671 126V110.7H223.971V108.144H226.671V105.048C226.671 103.32 227.103 102.06 227.967 101.268C228.831 100.476 230.091 100.08 231.747 100.08H233.547V102.672H232.215C231.303 102.672 230.655 102.864 230.271 103.248C229.887 103.608 229.695 104.232 229.695 105.12V108.144H234.087V110.7H229.695V126H226.671ZM253.154 126.432C251.666 126.432 250.43 126.18 249.446 125.676C248.462 125.172 247.73 124.5 247.25 123.66C246.77 122.82 246.53 121.908 246.53 120.924C246.53 119.1 247.226 117.696 248.618 116.712C250.01 115.728 251.906 115.236 254.306 115.236H259.13V115.02C259.13 113.46 258.722 112.284 257.906 111.492C257.09 110.676 255.998 110.268 254.63 110.268C253.454 110.268 252.434 110.568 251.57 111.168C250.73 111.744 250.202 112.596 249.986 113.724H246.89C247.01 112.428 247.442 111.336 248.186 110.448C248.954 109.56 249.902 108.888 251.03 108.432C252.158 107.952 253.358 107.712 254.63 107.712C257.126 107.712 258.998 108.384 260.246 109.728C261.518 111.048 262.154 112.812 262.154 115.02V126H259.454L259.274 122.796C258.77 123.804 258.026 124.668 257.042 125.388C256.082 126.084 254.786 126.432 253.154 126.432ZM253.622 123.876C254.774 123.876 255.758 123.576 256.574 122.976C257.414 122.376 258.05 121.596 258.482 120.636C258.914 119.676 259.13 118.668 259.13 117.612V117.576H254.558C252.782 117.576 251.522 117.888 250.778 118.512C250.058 119.112 249.698 119.868 249.698 120.78C249.698 121.716 250.034 122.472 250.706 123.048C251.402 123.6 252.374 123.876 253.622 123.876ZM273.207 126.432C271.095 126.432 269.415 125.796 268.167 124.524C266.919 123.228 266.295 121.248 266.295 118.584V108.144H269.319V118.26C269.319 121.98 270.843 123.84 273.891 123.84C275.451 123.84 276.735 123.288 277.743 122.184C278.775 121.056 279.291 119.46 279.291 117.396V108.144H282.315V126H279.579L279.363 122.796C278.811 123.924 277.983 124.812 276.879 125.46C275.799 126.108 274.575 126.432 273.207 126.432ZM295.393 126.432C293.617 126.432 292.057 126.024 290.713 125.208C289.393 124.392 288.361 123.276 287.617 121.86C286.897 120.444 286.537 118.836 286.537 117.036C286.537 115.236 286.909 113.64 287.653 112.248C288.397 110.832 289.429 109.728 290.749 108.936C292.069 108.12 293.629 107.712 295.429 107.712C296.893 107.712 298.189 108.012 299.317 108.612C300.445 109.212 301.321 110.052 301.945 111.132V100.08H304.969V126H302.233L301.945 123.048C301.369 123.912 300.541 124.692 299.461 125.388C298.381 126.084 297.025 126.432 295.393 126.432ZM295.717 123.804C296.917 123.804 297.973 123.528 298.885 122.976C299.821 122.4 300.541 121.608 301.045 120.6C301.573 119.592 301.837 118.416 301.837 117.072C301.837 115.728 301.573 114.552 301.045 113.544C300.541 112.536 299.821 111.756 298.885 111.204C297.973 110.628 296.917 110.34 295.717 110.34C294.541 110.34 293.485 110.628 292.549 111.204C291.637 111.756 290.917 112.536 290.389 113.544C289.885 114.552 289.633 115.728 289.633 117.072C289.633 118.416 289.885 119.592 290.389 120.6C290.917 121.608 291.637 122.4 292.549 122.976C293.485 123.528 294.541 123.804 295.717 123.804ZM311.734 104.184C311.134 104.184 310.63 103.992 310.222 103.608C309.838 103.2 309.646 102.696 309.646 102.096C309.646 101.52 309.838 101.04 310.222 100.656C310.63 100.272 311.134 100.08 311.734 100.08C312.31 100.08 312.802 100.272 313.21 100.656C313.618 101.04 313.822 101.52 313.822 102.096C313.822 102.696 313.618 103.2 313.21 103.608C312.802 103.992 312.31 104.184 311.734 104.184ZM310.222 126V108.144H313.246V126H310.222ZM326.647 126.432C324.967 126.432 323.455 126.048 322.111 125.28C320.767 124.512 319.699 123.432 318.907 122.04C318.139 120.624 317.755 118.968 317.755 117.072C317.755 115.176 318.151 113.532 318.943 112.14C319.735 110.724 320.803 109.632 322.147 108.864C323.515 108.096 325.039 107.712 326.719 107.712C328.399 107.712 329.911 108.096 331.255 108.864C332.599 109.632 333.655 110.724 334.423 112.14C335.215 113.532 335.611 115.176 335.611 117.072C335.611 118.968 335.215 120.624 334.423 122.04C333.631 123.432 332.551 124.512 331.183 125.28C329.839 126.048 328.327 126.432 326.647 126.432ZM326.647 123.84C327.679 123.84 328.639 123.588 329.527 123.084C330.415 122.58 331.135 121.824 331.687 120.816C332.239 119.808 332.515 118.56 332.515 117.072C332.515 115.584 332.239 114.336 331.687 113.328C331.159 112.32 330.451 111.564 329.563 111.06C328.675 110.556 327.727 110.304 326.719 110.304C325.687 110.304 324.727 110.556 323.839 111.06C322.951 111.564 322.231 112.32 321.679 113.328C321.127 114.336 320.851 115.584 320.851 117.072C320.851 118.56 321.127 119.808 321.679 120.816C322.231 121.824 322.939 122.58 323.803 123.084C324.691 123.588 325.639 123.84 326.647 123.84ZM52.484 169V143.08H55.508V158.668L62.816 151.144H66.524L58.604 159.208L67.532 169H63.68L55.508 159.748V169H52.484ZM70.6246 169V151.144H73.3606L73.5406 154.348C74.1166 153.22 74.9446 152.332 76.0246 151.684C77.1046 151.036 78.3286 150.712 79.6966 150.712C81.8086 150.712 83.4886 151.36 84.7366 152.656C86.0086 153.928 86.6446 155.896 86.6446 158.56V169H83.6206V158.884C83.6206 155.164 82.0846 153.304 79.0126 153.304C77.4766 153.304 76.1926 153.868 75.1606 154.996C74.1526 156.1 73.6486 157.684 73.6486 159.748V169H70.6246ZM99.3622 169.432C97.6822 169.432 96.1702 169.048 94.8262 168.28C93.4822 167.512 92.4142 166.432 91.6222 165.04C90.8542 163.624 90.4702 161.968 90.4702 160.072C90.4702 158.176 90.8662 156.532 91.6582 155.14C92.4502 153.724 93.5182 152.632 94.8622 151.864C96.2302 151.096 97.7542 150.712 99.4342 150.712C101.114 150.712 102.626 151.096 103.97 151.864C105.314 152.632 106.37 153.724 107.138 155.14C107.93 156.532 108.326 158.176 108.326 160.072C108.326 161.968 107.93 163.624 107.138 165.04C106.346 166.432 105.266 167.512 103.898 168.28C102.554 169.048 101.042 169.432 99.3622 169.432ZM99.3622 166.84C100.394 166.84 101.354 166.588 102.242 166.084C103.13 165.58 103.85 164.824 104.402 163.816C104.954 162.808 105.23 161.56 105.23 160.072C105.23 158.584 104.954 157.336 104.402 156.328C103.874 155.32 103.166 154.564 102.278 154.06C101.39 153.556 100.442 153.304 99.4342 153.304C98.4022 153.304 97.4422 153.556 96.5542 154.06C95.6662 154.564 94.9462 155.32 94.3942 156.328C93.8422 157.336 93.5662 158.584 93.5662 160.072C93.5662 161.56 93.8422 162.808 94.3942 163.816C94.9462 164.824 95.6542 165.58 96.5182 166.084C97.4062 166.588 98.3542 166.84 99.3622 166.84ZM115.463 169L110.243 151.144H113.267L117.047 165.148L121.223 151.144H124.643L128.855 165.148L132.599 151.144H135.659L130.439 169H127.343L122.951 154.276L118.559 169H115.463ZM139.004 169V143.08H142.028V169H139.004ZM155.012 169.432C153.308 169.432 151.796 169.048 150.476 168.28C149.156 167.488 148.112 166.396 147.344 165.004C146.6 163.612 146.228 161.968 146.228 160.072C146.228 158.2 146.6 156.568 147.344 155.176C148.088 153.76 149.12 152.668 150.44 151.9C151.784 151.108 153.332 150.712 155.084 150.712C156.812 150.712 158.3 151.108 159.548 151.9C160.82 152.668 161.792 153.688 162.464 154.96C163.136 156.232 163.472 157.6 163.472 159.064C163.472 159.328 163.46 159.592 163.436 159.856C163.436 160.12 163.436 160.42 163.436 160.756H149.216C149.288 162.124 149.6 163.264 150.152 164.176C150.728 165.064 151.436 165.736 152.276 166.192C153.14 166.648 154.052 166.876 155.012 166.876C156.26 166.876 157.304 166.588 158.144 166.012C158.984 165.436 159.596 164.656 159.98 163.672H162.968C162.488 165.328 161.564 166.708 160.196 167.812C158.852 168.892 157.124 169.432 155.012 169.432ZM155.012 153.268C153.572 153.268 152.288 153.712 151.16 154.6C150.056 155.464 149.42 156.736 149.252 158.416H160.484C160.412 156.808 159.86 155.548 158.828 154.636C157.796 153.724 156.524 153.268 155.012 153.268ZM175.58 169.432C173.804 169.432 172.244 169.024 170.9 168.208C169.58 167.392 168.548 166.276 167.804 164.86C167.084 163.444 166.724 161.836 166.724 160.036C166.724 158.236 167.096 156.64 167.84 155.248C168.584 153.832 169.616 152.728 170.936 151.936C172.256 151.12 173.816 150.712 175.616 150.712C177.08 150.712 178.376 151.012 179.504 151.612C180.632 152.212 181.508 153.052 182.132 154.132V143.08H185.156V169H182.42L182.132 166.048C181.556 166.912 180.728 167.692 179.648 168.388C178.568 169.084 177.212 169.432 175.58 169.432ZM175.904 166.804C177.104 166.804 178.16 166.528 179.072 165.976C180.008 165.4 180.728 164.608 181.232 163.6C181.76 162.592 182.024 161.416 182.024 160.072C182.024 158.728 181.76 157.552 181.232 156.544C180.728 155.536 180.008 154.756 179.072 154.204C178.16 153.628 177.104 153.34 175.904 153.34C174.728 153.34 173.672 153.628 172.736 154.204C171.824 154.756 171.104 155.536 170.576 156.544C170.072 157.552 169.82 158.728 169.82 160.072C169.82 161.416 170.072 162.592 170.576 163.6C171.104 164.608 171.824 165.4 172.736 165.976C173.672 166.528 174.728 166.804 175.904 166.804ZM197.142 163.384C196.134 163.384 195.21 163.252 194.37 162.988L192.57 164.68C192.834 164.872 193.158 165.04 193.542 165.184C193.95 165.304 194.526 165.424 195.27 165.544C196.014 165.64 197.058 165.748 198.402 165.868C200.802 166.036 202.518 166.588 203.55 167.524C204.582 168.46 205.098 169.684 205.098 171.196C205.098 172.228 204.81 173.212 204.234 174.148C203.682 175.084 202.818 175.852 201.642 176.452C200.49 177.052 199.002 177.352 197.178 177.352C195.57 177.352 194.142 177.136 192.894 176.704C191.646 176.296 190.674 175.66 189.978 174.796C189.282 173.956 188.934 172.888 188.934 171.592C188.934 170.92 189.114 170.188 189.474 169.396C189.834 168.628 190.506 167.896 191.49 167.2C190.962 166.984 190.506 166.756 190.122 166.516C189.762 166.252 189.426 165.964 189.114 165.652V164.824L192.174 161.8C190.758 160.6 190.05 159.016 190.05 157.048C190.05 155.872 190.326 154.804 190.878 153.844C191.43 152.884 192.234 152.128 193.29 151.576C194.346 151 195.63 150.712 197.142 150.712C198.174 150.712 199.11 150.856 199.95 151.144H206.538V153.412L203.19 153.556C203.886 154.564 204.234 155.728 204.234 157.048C204.234 158.224 203.946 159.292 203.37 160.252C202.818 161.212 202.014 161.98 200.958 162.556C199.926 163.108 198.654 163.384 197.142 163.384ZM197.142 160.9C198.414 160.9 199.422 160.576 200.166 159.928C200.934 159.256 201.318 158.296 201.318 157.048C201.318 155.824 200.934 154.888 200.166 154.24C199.422 153.568 198.414 153.232 197.142 153.232C195.846 153.232 194.814 153.568 194.046 154.24C193.302 154.888 192.93 155.824 192.93 157.048C192.93 158.296 193.302 159.256 194.046 159.928C194.814 160.576 195.846 160.9 197.142 160.9ZM191.886 171.304C191.886 172.504 192.39 173.392 193.398 173.968C194.406 174.568 195.666 174.868 197.178 174.868C198.666 174.868 199.854 174.544 200.742 173.896C201.654 173.248 202.11 172.384 202.11 171.304C202.11 170.536 201.798 169.864 201.174 169.288C200.55 168.736 199.398 168.412 197.718 168.316C196.398 168.22 195.258 168.1 194.298 167.956C193.314 168.484 192.666 169.048 192.354 169.648C192.042 170.272 191.886 170.824 191.886 171.304ZM217.274 169.432C215.57 169.432 214.058 169.048 212.738 168.28C211.418 167.488 210.374 166.396 209.606 165.004C208.862 163.612 208.49 161.968 208.49 160.072C208.49 158.2 208.862 156.568 209.606 155.176C210.35 153.76 211.382 152.668 212.702 151.9C214.046 151.108 215.594 150.712 217.346 150.712C219.074 150.712 220.562 151.108 221.81 151.9C223.082 152.668 224.054 153.688 224.726 154.96C225.398 156.232 225.734 157.6 225.734 159.064C225.734 159.328 225.722 159.592 225.698 159.856C225.698 160.12 225.698 160.42 225.698 160.756H211.478C211.55 162.124 211.862 163.264 212.414 164.176C212.99 165.064 213.698 165.736 214.538 166.192C215.402 166.648 216.314 166.876 217.274 166.876C218.522 166.876 219.566 166.588 220.406 166.012C221.246 165.436 221.858 164.656 222.242 163.672H225.23C224.75 165.328 223.826 166.708 222.458 167.812C221.114 168.892 219.386 169.432 217.274 169.432ZM217.274 153.268C215.834 153.268 214.55 153.712 213.422 154.6C212.318 155.464 211.682 156.736 211.514 158.416H222.746C222.674 156.808 222.122 155.548 221.09 154.636C220.058 153.724 218.786 153.268 217.274 153.268Z" fill="white"/>
<g clip-path="url(#clip2_2_217)">
<path d="M105.013 67.6975L109.163 70.2075C109.923 70.6675 110.853 69.9875 110.653 69.1275L109.553 64.4075L113.223 61.2275C113.893 60.6475 113.533 59.5475 112.653 59.4775L107.823 59.0675L105.933 54.6075C105.593 53.7975 104.433 53.7975 104.093 54.6075L102.203 59.0575L97.3726 59.4675C96.4926 59.5375 96.1326 60.6375 96.8026 61.2175L100.473 64.3975L99.3726 69.1175C99.1726 69.9775 100.103 70.6575 100.863 70.1975L105.013 67.6975Z" fill="#FCFF51"/>
</g>
<path d="M51.776 221V204.2H54.128L60.176 215.912L66.176 204.2H68.552V221H66.536V207.8L60.92 218.6H59.408L53.792 207.824V221H51.776ZM75.9363 221.288C74.9443 221.288 74.1203 221.12 73.4643 220.784C72.8083 220.448 72.3203 220 72.0003 219.44C71.6803 218.88 71.5203 218.272 71.5203 217.616C71.5203 216.4 71.9843 215.464 72.9123 214.808C73.8403 214.152 75.1043 213.824 76.7043 213.824H79.9203V213.68C79.9203 212.64 79.6483 211.856 79.1043 211.328C78.5603 210.784 77.8323 210.512 76.9203 210.512C76.1363 210.512 75.4563 210.712 74.8803 211.112C74.3203 211.496 73.9683 212.064 73.8243 212.816H71.7603C71.8403 211.952 72.1283 211.224 72.6243 210.632C73.1363 210.04 73.7683 209.592 74.5203 209.288C75.2723 208.968 76.0723 208.808 76.9203 208.808C78.5843 208.808 79.8323 209.256 80.6643 210.152C81.5123 211.032 81.9363 212.208 81.9363 213.68V221H80.1363L80.0163 218.864C79.6803 219.536 79.1843 220.112 78.5283 220.592C77.8883 221.056 77.0243 221.288 75.9363 221.288ZM76.2483 219.584C77.0163 219.584 77.6723 219.384 78.2163 218.984C78.7763 218.584 79.2003 218.064 79.4883 217.424C79.7763 216.784 79.9203 216.112 79.9203 215.408V215.384H76.8723C75.6883 215.384 74.8483 215.592 74.3523 216.008C73.8723 216.408 73.6323 216.912 73.6323 217.52C73.6323 218.144 73.8563 218.648 74.3043 219.032C74.7683 219.4 75.4163 219.584 76.2483 219.584ZM84.9607 221V209.096H86.7847L86.9527 211.376C87.3207 210.592 87.8807 209.968 88.6327 209.504C89.3847 209.04 90.3127 208.808 91.4167 208.808V210.92H90.8647C90.1607 210.92 89.5127 211.048 88.9207 211.304C88.3287 211.544 87.8567 211.96 87.5047 212.552C87.1527 213.144 86.9767 213.96 86.9767 215V221H84.9607ZM98.7061 221.288C97.5701 221.288 96.5461 221.032 95.6341 220.52C94.7381 219.992 94.0261 219.264 93.4981 218.336C92.9861 217.392 92.7301 216.296 92.7301 215.048C92.7301 213.8 92.9861 212.712 93.4981 211.784C94.0261 210.84 94.7381 210.112 95.6341 209.6C96.5461 209.072 97.5701 208.808 98.7061 208.808C100.114 208.808 101.298 209.176 102.258 209.912C103.234 210.648 103.85 211.632 104.106 212.864H102.042C101.882 212.128 101.49 211.56 100.866 211.16C100.242 210.744 99.5141 210.536 98.6821 210.536C98.0101 210.536 97.3781 210.704 96.7861 211.04C96.1941 211.376 95.7141 211.88 95.3461 212.552C94.9781 213.224 94.7941 214.056 94.7941 215.048C94.7941 216.04 94.9781 216.872 95.3461 217.544C95.7141 218.216 96.1941 218.728 96.7861 219.08C97.3781 219.416 98.0101 219.584 98.6821 219.584C99.5141 219.584 100.242 219.384 100.866 218.984C101.49 218.568 101.882 217.984 102.042 217.232H104.106C103.866 218.432 103.258 219.408 102.282 220.16C101.306 220.912 100.114 221.288 98.7061 221.288ZM111.266 221.288C109.858 221.288 108.738 220.864 107.906 220.016C107.074 219.152 106.658 217.832 106.658 216.056V209.096H108.674V215.84C108.674 218.32 109.69 219.56 111.722 219.56C112.762 219.56 113.618 219.192 114.29 218.456C114.978 217.704 115.322 216.64 115.322 215.264V209.096H117.338V221H115.514L115.37 218.864C115.002 219.616 114.45 220.208 113.714 220.64C112.994 221.072 112.178 221.288 111.266 221.288ZM125.216 221.288C123.792 221.288 122.608 220.928 121.664 220.208C120.72 219.488 120.168 218.512 120.008 217.28H122.072C122.2 217.904 122.528 218.448 123.056 218.912C123.6 219.36 124.328 219.584 125.24 219.584C126.088 219.584 126.712 219.408 127.112 219.056C127.512 218.688 127.712 218.256 127.712 217.76C127.712 217.04 127.448 216.56 126.92 216.32C126.408 216.08 125.68 215.864 124.736 215.672C124.096 215.544 123.456 215.36 122.816 215.12C122.176 214.88 121.64 214.544 121.208 214.112C120.776 213.664 120.56 213.08 120.56 212.36C120.56 211.32 120.944 210.472 121.712 209.816C122.496 209.144 123.552 208.808 124.88 208.808C126.144 208.808 127.176 209.128 127.976 209.768C128.792 210.392 129.264 211.288 129.392 212.456H127.4C127.32 211.848 127.056 211.376 126.608 211.04C126.176 210.688 125.592 210.512 124.856 210.512C124.136 210.512 123.576 210.664 123.176 210.968C122.792 211.272 122.6 211.672 122.6 212.168C122.6 212.648 122.848 213.024 123.344 213.296C123.856 213.568 124.544 213.8 125.408 213.992C126.144 214.152 126.84 214.352 127.496 214.592C128.168 214.816 128.712 215.16 129.128 215.624C129.56 216.072 129.776 216.728 129.776 217.592C129.792 218.664 129.384 219.552 128.552 220.256C127.736 220.944 126.624 221.288 125.216 221.288ZM139.128 221V204.2H145.032C146.216 204.2 147.192 204.392 147.96 204.776C148.744 205.144 149.328 205.656 149.712 206.312C150.096 206.952 150.288 207.672 150.288 208.472C150.288 209.56 149.992 210.416 149.4 211.04C148.824 211.664 148.128 212.096 147.312 212.336C147.936 212.448 148.504 212.696 149.016 213.08C149.528 213.464 149.928 213.944 150.216 214.52C150.52 215.096 150.672 215.728 150.672 216.416C150.672 217.264 150.464 218.04 150.048 218.744C149.632 219.432 149.016 219.984 148.2 220.4C147.384 220.8 146.392 221 145.224 221H139.128ZM141.144 211.544H144.888C145.96 211.544 146.784 211.296 147.36 210.8C147.936 210.288 148.224 209.584 148.224 208.688C148.224 207.84 147.936 207.16 147.36 206.648C146.8 206.136 145.952 205.88 144.816 205.88H141.144V211.544ZM141.144 219.32H145.008C146.16 219.32 147.048 219.056 147.672 218.528C148.296 217.984 148.608 217.232 148.608 216.272C148.608 215.328 148.28 214.576 147.624 214.016C146.968 213.44 146.08 213.152 144.96 213.152H141.144V219.32ZM153.445 221V209.096H155.269L155.437 211.376C155.805 210.592 156.365 209.968 157.117 209.504C157.869 209.04 158.797 208.808 159.901 208.808V210.92H159.349C158.645 210.92 157.997 211.048 157.405 211.304C156.813 211.544 156.341 211.96 155.989 212.552C155.637 213.144 155.461 213.96 155.461 215V221H153.445ZM167.143 221.288C166.023 221.288 165.015 221.032 164.119 220.52C163.223 220.008 162.511 219.288 161.983 218.36C161.471 217.416 161.215 216.312 161.215 215.048C161.215 213.784 161.479 212.688 162.007 211.76C162.535 210.816 163.247 210.088 164.143 209.576C165.055 209.064 166.071 208.808 167.191 208.808C168.311 208.808 169.319 209.064 170.215 209.576C171.111 210.088 171.815 210.816 172.327 211.76C172.855 212.688 173.119 213.784 173.119 215.048C173.119 216.312 172.855 217.416 172.327 218.36C171.799 219.288 171.079 220.008 170.167 220.52C169.271 221.032 168.263 221.288 167.143 221.288ZM167.143 219.56C167.831 219.56 168.471 219.392 169.063 219.056C169.655 218.72 170.135 218.216 170.503 217.544C170.871 216.872 171.055 216.04 171.055 215.048C171.055 214.056 170.871 213.224 170.503 212.552C170.151 211.88 169.679 211.376 169.087 211.04C168.495 210.704 167.863 210.536 167.191 210.536C166.503 210.536 165.863 210.704 165.271 211.04C164.679 211.376 164.199 211.88 163.831 212.552C163.463 213.224 163.279 214.056 163.279 215.048C163.279 216.04 163.463 216.872 163.831 217.544C164.199 218.216 164.671 218.72 165.247 219.056C165.839 219.392 166.471 219.56 167.143 219.56ZM177.876 221L174.396 209.096H176.412L178.932 218.432L181.716 209.096H183.996L186.804 218.432L189.3 209.096H191.34L187.86 221H185.796L182.868 211.184L179.94 221H177.876ZM193.57 221V209.096H195.394L195.514 211.232C195.898 210.48 196.45 209.888 197.17 209.456C197.89 209.024 198.706 208.808 199.618 208.808C201.026 208.808 202.146 209.24 202.978 210.104C203.826 210.952 204.25 212.264 204.25 214.04V221H202.234V214.256C202.234 211.776 201.21 210.536 199.162 210.536C198.138 210.536 197.282 210.912 196.594 211.664C195.922 212.4 195.586 213.456 195.586 214.832V221H193.57Z" fill="white" fill-opacity="0.7"/>
<g clip-path="url(#clip3_2_217)">
<path d="M151.013 67.6975L155.163 70.2075C155.923 70.6675 156.853 69.9875 156.653 69.1275L155.553 64.4075L159.223 61.2275C159.893 60.6475 159.533 59.5475 158.653 59.4775L153.823 59.0675L151.933 54.6075C151.593 53.7975 150.433 53.7975 150.093 54.6075L148.203 59.0575L143.373 59.4675C142.493 59.5375 142.133 60.6375 142.803 61.2175L146.473 64.3975L145.373 69.1175C145.173 69.9775 146.103 70.6575 146.863 70.1975L151.013 67.6975Z" fill="#FCFF51"/>
</g>
<g clip-path="url(#clip4_2_217)">
<path d="M59.0126 67.6975L63.1626 70.2075C63.9226 70.6675 64.8526 69.9875 64.6526 69.1275L63.5526 64.4075L67.2226 61.2275C67.8926 60.6475 67.5326 59.5475 66.6526 59.4775L61.8226 59.0675L59.9326 54.6075C59.5926 53.7975 58.4327 53.7975 58.0926 54.6075L56.2026 59.0575L51.3726 59.4675C50.4926 59.5375 50.1326 60.6375 50.8026 61.2175L54.4726 64.3975L53.3726 69.1175C53.1726 69.9775 54.1026 70.6575 54.8626 70.1975L59.0126 67.6975Z" fill="#FCFF51"/>
</g>
<defs>
<clipPath id="clip0_2_217">
<rect width="18" height="17" fill="white" transform="translate(73 54)"/>
</clipPath>
<clipPath id="clip1_2_217">
<rect width="18" height="17" fill="white" transform="translate(119 54)"/>
</clipPath>
<clipPath id="clip2_2_217">
<rect width="18" height="17" fill="white" transform="translate(96 54)"/>
</clipPath>
<clipPath id="clip3_2_217">
<rect width="18" height="17" fill="white" transform="translate(142 54)"/>
</clipPath>
<clipPath id="clip4_2_217">
<rect width="18" height="17" fill="white" transform="translate(50 54)"/>
</clipPath>
</defs>
</svg>
