<svg width="423" height="364" viewBox="0 0 423 364" fill="none" xmlns="http://www.w3.org/2000/svg">
<rect width="423" height="364" rx="32" fill="black"/>
<g clip-path="url(#clip0_2_259)">
<path d="M82.0126 67.6975L86.1626 70.2075C86.9226 70.6675 87.8526 69.9875 87.6526 69.1275L86.5526 64.4075L90.2226 61.2275C90.8926 60.6475 90.5326 59.5475 89.6526 59.4775L84.8226 59.0675L82.9326 54.6075C82.5926 53.7975 81.4327 53.7975 81.0926 54.6075L79.2026 59.0575L74.3726 59.4675C73.4926 59.5375 73.1326 60.6375 73.8026 61.2175L77.4726 64.3975L76.3726 69.1175C76.1726 69.9775 77.1026 70.6575 77.8626 70.1975L82.0126 67.6975Z" fill="#FCFF51"/>
</g>
<g clip-path="url(#clip1_2_259)">
<path d="M128.013 67.6975L132.163 70.2075C132.923 70.6675 133.853 69.9875 133.653 69.1275L132.553 64.4075L136.223 61.2275C136.893 60.6475 136.533 59.5475 135.653 59.4775L130.823 59.0675L128.933 54.6075C128.593 53.7975 127.433 53.7975 127.093 54.6075L125.203 59.0575L120.373 59.4675C119.493 59.5375 119.133 60.6375 119.803 61.2175L123.473 64.3975L122.373 69.1175C122.173 69.9775 123.103 70.6575 123.863 70.1975L128.013 67.6975Z" fill="#FCFF51"/>
</g>
<path d="M52.664 126V100.8H55.688V126H52.664ZM59.5552 108.828L61.6432 100.8H65.0272L61.7152 108.828H59.5552ZM73.6633 126L66.8953 108.144H70.0633L75.4273 123.084L80.8273 108.144H83.9233L77.1553 126H73.6633ZM94.4026 126.432C92.6986 126.432 91.1866 126.048 89.8666 125.28C88.5466 124.488 87.5026 123.396 86.7346 122.004C85.9906 120.612 85.6186 118.968 85.6186 117.072C85.6186 115.2 85.9906 113.568 86.7346 112.176C87.4786 110.76 88.5106 109.668 89.8306 108.9C91.1746 108.108 92.7226 107.712 94.4746 107.712C96.2026 107.712 97.6906 108.108 98.9386 108.9C100.211 109.668 101.183 110.688 101.855 111.96C102.527 113.232 102.863 114.6 102.863 116.064C102.863 116.328 102.851 116.592 102.827 116.856C102.827 117.12 102.827 117.42 102.827 117.756H88.6066C88.6786 119.124 88.9906 120.264 89.5426 121.176C90.1186 122.064 90.8266 122.736 91.6666 123.192C92.5306 123.648 93.4426 123.876 94.4026 123.876C95.6506 123.876 96.6946 123.588 97.5346 123.012C98.3746 122.436 98.9866 121.656 99.3706 120.672H102.359C101.879 122.328 100.955 123.708 99.5866 124.812C98.2426 125.892 96.5146 126.432 94.4026 126.432ZM94.4026 110.268C92.9626 110.268 91.6786 110.712 90.5506 111.6C89.4466 112.464 88.8106 113.736 88.6426 115.416H99.8746C99.8026 113.808 99.2506 112.548 98.2186 111.636C97.1866 110.724 95.9146 110.268 94.4026 110.268ZM122.914 126.432C120.802 126.432 119.122 125.796 117.874 124.524C116.626 123.228 116.002 121.248 116.002 118.584V108.144H119.026V118.26C119.026 121.98 120.55 123.84 123.598 123.84C125.158 123.84 126.442 123.288 127.45 122.184C128.482 121.056 128.998 119.46 128.998 117.396V108.144H132.022V126H129.286L129.07 122.796C128.518 123.924 127.69 124.812 126.586 125.46C125.506 126.108 124.282 126.432 122.914 126.432ZM137 133.92V108.144H139.736L140.024 111.096C140.6 110.232 141.416 109.452 142.472 108.756C143.552 108.06 144.92 107.712 146.576 107.712C148.352 107.712 149.9 108.12 151.22 108.936C152.54 109.752 153.56 110.868 154.28 112.284C155.024 113.7 155.396 115.308 155.396 117.108C155.396 118.908 155.024 120.516 154.28 121.932C153.56 123.324 152.528 124.428 151.184 125.244C149.864 126.036 148.316 126.432 146.54 126.432C145.076 126.432 143.768 126.132 142.616 125.532C141.488 124.932 140.624 124.092 140.024 123.012V133.92H137ZM146.216 123.804C147.416 123.804 148.472 123.528 149.384 122.976C150.296 122.4 151.016 121.608 151.544 120.6C152.072 119.592 152.336 118.416 152.336 117.072C152.336 115.728 152.072 114.552 151.544 113.544C151.016 112.536 150.296 111.756 149.384 111.204C148.472 110.628 147.416 110.34 146.216 110.34C145.016 110.34 143.96 110.628 143.048 111.204C142.136 111.756 141.416 112.536 140.888 113.544C140.36 114.552 140.096 115.728 140.096 117.072C140.096 118.416 140.36 119.592 140.888 120.6C141.416 121.608 142.136 122.4 143.048 122.976C143.96 123.528 145.016 123.804 146.216 123.804ZM159.605 133.92V108.144H162.341L162.629 111.096C163.205 110.232 164.021 109.452 165.077 108.756C166.157 108.06 167.525 107.712 169.181 107.712C170.957 107.712 172.505 108.12 173.825 108.936C175.145 109.752 176.165 110.868 176.885 112.284C177.629 113.7 178.001 115.308 178.001 117.108C178.001 118.908 177.629 120.516 176.885 121.932C176.165 123.324 175.133 124.428 173.789 125.244C172.469 126.036 170.921 126.432 169.145 126.432C167.681 126.432 166.373 126.132 165.221 125.532C164.093 124.932 163.229 124.092 162.629 123.012V133.92H159.605ZM168.821 123.804C170.021 123.804 171.077 123.528 171.989 122.976C172.901 122.4 173.621 121.608 174.149 120.6C174.677 119.592 174.941 118.416 174.941 117.072C174.941 115.728 174.677 114.552 174.149 113.544C173.621 112.536 172.901 111.756 171.989 111.204C171.077 110.628 170.021 110.34 168.821 110.34C167.621 110.34 166.565 110.628 165.653 111.204C164.741 111.756 164.021 112.536 163.493 113.544C162.965 114.552 162.701 115.728 162.701 117.072C162.701 118.416 162.965 119.592 163.493 120.6C164.021 121.608 164.741 122.4 165.653 122.976C166.565 123.528 167.621 123.804 168.821 123.804ZM190.239 126.432C188.535 126.432 187.023 126.048 185.703 125.28C184.383 124.488 183.339 123.396 182.571 122.004C181.827 120.612 181.455 118.968 181.455 117.072C181.455 115.2 181.827 113.568 182.571 112.176C183.315 110.76 184.347 109.668 185.667 108.9C187.011 108.108 188.559 107.712 190.311 107.712C192.039 107.712 193.527 108.108 194.775 108.9C196.047 109.668 197.019 110.688 197.691 111.96C198.363 113.232 198.699 114.6 198.699 116.064C198.699 116.328 198.687 116.592 198.663 116.856C198.663 117.12 198.663 117.42 198.663 117.756H184.443C184.515 119.124 184.827 120.264 185.379 121.176C185.955 122.064 186.663 122.736 187.503 123.192C188.367 123.648 189.279 123.876 190.239 123.876C191.487 123.876 192.531 123.588 193.371 123.012C194.211 122.436 194.823 121.656 195.207 120.672H198.195C197.715 122.328 196.791 123.708 195.423 124.812C194.079 125.892 192.351 126.432 190.239 126.432ZM190.239 110.268C188.799 110.268 187.515 110.712 186.387 111.6C185.283 112.464 184.647 113.736 184.479 115.416H195.711C195.639 113.808 195.087 112.548 194.055 111.636C193.023 110.724 191.751 110.268 190.239 110.268ZM210.807 126.432C209.031 126.432 207.471 126.024 206.127 125.208C204.807 124.392 203.775 123.276 203.031 121.86C202.311 120.444 201.951 118.836 201.951 117.036C201.951 115.236 202.323 113.64 203.067 112.248C203.811 110.832 204.843 109.728 206.163 108.936C207.483 108.12 209.043 107.712 210.843 107.712C212.307 107.712 213.603 108.012 214.731 108.612C215.859 109.212 216.735 110.052 217.359 111.132V100.08H220.383V126H217.647L217.359 123.048C216.783 123.912 215.955 124.692 214.875 125.388C213.795 126.084 212.439 126.432 210.807 126.432ZM211.131 123.804C212.331 123.804 213.387 123.528 214.299 122.976C215.235 122.4 215.955 121.608 216.459 120.6C216.987 119.592 217.251 118.416 217.251 117.072C217.251 115.728 216.987 114.552 216.459 113.544C215.955 112.536 215.235 111.756 214.299 111.204C213.387 110.628 212.331 110.34 211.131 110.34C209.955 110.34 208.899 110.628 207.963 111.204C207.051 111.756 206.331 112.536 205.803 113.544C205.299 114.552 205.047 115.728 205.047 117.072C205.047 118.416 205.299 119.592 205.803 120.6C206.331 121.608 207.051 122.4 207.963 122.976C208.899 123.528 209.955 123.804 211.131 123.804ZM234.839 126V108.144H237.575L237.791 110.736C238.367 109.776 239.135 109.032 240.095 108.504C241.055 107.976 242.135 107.712 243.335 107.712C244.751 107.712 245.963 108 246.971 108.576C248.003 109.152 248.795 110.028 249.347 111.204C249.971 110.124 250.823 109.272 251.903 108.648C253.007 108.024 254.195 107.712 255.467 107.712C257.603 107.712 259.307 108.36 260.579 109.656C261.851 110.928 262.487 112.896 262.487 115.56V126H259.499V115.884C259.499 114.036 259.127 112.644 258.383 111.708C257.639 110.772 256.571 110.304 255.179 110.304C253.739 110.304 252.539 110.868 251.579 111.996C250.643 113.1 250.175 114.684 250.175 116.748V126H247.151V115.884C247.151 114.036 246.779 112.644 246.035 111.708C245.291 110.772 244.223 110.304 242.831 110.304C241.415 110.304 240.227 110.868 239.267 111.996C238.331 113.1 237.863 114.684 237.863 116.748V126H234.839ZM268.459 133.92L272.887 124.272H271.843L264.751 108.144H268.027L273.931 122.04L280.195 108.144H283.327L271.627 133.92H268.459ZM59.54 163.384C58.532 163.384 57.608 163.252 56.768 162.988L54.968 164.68C55.232 164.872 55.556 165.04 55.94 165.184C56.348 165.304 56.924 165.424 57.668 165.544C58.412 165.64 59.456 165.748 60.8 165.868C63.2 166.036 64.916 166.588 65.948 167.524C66.98 168.46 67.496 169.684 67.496 171.196C67.496 172.228 67.208 173.212 66.632 174.148C66.08 175.084 65.216 175.852 64.04 176.452C62.888 177.052 61.4 177.352 59.576 177.352C57.968 177.352 56.54 177.136 55.292 176.704C54.044 176.296 53.072 175.66 52.376 174.796C51.68 173.956 51.332 172.888 51.332 171.592C51.332 170.92 51.512 170.188 51.872 169.396C52.232 168.628 52.904 167.896 53.888 167.2C53.36 166.984 52.904 166.756 52.52 166.516C52.16 166.252 51.824 165.964 51.512 165.652V164.824L54.572 161.8C53.156 160.6 52.448 159.016 52.448 157.048C52.448 155.872 52.724 154.804 53.276 153.844C53.828 152.884 54.632 152.128 55.688 151.576C56.744 151 58.028 150.712 59.54 150.712C60.572 150.712 61.508 150.856 62.348 151.144H68.936V153.412L65.588 153.556C66.284 154.564 66.632 155.728 66.632 157.048C66.632 158.224 66.344 159.292 65.768 160.252C65.216 161.212 64.412 161.98 63.356 162.556C62.324 163.108 61.052 163.384 59.54 163.384ZM59.54 160.9C60.812 160.9 61.82 160.576 62.564 159.928C63.332 159.256 63.716 158.296 63.716 157.048C63.716 155.824 63.332 154.888 62.564 154.24C61.82 153.568 60.812 153.232 59.54 153.232C58.244 153.232 57.212 153.568 56.444 154.24C55.7 154.888 55.328 155.824 55.328 157.048C55.328 158.296 55.7 159.256 56.444 159.928C57.212 160.576 58.244 160.9 59.54 160.9ZM54.284 171.304C54.284 172.504 54.788 173.392 55.796 173.968C56.804 174.568 58.064 174.868 59.576 174.868C61.064 174.868 62.252 174.544 63.14 173.896C64.052 173.248 64.508 172.384 64.508 171.304C64.508 170.536 64.196 169.864 63.572 169.288C62.948 168.736 61.796 168.412 60.116 168.316C58.796 168.22 57.656 168.1 56.696 167.956C55.712 168.484 55.064 169.048 54.752 169.648C54.44 170.272 54.284 170.824 54.284 171.304ZM78.2873 169.432C76.7993 169.432 75.5633 169.18 74.5793 168.676C73.5953 168.172 72.8633 167.5 72.3833 166.66C71.9033 165.82 71.6633 164.908 71.6633 163.924C71.6633 162.1 72.3593 160.696 73.7513 159.712C75.1433 158.728 77.0393 158.236 79.4393 158.236H84.2633V158.02C84.2633 156.46 83.8553 155.284 83.0393 154.492C82.2233 153.676 81.1313 153.268 79.7633 153.268C78.5873 153.268 77.5673 153.568 76.7033 154.168C75.8633 154.744 75.3353 155.596 75.1193 156.724H72.0233C72.1433 155.428 72.5753 154.336 73.3193 153.448C74.0873 152.56 75.0353 151.888 76.1633 151.432C77.2913 150.952 78.4913 150.712 79.7633 150.712C82.2593 150.712 84.1313 151.384 85.3793 152.728C86.6513 154.048 87.2873 155.812 87.2873 158.02V169H84.5873L84.4073 165.796C83.9033 166.804 83.1593 167.668 82.1753 168.388C81.2153 169.084 79.9193 169.432 78.2873 169.432ZM78.7553 166.876C79.9073 166.876 80.8913 166.576 81.7073 165.976C82.5473 165.376 83.1833 164.596 83.6153 163.636C84.0473 162.676 84.2633 161.668 84.2633 160.612V160.576H79.6913C77.9153 160.576 76.6553 160.888 75.9113 161.512C75.1913 162.112 74.8313 162.868 74.8313 163.78C74.8313 164.716 75.1673 165.472 75.8393 166.048C76.5353 166.6 77.5073 166.876 78.7553 166.876ZM91.8238 169V151.144H94.5598L94.7758 153.736C95.3518 152.776 96.1198 152.032 97.0798 151.504C98.0398 150.976 99.1198 150.712 100.32 150.712C101.736 150.712 102.948 151 103.956 151.576C104.988 152.152 105.78 153.028 106.332 154.204C106.956 153.124 107.808 152.272 108.888 151.648C109.992 151.024 111.18 150.712 112.452 150.712C114.588 150.712 116.292 151.36 117.564 152.656C118.836 153.928 119.472 155.896 119.472 158.56V169H116.484V158.884C116.484 157.036 116.112 155.644 115.368 154.708C114.624 153.772 113.556 153.304 112.164 153.304C110.724 153.304 109.524 153.868 108.564 154.996C107.628 156.1 107.16 157.684 107.16 159.748V169H104.136V158.884C104.136 157.036 103.764 155.644 103.02 154.708C102.276 153.772 101.208 153.304 99.8158 153.304C98.3998 153.304 97.2118 153.868 96.2518 154.996C95.3158 156.1 94.8478 157.684 94.8478 159.748V169H91.8238ZM132.055 169.432C130.351 169.432 128.839 169.048 127.519 168.28C126.199 167.488 125.155 166.396 124.387 165.004C123.643 163.612 123.271 161.968 123.271 160.072C123.271 158.2 123.643 156.568 124.387 155.176C125.131 153.76 126.163 152.668 127.483 151.9C128.827 151.108 130.375 150.712 132.127 150.712C133.855 150.712 135.343 151.108 136.591 151.9C137.863 152.668 138.835 153.688 139.507 154.96C140.179 156.232 140.515 157.6 140.515 159.064C140.515 159.328 140.503 159.592 140.479 159.856C140.479 160.12 140.479 160.42 140.479 160.756H126.259C126.331 162.124 126.643 163.264 127.195 164.176C127.771 165.064 128.479 165.736 129.319 166.192C130.183 166.648 131.095 166.876 132.055 166.876C133.303 166.876 134.347 166.588 135.187 166.012C136.027 165.436 136.639 164.656 137.023 163.672H140.011C139.531 165.328 138.607 166.708 137.239 167.812C135.895 168.892 134.167 169.432 132.055 169.432ZM132.055 153.268C130.615 153.268 129.331 153.712 128.203 154.6C127.099 155.464 126.463 156.736 126.295 158.416H137.527C137.455 156.808 136.903 155.548 135.871 154.636C134.839 153.724 133.567 153.268 132.055 153.268ZM162.258 169.432C160.554 169.432 159.018 169.048 157.65 168.28C156.306 167.488 155.238 166.396 154.446 165.004C153.678 163.588 153.294 161.944 153.294 160.072C153.294 158.2 153.678 156.568 154.446 155.176C155.238 153.76 156.306 152.668 157.65 151.9C159.018 151.108 160.554 150.712 162.258 150.712C164.37 150.712 166.146 151.264 167.586 152.368C169.05 153.472 169.974 154.948 170.358 156.796H167.262C167.022 155.692 166.434 154.84 165.498 154.24C164.562 153.616 163.47 153.304 162.222 153.304C161.214 153.304 160.266 153.556 159.378 154.06C158.49 154.564 157.77 155.32 157.218 156.328C156.666 157.336 156.39 158.584 156.39 160.072C156.39 161.56 156.666 162.808 157.218 163.816C157.77 164.824 158.49 165.592 159.378 166.12C160.266 166.624 161.214 166.876 162.222 166.876C163.47 166.876 164.562 166.576 165.498 165.976C166.434 165.352 167.022 164.476 167.262 163.348H170.358C169.998 165.148 169.086 166.612 167.622 167.74C166.158 168.868 164.37 169.432 162.258 169.432ZM182.718 169.432C181.038 169.432 179.526 169.048 178.182 168.28C176.838 167.512 175.77 166.432 174.978 165.04C174.21 163.624 173.826 161.968 173.826 160.072C173.826 158.176 174.222 156.532 175.014 155.14C175.806 153.724 176.874 152.632 178.218 151.864C179.586 151.096 181.11 150.712 182.79 150.712C184.47 150.712 185.982 151.096 187.326 151.864C188.67 152.632 189.726 153.724 190.494 155.14C191.286 156.532 191.682 158.176 191.682 160.072C191.682 161.968 191.286 163.624 190.494 165.04C189.702 166.432 188.622 167.512 187.254 168.28C185.91 169.048 184.398 169.432 182.718 169.432ZM182.718 166.84C183.75 166.84 184.71 166.588 185.598 166.084C186.486 165.58 187.206 164.824 187.758 163.816C188.31 162.808 188.586 161.56 188.586 160.072C188.586 158.584 188.31 157.336 187.758 156.328C187.23 155.32 186.522 154.564 185.634 154.06C184.746 153.556 183.798 153.304 182.79 153.304C181.758 153.304 180.798 153.556 179.91 154.06C179.022 154.564 178.302 155.32 177.75 156.328C177.198 157.336 176.922 158.584 176.922 160.072C176.922 161.56 177.198 162.808 177.75 163.816C178.302 164.824 179.01 165.58 179.874 166.084C180.762 166.588 181.71 166.84 182.718 166.84ZM195.886 169V151.144H198.622L198.802 154.348C199.378 153.22 200.206 152.332 201.286 151.684C202.366 151.036 203.59 150.712 204.958 150.712C207.07 150.712 208.75 151.36 209.998 152.656C211.27 153.928 211.906 155.896 211.906 158.56V169H208.882V158.884C208.882 155.164 207.346 153.304 204.274 153.304C202.738 153.304 201.454 153.868 200.422 154.996C199.414 156.1 198.91 157.684 198.91 159.748V169H195.886ZM223.328 169.432C221.192 169.432 219.416 168.892 218 167.812C216.584 166.732 215.756 165.268 215.516 163.42H218.612C218.804 164.356 219.296 165.172 220.088 165.868C220.904 166.54 221.996 166.876 223.364 166.876C224.636 166.876 225.572 166.612 226.172 166.084C226.772 165.532 227.072 164.884 227.072 164.14C227.072 163.06 226.676 162.34 225.884 161.98C225.116 161.62 224.024 161.296 222.608 161.008C221.648 160.816 220.688 160.54 219.728 160.18C218.768 159.82 217.964 159.316 217.316 158.668C216.668 157.996 216.344 157.12 216.344 156.04C216.344 154.48 216.92 153.208 218.072 152.224C219.248 151.216 220.832 150.712 222.824 150.712C224.72 150.712 226.268 151.192 227.468 152.152C228.692 153.088 229.4 154.432 229.592 156.184H226.604C226.484 155.272 226.088 154.564 225.416 154.06C224.768 153.532 223.892 153.268 222.788 153.268C221.708 153.268 220.868 153.496 220.268 153.952C219.692 154.408 219.404 155.008 219.404 155.752C219.404 156.472 219.776 157.036 220.52 157.444C221.288 157.852 222.32 158.2 223.616 158.488C224.72 158.728 225.764 159.028 226.748 159.388C227.756 159.724 228.572 160.24 229.196 160.936C229.844 161.608 230.168 162.592 230.168 163.888C230.192 165.496 229.58 166.828 228.332 167.884C227.108 168.916 225.44 169.432 223.328 169.432ZM236.324 147.184C235.724 147.184 235.22 146.992 234.812 146.608C234.428 146.2 234.236 145.696 234.236 145.096C234.236 144.52 234.428 144.04 234.812 143.656C235.22 143.272 235.724 143.08 236.324 143.08C236.9 143.08 237.392 143.272 237.8 143.656C238.208 144.04 238.412 144.52 238.412 145.096C238.412 145.696 238.208 146.2 237.8 146.608C237.392 146.992 236.9 147.184 236.324 147.184ZM234.812 169V151.144H237.836V169H234.812ZM251.201 169.432C249.425 169.432 247.865 169.024 246.521 168.208C245.201 167.392 244.169 166.276 243.425 164.86C242.705 163.444 242.345 161.836 242.345 160.036C242.345 158.236 242.717 156.64 243.461 155.248C244.205 153.832 245.237 152.728 246.557 151.936C247.877 151.12 249.437 150.712 251.237 150.712C252.701 150.712 253.997 151.012 255.125 151.612C256.253 152.212 257.129 153.052 257.753 154.132V143.08H260.777V169H258.041L257.753 166.048C257.177 166.912 256.349 167.692 255.269 168.388C254.189 169.084 252.833 169.432 251.201 169.432ZM251.525 166.804C252.725 166.804 253.781 166.528 254.693 165.976C255.629 165.4 256.349 164.608 256.853 163.6C257.381 162.592 257.645 161.416 257.645 160.072C257.645 158.728 257.381 157.552 256.853 156.544C256.349 155.536 255.629 154.756 254.693 154.204C253.781 153.628 252.725 153.34 251.525 153.34C250.349 153.34 249.293 153.628 248.357 154.204C247.445 154.756 246.725 155.536 246.197 156.544C245.693 157.552 245.441 158.728 245.441 160.072C245.441 161.416 245.693 162.592 246.197 163.6C246.725 164.608 247.445 165.4 248.357 165.976C249.293 166.528 250.349 166.804 251.525 166.804ZM273.735 169.432C272.031 169.432 270.519 169.048 269.199 168.28C267.879 167.488 266.835 166.396 266.067 165.004C265.323 163.612 264.951 161.968 264.951 160.072C264.951 158.2 265.323 156.568 266.067 155.176C266.811 153.76 267.843 152.668 269.163 151.9C270.507 151.108 272.055 150.712 273.807 150.712C275.535 150.712 277.023 151.108 278.271 151.9C279.543 152.668 280.515 153.688 281.187 154.96C281.859 156.232 282.195 157.6 282.195 159.064C282.195 159.328 282.183 159.592 282.159 159.856C282.159 160.12 282.159 160.42 282.159 160.756H267.939C268.011 162.124 268.323 163.264 268.875 164.176C269.451 165.064 270.159 165.736 270.999 166.192C271.863 166.648 272.775 166.876 273.735 166.876C274.983 166.876 276.027 166.588 276.867 166.012C277.707 165.436 278.319 164.656 278.703 163.672H281.691C281.211 165.328 280.287 166.708 278.919 167.812C277.575 168.892 275.847 169.432 273.735 169.432ZM273.735 153.268C272.295 153.268 271.011 153.712 269.883 154.6C268.779 155.464 268.143 156.736 267.975 158.416H279.207C279.135 156.808 278.583 155.548 277.551 154.636C276.519 153.724 275.247 153.268 273.735 153.268ZM286.203 169V151.144H288.939L289.191 154.564C289.743 153.388 290.583 152.452 291.711 151.756C292.839 151.06 294.231 150.712 295.887 150.712V153.88H295.059C294.003 153.88 293.031 154.072 292.143 154.456C291.255 154.816 290.547 155.44 290.019 156.328C289.491 157.216 289.227 158.44 289.227 160V169H286.203ZM305.221 169.432C303.733 169.432 302.497 169.18 301.513 168.676C300.529 168.172 299.797 167.5 299.317 166.66C298.837 165.82 298.597 164.908 298.597 163.924C298.597 162.1 299.293 160.696 300.685 159.712C302.077 158.728 303.973 158.236 306.373 158.236H311.197V158.02C311.197 156.46 310.789 155.284 309.973 154.492C309.157 153.676 308.065 153.268 306.697 153.268C305.521 153.268 304.501 153.568 303.637 154.168C302.797 154.744 302.269 155.596 302.053 156.724H298.957C299.077 155.428 299.509 154.336 300.253 153.448C301.021 152.56 301.969 151.888 303.097 151.432C304.225 150.952 305.425 150.712 306.697 150.712C309.193 150.712 311.065 151.384 312.313 152.728C313.585 154.048 314.221 155.812 314.221 158.02V169H311.521L311.341 165.796C310.837 166.804 310.093 167.668 309.109 168.388C308.149 169.084 306.853 169.432 305.221 169.432ZM305.689 166.876C306.841 166.876 307.825 166.576 308.641 165.976C309.481 165.376 310.117 164.596 310.549 163.636C310.981 162.676 311.197 161.668 311.197 160.612V160.576H306.625C304.849 160.576 303.589 160.888 302.845 161.512C302.125 162.112 301.765 162.868 301.765 163.78C301.765 164.716 302.101 165.472 302.773 166.048C303.469 166.6 304.441 166.876 305.689 166.876ZM328.297 169.432C326.833 169.432 325.525 169.132 324.373 168.532C323.245 167.932 322.381 167.092 321.781 166.012L321.493 169H318.757V143.08H321.781V154.096C322.357 153.232 323.173 152.452 324.229 151.756C325.309 151.06 326.677 150.712 328.333 150.712C330.109 150.712 331.657 151.12 332.977 151.936C334.297 152.752 335.317 153.868 336.037 155.284C336.781 156.7 337.153 158.308 337.153 160.108C337.153 161.908 336.781 163.516 336.037 164.932C335.317 166.324 334.285 167.428 332.941 168.244C331.621 169.036 330.073 169.432 328.297 169.432ZM327.973 166.804C329.173 166.804 330.229 166.528 331.141 165.976C332.053 165.4 332.773 164.608 333.301 163.6C333.829 162.592 334.093 161.416 334.093 160.072C334.093 158.728 333.829 157.552 333.301 156.544C332.773 155.536 332.053 154.756 331.141 154.204C330.229 153.628 329.173 153.34 327.973 153.34C326.773 153.34 325.717 153.628 324.805 154.204C323.893 154.756 323.173 155.536 322.645 156.544C322.117 157.552 321.853 158.728 321.853 160.072C321.853 161.416 322.117 162.592 322.645 163.6C323.173 164.608 323.893 165.4 324.805 165.976C325.717 166.528 326.773 166.804 327.973 166.804ZM341.363 169V143.08H344.387V169H341.363ZM351.287 176.92L355.715 167.272H354.671L347.579 151.144H350.855L356.759 165.04L363.023 151.144H366.155L354.455 176.92H351.287ZM59.324 212.432C57.188 212.432 55.412 211.892 53.996 210.812C52.58 209.732 51.752 208.268 51.512 206.42H54.608C54.8 207.356 55.292 208.172 56.084 208.868C56.9 209.54 57.992 209.876 59.36 209.876C60.632 209.876 61.568 209.612 62.168 209.084C62.768 208.532 63.068 207.884 63.068 207.14C63.068 206.06 62.672 205.34 61.88 204.98C61.112 204.62 60.02 204.296 58.604 204.008C57.644 203.816 56.684 203.54 55.724 203.18C54.764 202.82 53.96 202.316 53.312 201.668C52.664 200.996 52.34 200.12 52.34 199.04C52.34 197.48 52.916 196.208 54.068 195.224C55.244 194.216 56.828 193.712 58.82 193.712C60.716 193.712 62.264 194.192 63.464 195.152C64.688 196.088 65.396 197.432 65.588 199.184H62.6C62.48 198.272 62.084 197.564 61.412 197.06C60.764 196.532 59.888 196.268 58.784 196.268C57.704 196.268 56.864 196.496 56.264 196.952C55.688 197.408 55.4 198.008 55.4 198.752C55.4 199.472 55.772 200.036 56.516 200.444C57.284 200.852 58.316 201.2 59.612 201.488C60.716 201.728 61.76 202.028 62.744 202.388C63.752 202.724 64.568 203.24 65.192 203.936C65.84 204.608 66.164 205.592 66.164 206.888C66.188 208.496 65.576 209.828 64.328 210.884C63.104 211.916 61.436 212.432 59.324 212.432ZM72.32 190.184C71.72 190.184 71.216 189.992 70.808 189.608C70.424 189.2 70.232 188.696 70.232 188.096C70.232 187.52 70.424 187.04 70.808 186.656C71.216 186.272 71.72 186.08 72.32 186.08C72.896 186.08 73.388 186.272 73.796 186.656C74.204 187.04 74.408 187.52 74.408 188.096C74.408 188.696 74.204 189.2 73.796 189.608C73.388 189.992 72.896 190.184 72.32 190.184ZM70.808 212V194.144H73.832V212H70.808ZM79.0973 212V194.144H81.8333L82.0133 197.348C82.5893 196.22 83.4173 195.332 84.4973 194.684C85.5773 194.036 86.8013 193.712 88.1693 193.712C90.2813 193.712 91.9613 194.36 93.2093 195.656C94.4813 196.928 95.1173 198.896 95.1173 201.56V212H92.0933V201.884C92.0933 198.164 90.5573 196.304 87.4853 196.304C85.9493 196.304 84.6653 196.868 83.6333 197.996C82.6253 199.1 82.1213 200.684 82.1213 202.748V212H79.0973ZM107.907 212.432C106.203 212.432 104.667 212.048 103.299 211.28C101.955 210.488 100.887 209.396 100.095 208.004C99.3268 206.588 98.9428 204.944 98.9428 203.072C98.9428 201.2 99.3268 199.568 100.095 198.176C100.887 196.76 101.955 195.668 103.299 194.9C104.667 194.108 106.203 193.712 107.907 193.712C110.019 193.712 111.795 194.264 113.235 195.368C114.699 196.472 115.623 197.948 116.007 199.796H112.911C112.671 198.692 112.083 197.84 111.147 197.24C110.211 196.616 109.119 196.304 107.871 196.304C106.863 196.304 105.915 196.556 105.027 197.06C104.139 197.564 103.419 198.32 102.867 199.328C102.315 200.336 102.039 201.584 102.039 203.072C102.039 204.56 102.315 205.808 102.867 206.816C103.419 207.824 104.139 208.592 105.027 209.12C105.915 209.624 106.863 209.876 107.871 209.876C109.119 209.876 110.211 209.576 111.147 208.976C112.083 208.352 112.671 207.476 112.911 206.348H116.007C115.647 208.148 114.735 209.612 113.271 210.74C111.807 211.868 110.019 212.432 107.907 212.432ZM128.258 212.432C126.554 212.432 125.042 212.048 123.722 211.28C122.402 210.488 121.358 209.396 120.59 208.004C119.846 206.612 119.474 204.968 119.474 203.072C119.474 201.2 119.846 199.568 120.59 198.176C121.334 196.76 122.366 195.668 123.686 194.9C125.03 194.108 126.578 193.712 128.33 193.712C130.058 193.712 131.546 194.108 132.794 194.9C134.066 195.668 135.038 196.688 135.71 197.96C136.382 199.232 136.718 200.6 136.718 202.064C136.718 202.328 136.706 202.592 136.682 202.856C136.682 203.12 136.682 203.42 136.682 203.756H122.462C122.534 205.124 122.846 206.264 123.398 207.176C123.974 208.064 124.682 208.736 125.522 209.192C126.386 209.648 127.298 209.876 128.258 209.876C129.506 209.876 130.55 209.588 131.39 209.012C132.23 208.436 132.842 207.656 133.226 206.672H136.214C135.734 208.328 134.81 209.708 133.442 210.812C132.098 211.892 130.37 212.432 128.258 212.432ZM128.258 196.268C126.818 196.268 125.534 196.712 124.406 197.6C123.302 198.464 122.666 199.736 122.498 201.416H133.73C133.658 199.808 133.106 198.548 132.074 197.636C131.042 196.724 129.77 196.268 128.258 196.268ZM150.434 212V186.8H153.458V212H150.434ZM174.988 212.432C172.852 212.432 171.076 211.892 169.66 210.812C168.244 209.732 167.416 208.268 167.176 206.42H170.272C170.464 207.356 170.956 208.172 171.748 208.868C172.564 209.54 173.656 209.876 175.024 209.876C176.296 209.876 177.232 209.612 177.832 209.084C178.432 208.532 178.732 207.884 178.732 207.14C178.732 206.06 178.336 205.34 177.544 204.98C176.776 204.62 175.684 204.296 174.268 204.008C173.308 203.816 172.348 203.54 171.388 203.18C170.428 202.82 169.624 202.316 168.976 201.668C168.328 200.996 168.004 200.12 168.004 199.04C168.004 197.48 168.58 196.208 169.732 195.224C170.908 194.216 172.492 193.712 174.484 193.712C176.38 193.712 177.928 194.192 179.128 195.152C180.352 196.088 181.06 197.432 181.252 199.184H178.264C178.144 198.272 177.748 197.564 177.076 197.06C176.428 196.532 175.552 196.268 174.448 196.268C173.368 196.268 172.528 196.496 171.928 196.952C171.352 197.408 171.064 198.008 171.064 198.752C171.064 199.472 171.436 200.036 172.18 200.444C172.948 200.852 173.98 201.2 175.276 201.488C176.38 201.728 177.424 202.028 178.408 202.388C179.416 202.724 180.232 203.24 180.856 203.936C181.504 204.608 181.828 205.592 181.828 206.888C181.852 208.496 181.24 209.828 179.992 210.884C178.768 211.916 177.1 212.432 174.988 212.432ZM192.395 212C190.763 212 189.479 211.604 188.543 210.812C187.607 210.02 187.139 208.592 187.139 206.528V196.7H184.043V194.144H187.139L187.535 189.86H190.163V194.144H195.419V196.7H190.163V206.528C190.163 207.656 190.391 208.424 190.847 208.832C191.303 209.216 192.107 209.408 193.259 209.408H195.131V212H192.395ZM205.201 212.432C203.713 212.432 202.477 212.18 201.493 211.676C200.509 211.172 199.777 210.5 199.297 209.66C198.817 208.82 198.577 207.908 198.577 206.924C198.577 205.1 199.273 203.696 200.665 202.712C202.057 201.728 203.953 201.236 206.353 201.236H211.177V201.02C211.177 199.46 210.769 198.284 209.953 197.492C209.137 196.676 208.045 196.268 206.677 196.268C205.501 196.268 204.481 196.568 203.617 197.168C202.777 197.744 202.249 198.596 202.033 199.724H198.937C199.057 198.428 199.489 197.336 200.233 196.448C201.001 195.56 201.949 194.888 203.077 194.432C204.205 193.952 205.405 193.712 206.677 193.712C209.173 193.712 211.045 194.384 212.293 195.728C213.565 197.048 214.201 198.812 214.201 201.02V212H211.501L211.321 208.796C210.817 209.804 210.073 210.668 209.089 211.388C208.129 212.084 206.833 212.432 205.201 212.432ZM205.669 209.876C206.821 209.876 207.805 209.576 208.621 208.976C209.461 208.376 210.097 207.596 210.529 206.636C210.961 205.676 211.177 204.668 211.177 203.612V203.576H206.605C204.829 203.576 203.569 203.888 202.825 204.512C202.105 205.112 201.745 205.868 201.745 206.78C201.745 207.716 202.081 208.472 202.753 209.048C203.449 209.6 204.421 209.876 205.669 209.876ZM218.738 212V194.144H221.474L221.726 197.564C222.278 196.388 223.118 195.452 224.246 194.756C225.374 194.06 226.766 193.712 228.422 193.712V196.88H227.594C226.538 196.88 225.566 197.072 224.678 197.456C223.79 197.816 223.082 198.44 222.554 199.328C222.026 200.216 221.762 201.44 221.762 203V212H218.738ZM238.872 212C237.24 212 235.956 211.604 235.02 210.812C234.084 210.02 233.616 208.592 233.616 206.528V196.7H230.52V194.144H233.616L234.012 189.86H236.64V194.144H241.896V196.7H236.64V206.528C236.64 207.656 236.868 208.424 237.324 208.832C237.78 209.216 238.584 209.408 239.736 209.408H241.608V212H238.872ZM253.274 212.432C251.57 212.432 250.058 212.048 248.738 211.28C247.418 210.488 246.374 209.396 245.606 208.004C244.862 206.612 244.49 204.968 244.49 203.072C244.49 201.2 244.862 199.568 245.606 198.176C246.35 196.76 247.382 195.668 248.702 194.9C250.046 194.108 251.594 193.712 253.346 193.712C255.074 193.712 256.562 194.108 257.81 194.9C259.082 195.668 260.054 196.688 260.726 197.96C261.398 199.232 261.734 200.6 261.734 202.064C261.734 202.328 261.722 202.592 261.698 202.856C261.698 203.12 261.698 203.42 261.698 203.756H247.478C247.55 205.124 247.862 206.264 248.414 207.176C248.99 208.064 249.698 208.736 250.538 209.192C251.402 209.648 252.314 209.876 253.274 209.876C254.522 209.876 255.566 209.588 256.406 209.012C257.246 208.436 257.858 207.656 258.242 206.672H261.23C260.75 208.328 259.826 209.708 258.458 210.812C257.114 211.892 255.386 212.432 253.274 212.432ZM253.274 196.268C251.834 196.268 250.55 196.712 249.422 197.6C248.318 198.464 247.682 199.736 247.514 201.416H258.746C258.674 199.808 258.122 198.548 257.09 197.636C256.058 196.724 254.786 196.268 253.274 196.268ZM273.842 212.432C272.066 212.432 270.506 212.024 269.162 211.208C267.842 210.392 266.81 209.276 266.066 207.86C265.346 206.444 264.986 204.836 264.986 203.036C264.986 201.236 265.358 199.64 266.102 198.248C266.846 196.832 267.878 195.728 269.198 194.936C270.518 194.12 272.078 193.712 273.878 193.712C275.342 193.712 276.638 194.012 277.766 194.612C278.894 195.212 279.77 196.052 280.394 197.132V186.08H283.418V212H280.682L280.394 209.048C279.818 209.912 278.99 210.692 277.91 211.388C276.83 212.084 275.474 212.432 273.842 212.432ZM274.166 209.804C275.366 209.804 276.422 209.528 277.334 208.976C278.27 208.4 278.99 207.608 279.494 206.6C280.022 205.592 280.286 204.416 280.286 203.072C280.286 201.728 280.022 200.552 279.494 199.544C278.99 198.536 278.27 197.756 277.334 197.204C276.422 196.628 275.366 196.34 274.166 196.34C272.99 196.34 271.934 196.628 270.998 197.204C270.086 197.756 269.366 198.536 268.838 199.544C268.334 200.552 268.082 201.728 268.082 203.072C268.082 204.416 268.334 205.592 268.838 206.6C269.366 207.608 270.086 208.4 270.998 208.976C271.934 209.528 272.99 209.804 274.166 209.804ZM52.484 255V229.08H55.508V255H52.484ZM62.3005 233.184C61.7005 233.184 61.1965 232.992 60.7885 232.608C60.4045 232.2 60.2125 231.696 60.2125 231.096C60.2125 230.52 60.4045 230.04 60.7885 229.656C61.1965 229.272 61.7005 229.08 62.3005 229.08C62.8765 229.08 63.3685 229.272 63.7765 229.656C64.1845 230.04 64.3885 230.52 64.3885 231.096C64.3885 231.696 64.1845 232.2 63.7765 232.608C63.3685 232.992 62.8765 233.184 62.3005 233.184ZM60.7885 255V237.144H63.8125V255H60.7885ZM75.9178 255.432C73.7818 255.432 72.0058 254.892 70.5898 253.812C69.1738 252.732 68.3458 251.268 68.1058 249.42H71.2018C71.3938 250.356 71.8858 251.172 72.6778 251.868C73.4938 252.54 74.5858 252.876 75.9538 252.876C77.2258 252.876 78.1618 252.612 78.7618 252.084C79.3618 251.532 79.6618 250.884 79.6618 250.14C79.6618 249.06 79.2658 248.34 78.4738 247.98C77.7058 247.62 76.6138 247.296 75.1978 247.008C74.2378 246.816 73.2778 246.54 72.3178 246.18C71.3578 245.82 70.5538 245.316 69.9058 244.668C69.2578 243.996 68.9338 243.12 68.9338 242.04C68.9338 240.48 69.5098 239.208 70.6618 238.224C71.8378 237.216 73.4218 236.712 75.4138 236.712C77.3098 236.712 78.8578 237.192 80.0578 238.152C81.2818 239.088 81.9898 240.432 82.1818 242.184H79.1938C79.0738 241.272 78.6778 240.564 78.0058 240.06C77.3578 239.532 76.4818 239.268 75.3778 239.268C74.2978 239.268 73.4578 239.496 72.8578 239.952C72.2818 240.408 71.9938 241.008 71.9938 241.752C71.9938 242.472 72.3658 243.036 73.1098 243.444C73.8778 243.852 74.9098 244.2 76.2058 244.488C77.3098 244.728 78.3538 245.028 79.3378 245.388C80.3458 245.724 81.1618 246.24 81.7858 246.936C82.4338 247.608 82.7578 248.592 82.7578 249.888C82.7818 251.496 82.1698 252.828 80.9218 253.884C79.6978 254.916 78.0298 255.432 75.9178 255.432ZM93.3252 255C91.6932 255 90.4092 254.604 89.4732 253.812C88.5372 253.02 88.0692 251.592 88.0692 249.528V239.7H84.9732V237.144H88.0692L88.4652 232.86H91.0932V237.144H96.3492V239.7H91.0932V249.528C91.0932 250.656 91.3212 251.424 91.7772 251.832C92.2332 252.216 93.0372 252.408 94.1892 252.408H96.0612V255H93.3252ZM107.727 255.432C106.023 255.432 104.511 255.048 103.191 254.28C101.871 253.488 100.827 252.396 100.059 251.004C99.3148 249.612 98.9428 247.968 98.9428 246.072C98.9428 244.2 99.3148 242.568 100.059 241.176C100.803 239.76 101.835 238.668 103.155 237.9C104.499 237.108 106.047 236.712 107.799 236.712C109.527 236.712 111.015 237.108 112.263 237.9C113.535 238.668 114.507 239.688 115.179 240.96C115.851 242.232 116.187 243.6 116.187 245.064C116.187 245.328 116.175 245.592 116.151 245.856C116.151 246.12 116.151 246.42 116.151 246.756H101.931C102.003 248.124 102.315 249.264 102.867 250.176C103.443 251.064 104.151 251.736 104.991 252.192C105.855 252.648 106.767 252.876 107.727 252.876C108.975 252.876 110.019 252.588 110.859 252.012C111.699 251.436 112.311 250.656 112.695 249.672H115.683C115.203 251.328 114.279 252.708 112.911 253.812C111.567 254.892 109.839 255.432 107.727 255.432ZM107.727 239.268C106.287 239.268 105.003 239.712 103.875 240.6C102.771 241.464 102.135 242.736 101.967 244.416H113.199C113.127 242.808 112.575 241.548 111.543 240.636C110.511 239.724 109.239 239.268 107.727 239.268ZM120.195 255V237.144H122.931L123.111 240.348C123.687 239.22 124.515 238.332 125.595 237.684C126.675 237.036 127.899 236.712 129.267 236.712C131.379 236.712 133.059 237.36 134.307 238.656C135.579 239.928 136.215 241.896 136.215 244.56V255H133.191V244.884C133.191 241.164 131.655 239.304 128.583 239.304C127.047 239.304 125.763 239.868 124.731 240.996C123.723 242.1 123.219 243.684 123.219 245.748V255H120.195ZM142.633 233.184C142.033 233.184 141.529 232.992 141.121 232.608C140.737 232.2 140.545 231.696 140.545 231.096C140.545 230.52 140.737 230.04 141.121 229.656C141.529 229.272 142.033 229.08 142.633 229.08C143.209 229.08 143.701 229.272 144.109 229.656C144.517 230.04 144.721 230.52 144.721 231.096C144.721 231.696 144.517 232.2 144.109 232.608C143.701 232.992 143.209 233.184 142.633 233.184ZM141.121 255V237.144H144.145V255H141.121ZM149.41 255V237.144H152.146L152.326 240.348C152.902 239.22 153.73 238.332 154.81 237.684C155.89 237.036 157.114 236.712 158.482 236.712C160.594 236.712 162.274 237.36 163.522 238.656C164.794 239.928 165.43 241.896 165.43 244.56V255H162.406V244.884C162.406 241.164 160.87 239.304 157.798 239.304C156.262 239.304 154.978 239.868 153.946 240.996C152.938 242.1 152.434 243.684 152.434 245.748V255H149.41ZM177.067 249.384C176.059 249.384 175.135 249.252 174.295 248.988L172.495 250.68C172.759 250.872 173.083 251.04 173.467 251.184C173.875 251.304 174.451 251.424 175.195 251.544C175.939 251.64 176.983 251.748 178.327 251.868C180.727 252.036 182.443 252.588 183.475 253.524C184.507 254.46 185.023 255.684 185.023 257.196C185.023 258.228 184.735 259.212 184.159 260.148C183.607 261.084 182.743 261.852 181.567 262.452C180.415 263.052 178.927 263.352 177.103 263.352C175.495 263.352 174.067 263.136 172.819 262.704C171.571 262.296 170.599 261.66 169.903 260.796C169.207 259.956 168.859 258.888 168.859 257.592C168.859 256.92 169.039 256.188 169.399 255.396C169.759 254.628 170.431 253.896 171.415 253.2C170.887 252.984 170.431 252.756 170.047 252.516C169.687 252.252 169.351 251.964 169.039 251.652V250.824L172.099 247.8C170.683 246.6 169.975 245.016 169.975 243.048C169.975 241.872 170.251 240.804 170.803 239.844C171.355 238.884 172.159 238.128 173.215 237.576C174.271 237 175.555 236.712 177.067 236.712C178.099 236.712 179.035 236.856 179.875 237.144H186.463V239.412L183.115 239.556C183.811 240.564 184.159 241.728 184.159 243.048C184.159 244.224 183.871 245.292 183.295 246.252C182.743 247.212 181.939 247.98 180.883 248.556C179.851 249.108 178.579 249.384 177.067 249.384ZM177.067 246.9C178.339 246.9 179.347 246.576 180.091 245.928C180.859 245.256 181.243 244.296 181.243 243.048C181.243 241.824 180.859 240.888 180.091 240.24C179.347 239.568 178.339 239.232 177.067 239.232C175.771 239.232 174.739 239.568 173.971 240.24C173.227 240.888 172.855 241.824 172.855 243.048C172.855 244.296 173.227 245.256 173.971 245.928C174.739 246.576 175.771 246.9 177.067 246.9ZM171.811 257.304C171.811 258.504 172.315 259.392 173.323 259.968C174.331 260.568 175.591 260.868 177.103 260.868C178.591 260.868 179.779 260.544 180.667 259.896C181.579 259.248 182.035 258.384 182.035 257.304C182.035 256.536 181.723 255.864 181.099 255.288C180.475 254.736 179.323 254.412 177.643 254.316C176.323 254.22 175.183 254.1 174.223 253.956C173.239 254.484 172.591 255.048 172.279 255.648C171.967 256.272 171.811 256.824 171.811 257.304Z" fill="white"/>
<g clip-path="url(#clip2_2_259)">
<path d="M59.0126 67.6975L63.1626 70.2075C63.9226 70.6675 64.8526 69.9875 64.6526 69.1275L63.5526 64.4075L67.2226 61.2275C67.8926 60.6475 67.5326 59.5475 66.6526 59.4775L61.8226 59.0675L59.9326 54.6075C59.5926 53.7975 58.4327 53.7975 58.0926 54.6075L56.2026 59.0575L51.3726 59.4675C50.4926 59.5375 50.1326 60.6375 50.8026 61.2175L54.4726 64.3975L53.3726 69.1175C53.1726 69.9775 54.1026 70.6575 54.8626 70.1975L59.0126 67.6975Z" fill="#FCFF51"/>
</g>
<g clip-path="url(#clip3_2_259)">
<path d="M151.013 67.6975L155.163 70.2075C155.923 70.6675 156.853 69.9875 156.653 69.1275L155.553 64.4075L159.223 61.2275C159.893 60.6475 159.533 59.5475 158.653 59.4775L153.823 59.0675L151.933 54.6075C151.593 53.7975 150.433 53.7975 150.093 54.6075L148.203 59.0575L143.373 59.4675C142.493 59.5375 142.133 60.6375 142.803 61.2175L146.473 64.3975L145.373 69.1175C145.173 69.9775 146.103 70.6575 146.863 70.1975L151.013 67.6975Z" fill="#FCFF51"/>
</g>
<g clip-path="url(#clip4_2_259)">
<path d="M105.013 67.6975L109.163 70.2075C109.923 70.6675 110.853 69.9875 110.653 69.1275L109.553 64.4075L113.223 61.2275C113.893 60.6475 113.533 59.5475 112.653 59.4775L107.823 59.0675L105.933 54.6075C105.593 53.7975 104.433 53.7975 104.093 54.6075L102.203 59.0575L97.3726 59.4675C96.4926 59.5375 96.1326 60.6375 96.8026 61.2175L100.473 64.3975L99.3726 69.1175C99.1726 69.9775 100.103 70.6575 100.863 70.1975L105.013 67.6975Z" fill="#FCFF51"/>
</g>
<path d="M56.831 306.276C55.6503 306.276 54.623 306.061 53.749 305.632C52.875 305.203 52.2003 304.605 51.725 303.838C51.2497 303.071 51.012 302.182 51.012 301.17H53.036C53.036 301.799 53.1817 302.381 53.473 302.918C53.7643 303.439 54.186 303.861 54.738 304.183C55.3053 304.49 56.003 304.643 56.831 304.643C57.9197 304.643 58.763 304.382 59.361 303.861C59.959 303.34 60.258 302.688 60.258 301.906C60.258 301.262 60.12 300.748 59.844 300.365C59.568 299.966 59.1923 299.644 58.717 299.399C58.257 299.154 57.7203 298.939 57.107 298.755C56.509 298.571 55.8803 298.364 55.221 298.134C53.979 297.705 53.059 297.176 52.461 296.547C51.863 295.903 51.564 295.067 51.564 294.04C51.5487 293.181 51.748 292.422 52.162 291.763C52.576 291.088 53.1587 290.567 53.91 290.199C54.6767 289.816 55.5813 289.624 56.624 289.624C57.6513 289.624 58.5407 289.816 59.292 290.199C60.0587 290.582 60.649 291.111 61.063 291.786C61.4923 292.461 61.7147 293.227 61.73 294.086H59.706C59.706 293.641 59.591 293.204 59.361 292.775C59.131 292.33 58.7783 291.97 58.303 291.694C57.843 291.418 57.2603 291.28 56.555 291.28C55.681 291.265 54.9603 291.487 54.393 291.947C53.841 292.407 53.565 293.043 53.565 293.856C53.565 294.546 53.7567 295.075 54.14 295.443C54.5387 295.811 55.0907 296.118 55.796 296.363C56.5013 296.593 57.314 296.861 58.234 297.168C59.0007 297.444 59.6907 297.766 60.304 298.134C60.9173 298.502 61.3927 298.977 61.73 299.56C62.0827 300.143 62.259 300.886 62.259 301.791C62.259 302.558 62.0597 303.286 61.661 303.976C61.2623 304.651 60.6567 305.203 59.844 305.632C59.0467 306.061 58.0423 306.276 56.831 306.276ZM69.3919 306C68.3492 306 67.5289 305.747 66.9309 305.241C66.3329 304.735 66.0339 303.823 66.0339 302.504V296.225H64.0559V294.592H66.0339L66.2869 291.855H67.9659V294.592H71.3239V296.225H67.9659V302.504C67.9659 303.225 68.1115 303.715 68.4029 303.976C68.6942 304.221 69.2079 304.344 69.9439 304.344H71.1399V306H69.3919ZM78.593 306.276C77.5043 306.276 76.5383 306.031 75.695 305.54C74.8516 305.034 74.1846 304.336 73.694 303.447C73.2186 302.558 72.981 301.507 72.981 300.296C72.981 299.1 73.2186 298.057 73.694 297.168C74.1693 296.263 74.8286 295.566 75.672 295.075C76.5306 294.569 77.5196 294.316 78.639 294.316C79.743 294.316 80.6936 294.569 81.491 295.075C82.3036 295.566 82.9246 296.217 83.354 297.03C83.7833 297.843 83.998 298.717 83.998 299.652C83.998 299.821 83.9903 299.989 83.975 300.158C83.975 300.327 83.975 300.518 83.975 300.733H74.89C74.936 301.607 75.1353 302.335 75.488 302.918C75.856 303.485 76.3083 303.915 76.845 304.206C77.397 304.497 77.9796 304.643 78.593 304.643C79.3903 304.643 80.0573 304.459 80.594 304.091C81.1306 303.723 81.5216 303.225 81.767 302.596H83.676C83.3693 303.654 82.779 304.536 81.905 305.241C81.0463 305.931 79.9423 306.276 78.593 306.276ZM78.593 295.949C77.673 295.949 76.8526 296.233 76.132 296.8C75.4266 297.352 75.0203 298.165 74.913 299.238H82.089C82.043 298.211 81.6903 297.406 81.031 296.823C80.3716 296.24 79.559 295.949 78.593 295.949ZM89.3985 306L85.0745 294.592H87.0985L90.5255 304.137L93.9755 294.592H95.9535L91.6295 306H89.3985ZM102.649 306.276C101.56 306.276 100.594 306.031 99.7506 305.54C98.9073 305.034 98.2403 304.336 97.7496 303.447C97.2743 302.558 97.0366 301.507 97.0366 300.296C97.0366 299.1 97.2743 298.057 97.7496 297.168C98.225 296.263 98.8843 295.566 99.7276 295.075C100.586 294.569 101.575 294.316 102.695 294.316C103.799 294.316 104.749 294.569 105.547 295.075C106.359 295.566 106.98 296.217 107.41 297.03C107.839 297.843 108.054 298.717 108.054 299.652C108.054 299.821 108.046 299.989 108.031 300.158C108.031 300.327 108.031 300.518 108.031 300.733H98.9456C98.9916 301.607 99.191 302.335 99.5436 302.918C99.9116 303.485 100.364 303.915 100.901 304.206C101.453 304.497 102.035 304.643 102.649 304.643C103.446 304.643 104.113 304.459 104.65 304.091C105.186 303.723 105.577 303.225 105.823 302.596H107.732C107.425 303.654 106.835 304.536 105.961 305.241C105.102 305.931 103.998 306.276 102.649 306.276ZM102.649 295.949C101.729 295.949 100.908 296.233 100.188 296.8C99.4823 297.352 99.076 298.165 98.9686 299.238H106.145C106.099 298.211 105.746 297.406 105.087 296.823C104.427 296.24 103.615 295.949 102.649 295.949ZM110.614 306V294.592H112.362L112.477 296.639C112.845 295.918 113.374 295.351 114.064 294.937C114.754 294.523 115.536 294.316 116.41 294.316C117.76 294.316 118.833 294.73 119.63 295.558C120.443 296.371 120.849 297.628 120.849 299.33V306H118.917V299.537C118.917 297.16 117.936 295.972 115.973 295.972C114.992 295.972 114.172 296.332 113.512 297.053C112.868 297.758 112.546 298.77 112.546 300.089V306H110.614ZM129.978 306V289.9H135.636C136.771 289.9 137.706 290.084 138.442 290.452C139.194 290.805 139.753 291.295 140.121 291.924C140.489 292.537 140.673 293.227 140.673 293.994C140.673 295.037 140.39 295.857 139.822 296.455C139.27 297.053 138.603 297.467 137.821 297.697C138.419 297.804 138.964 298.042 139.454 298.41C139.945 298.778 140.328 299.238 140.604 299.79C140.896 300.342 141.041 300.948 141.041 301.607C141.041 302.42 140.842 303.163 140.443 303.838C140.045 304.497 139.454 305.026 138.672 305.425C137.89 305.808 136.94 306 135.82 306H129.978ZM131.91 296.938H135.498C136.526 296.938 137.315 296.7 137.867 296.225C138.419 295.734 138.695 295.06 138.695 294.201C138.695 293.388 138.419 292.737 137.867 292.246C137.331 291.755 136.518 291.51 135.429 291.51H131.91V296.938ZM131.91 304.39H135.613C136.717 304.39 137.568 304.137 138.166 303.631C138.764 303.11 139.063 302.389 139.063 301.469C139.063 300.564 138.749 299.844 138.12 299.307C137.492 298.755 136.641 298.479 135.567 298.479H131.91V304.39ZM143.699 306V289.44H145.631V306H143.699ZM152.593 306.276C151.642 306.276 150.853 306.115 150.224 305.793C149.595 305.471 149.128 305.042 148.821 304.505C148.514 303.968 148.361 303.386 148.361 302.757C148.361 301.592 148.806 300.695 149.695 300.066C150.584 299.437 151.796 299.123 153.329 299.123H156.411V298.985C156.411 297.988 156.15 297.237 155.629 296.731C155.108 296.21 154.41 295.949 153.536 295.949C152.785 295.949 152.133 296.141 151.581 296.524C151.044 296.892 150.707 297.436 150.569 298.157H148.591C148.668 297.329 148.944 296.631 149.419 296.064C149.91 295.497 150.515 295.067 151.236 294.776C151.957 294.469 152.723 294.316 153.536 294.316C155.131 294.316 156.327 294.745 157.124 295.604C157.937 296.447 158.343 297.574 158.343 298.985V306H156.618L156.503 303.953C156.181 304.597 155.706 305.149 155.077 305.609C154.464 306.054 153.636 306.276 152.593 306.276ZM152.892 304.643C153.628 304.643 154.257 304.451 154.778 304.068C155.315 303.685 155.721 303.186 155.997 302.573C156.273 301.96 156.411 301.316 156.411 300.641V300.618H153.49C152.355 300.618 151.55 300.817 151.075 301.216C150.615 301.599 150.385 302.082 150.385 302.665C150.385 303.263 150.6 303.746 151.029 304.114C151.474 304.467 152.095 304.643 152.892 304.643ZM165.611 306.276C164.247 306.276 163.112 305.931 162.207 305.241C161.303 304.551 160.774 303.616 160.62 302.435H162.598C162.721 303.033 163.035 303.554 163.541 303.999C164.063 304.428 164.76 304.643 165.634 304.643C166.447 304.643 167.045 304.474 167.428 304.137C167.812 303.784 168.003 303.37 168.003 302.895C168.003 302.205 167.75 301.745 167.244 301.515C166.754 301.285 166.056 301.078 165.151 300.894C164.538 300.771 163.925 300.595 163.311 300.365C162.698 300.135 162.184 299.813 161.77 299.399C161.356 298.97 161.149 298.41 161.149 297.72C161.149 296.723 161.517 295.911 162.253 295.282C163.005 294.638 164.017 294.316 165.289 294.316C166.501 294.316 167.49 294.623 168.256 295.236C169.038 295.834 169.491 296.693 169.613 297.812H167.704C167.628 297.229 167.375 296.777 166.945 296.455C166.531 296.118 165.972 295.949 165.266 295.949C164.576 295.949 164.04 296.095 163.656 296.386C163.288 296.677 163.104 297.061 163.104 297.536C163.104 297.996 163.342 298.356 163.817 298.617C164.308 298.878 164.967 299.1 165.795 299.284C166.501 299.437 167.168 299.629 167.796 299.859C168.44 300.074 168.962 300.403 169.36 300.848C169.774 301.277 169.981 301.906 169.981 302.734C169.997 303.761 169.606 304.612 168.808 305.287C168.026 305.946 166.961 306.276 165.611 306.276ZM176.733 306C175.69 306 174.87 305.747 174.272 305.241C173.674 304.735 173.375 303.823 173.375 302.504V296.225H171.397V294.592H173.375L173.628 291.855H175.307V294.592H178.665V296.225H175.307V302.504C175.307 303.225 175.452 303.715 175.744 303.976C176.035 304.221 176.549 304.344 177.285 304.344H178.481V306H176.733Z" fill="white" fill-opacity="0.7"/>
<defs>
<clipPath id="clip0_2_259">
<rect width="18" height="17" fill="white" transform="translate(73 54)"/>
</clipPath>
<clipPath id="clip1_2_259">
<rect width="18" height="17" fill="white" transform="translate(119 54)"/>
</clipPath>
<clipPath id="clip2_2_259">
<rect width="18" height="17" fill="white" transform="translate(50 54)"/>
</clipPath>
<clipPath id="clip3_2_259">
<rect width="18" height="17" fill="white" transform="translate(142 54)"/>
</clipPath>
<clipPath id="clip4_2_259">
<rect width="18" height="17" fill="white" transform="translate(96 54)"/>
</clipPath>
</defs>
</svg>
